<?xml version="1.0" encoding="utf-8"?>
<!-- Generator: Adobe Illustrator 17.0.0, SVG Export Plug-In . SVG Version: 6.00 Build 0)  -->
<!DOCTYPE svg PUBLIC "-//W3C//DTD SVG 1.0//EN" "http://www.w3.org/TR/2001/REC-SVG-20010904/DTD/svg10.dtd">
<svg version="1.0" id="Layer_1" xmlns="http://www.w3.org/2000/svg" xmlns:xlink="http://www.w3.org/1999/xlink" x="0px" y="0px"
	 width="96px" height="24px" viewBox="0 0 96 24" enable-background="new 0 0 96 24" xml:space="preserve">
<g>
	<g>
		<polygon fill="#010101" points="66.399,16.813 66.399,8.633 62.309,12.723 		"/>
		<path fill="#010101" d="M59.971,0.482C53.61,0.482,48.453,5.639,48.453,12c0,6.361,5.157,11.518,11.518,11.518
			S71.489,18.361,71.489,12C71.489,5.639,66.332,0.482,59.971,0.482z M67.252,16.989c0,0.707-0.577,1.28-1.28,1.28H53.97
			c-0.707,0-1.28-0.577-1.28-1.28V8.457c0-0.705,0.575-1.28,1.28-1.28h12.003c0.707,0,1.28,0.577,1.28,1.28V16.989z"/>
		<polygon fill="#010101" points="65.796,8.03 54.151,8.03 59.998,13.827 		"/>
		<path fill="#010101" d="M60.301,14.731c-0.166,0.166-0.435,0.167-0.602,0.001l-1.441-1.428l-4.112,4.112h11.649l-4.09-4.09
			L60.301,14.731z"/>
		<polygon fill="#010101" points="53.543,8.629 53.543,16.813 57.652,12.703 		"/>
	</g>
</g>
<g>
	<g>
		<path fill="#010101" d="M12.087,23.518c6.361,0,11.518-5.157,11.518-11.518S18.448,0.482,12.087,0.482S0.569,5.639,0.569,12
			S5.726,23.518,12.087,23.518z M12.003,5.285c3.295,0.112,6.226,3.025,6.316,6.284c0.006,0.199,0.062,0.443-0.274,0.389
			c-0.227-0.036-0.55,0.173-0.587-0.32C17.229,8.59,15.08,6.43,11.984,6.156c-0.478-0.042-0.32-0.32-0.351-0.559
			C11.594,5.297,11.77,5.277,12.003,5.285z M11.637,8.055c-0.038-0.344,0.222-0.269,0.41-0.256c1.899,0.131,3.599,1.827,3.765,3.725
			c0.033,0.385-0.098,0.506-0.453,0.426c-0.306,0.072-0.39-0.059-0.42-0.358c-0.151-1.547-1.387-2.79-2.955-2.928
			C11.471,8.619,11.664,8.298,11.637,8.055z M11.643,10.404c0.067-0.153,0.191-0.101,0.296-0.091
			c0.588,0.058,1.217,0.654,1.34,1.263c0.071,0.347,0.033,0.384-0.43,0.385c-0.221,0.041-0.391-0.013-0.459-0.318
			c-0.047-0.209-0.23-0.359-0.441-0.45C11.687,11.08,11.53,10.662,11.643,10.404z M5.502,7.181c0.166-0.139,0.311-0.303,0.465-0.455
			c0.889-0.879,2.29-0.577,2.7,0.604c0.204,0.586,0.364,1.192,0.487,1.8c0.106,0.527-0.045,1.034-0.475,1.368
			c-0.48,0.373-0.483,0.749-0.251,1.267c0.777,1.734,2.044,2.915,3.83,3.553c0.235,0.084,0.41,0.055,0.571-0.145
			c0.604-0.752,1.363-0.905,2.255-0.589c0.353,0.126,0.723,0.206,1.085,0.305c1.134,0.31,1.761,1.828,0.691,2.777
			c-0.484,0.43-0.887,0.924-1.593,1.034c-0.456,0.071-0.843-0.128-1.264-0.178C9.313,17.959,5.487,14.03,5.03,9.345
			C5.003,9.072,4.972,8.799,4.942,8.526C4.891,7.976,5.08,7.535,5.502,7.181z"/>
	</g>
</g>
<g>
	<g>
		<path fill="#010101" d="M39.492,4.875h-6.95c-0.429,0-0.778,0.349-0.778,0.777v9.217h8.505V5.652
			C40.27,5.224,39.921,4.875,39.492,4.875z"/>
		<circle fill="#010101" cx="36.017" cy="17.319" r="0.281"/>
		<path fill="#010101" d="M31.764,18.063c0,0.429,0.349,0.777,0.778,0.777h6.95c0.429,0,0.777-0.349,0.777-0.777v-2.267h-8.505
			V18.063z M36.017,16.111c0.666,0,1.208,0.542,1.208,1.208c0,0.666-0.542,1.208-1.208,1.208c-0.666,0-1.208-0.542-1.208-1.208
			C34.809,16.653,35.351,16.111,36.017,16.111z"/>
		<path fill="#010101" d="M36.029,0.482c-6.361,0-11.518,5.157-11.518,11.518v0c0,6.361,5.157,11.518,11.518,11.518
			S47.547,18.361,47.547,12v0C47.547,5.639,42.39,0.482,36.029,0.482z M41.197,18.063c0,0.94-0.765,1.704-1.704,1.704h-6.95
			c-0.94,0-1.704-0.765-1.704-1.704V5.652c0-0.94,0.764-1.704,1.704-1.704h6.95c0.94,0,1.704,0.765,1.704,1.704V18.063z"/>
	</g>
</g>
<g>
	<g>
		<path fill="#010101" d="M81.08,15.211h2.374v-2.752H80.71C80.74,13.431,80.866,14.363,81.08,15.211z"/>
		<path fill="#010101" d="M83.455,18.833v-2.705h-2.097C81.724,17.153,82.425,18.486,83.455,18.833z"/>
		<path fill="#010101" d="M79.792,12.459h-2.774c0.065,0.988,0.339,1.92,0.777,2.752h2.34C79.94,14.367,79.82,13.439,79.792,12.459z
			"/>
		<path fill="#010101" d="M78.374,16.129c0.807,1.081,1.923,1.918,3.216,2.381c-0.486-0.619-0.896-1.43-1.202-2.381H78.374z"/>
		<path fill="#010101" d="M80.135,8.789h-2.34c-0.439,0.832-0.712,1.764-0.777,2.752h2.774C79.82,10.561,79.94,9.633,80.135,8.789z"
			/>
		<path fill="#010101" d="M81.59,5.491c-1.292,0.463-2.408,1.3-3.216,2.381h2.013C80.693,6.921,81.103,6.109,81.59,5.491z"/>
		<path fill="#010101" d="M86.747,8.789h-2.374v2.752h2.745C87.087,10.569,86.96,9.636,86.747,8.789z"/>
		<path fill="#010101" d="M87.692,15.211h2.34c0.439-0.832,0.712-1.764,0.777-2.752h-2.774
			C88.006,13.439,87.887,14.367,87.692,15.211z"/>
		<path fill="#010101" d="M86.237,18.509c1.292-0.463,2.408-1.3,3.216-2.381h-2.014C87.134,17.079,86.724,17.89,86.237,18.509z"/>
		<path fill="#010101" d="M88.035,11.541h2.774c-0.065-0.988-0.339-1.92-0.777-2.752h-2.34
			C87.887,9.633,88.007,10.561,88.035,11.541z"/>
		<path fill="#010101" d="M86.237,5.491c0.487,0.618,0.897,1.43,1.202,2.381h2.014C88.646,6.791,87.53,5.954,86.237,5.491z"/>
		<path fill="#010101" d="M84.372,16.129v2.705c1.03-0.347,1.731-1.681,2.097-2.705H84.372z"/>
		<path fill="#010101" d="M87.117,12.459h-2.745v2.752h2.374C86.96,14.363,87.087,13.431,87.117,12.459z"/>
		<path fill="#010101" d="M84.372,5.167v2.705h2.097C86.103,6.847,85.402,5.514,84.372,5.167z"/>
		<path fill="#010101" d="M81.358,7.871h2.097V5.167C82.425,5.514,81.724,6.848,81.358,7.871z"/>
		<path fill="#010101" d="M80.71,11.541h2.745V8.789H81.08C80.866,9.636,80.74,10.569,80.71,11.541z"/>
		<path fill="#010101" d="M83.913,0.482c-6.361,0-11.518,5.157-11.518,11.518s5.157,11.518,11.518,11.518S95.431,18.361,95.431,12
			S90.274,0.482,83.913,0.482z M83.913,19.829c-4.327,0-7.829-3.502-7.829-7.829c0-4.328,3.502-7.829,7.829-7.829
			c4.328,0,7.829,3.502,7.829,7.829C91.742,16.327,88.24,19.829,83.913,19.829z"/>
	</g>
</g>
<g>
	<path fill="#010101" d="M-26.22,87.392L-26.22,87.392c-7.332,0-13.277-5.944-13.277-13.276v0c0-7.332,5.944-13.276,13.276-13.276h0
		c7.332,0,13.276,5.944,13.276,13.276v0C-12.944,81.448-18.888,87.392-26.22,87.392z"/>
	<g>
		<path fill="#FFFFFF" d="M-19.303,68.555h-13.835c-0.812,0-1.475,0.662-1.475,1.475v9.836c0,0.81,0.66,1.475,1.475,1.475h13.835
			c0.81,0,1.475-0.66,1.475-1.475v-9.836C-17.827,69.22-18.487,68.555-19.303,68.555L-19.303,68.555z M-19.506,69.539l-6.683,6.683
			l-6.74-6.683H-19.506z M-33.63,79.663V70.23l4.737,4.696L-33.63,79.663z M-32.934,80.358l4.74-4.74l1.661,1.646
			c0.192,0.191,0.503,0.19,0.694-0.002l1.619-1.619l4.714,4.714H-32.934z M-18.811,79.663l-4.714-4.714l4.714-4.714V79.663z
			 M-18.811,79.663"/>
	</g>
</g>
<g>
	<path fill="#010101" d="M-26.22,11.857L-26.22,11.857c-7.332,0-13.277-5.944-13.277-13.276v0c0-7.332,5.944-13.276,13.276-13.276h0
		c7.332,0,13.276,5.944,13.276,13.276v0C-12.944,5.913-18.888,11.857-26.22,11.857z"/>
	<g>
		<path fill="#FDFEFF" d="M-34.456-5.424c-0.059-0.634,0.159-1.143,0.646-1.551c0.191-0.16,0.358-0.349,0.536-0.525
			c1.025-1.013,2.639-0.665,3.113,0.696c0.235,0.675,0.419,1.374,0.561,2.075c0.123,0.607-0.052,1.192-0.547,1.577
			c-0.553,0.43-0.557,0.863-0.289,1.461c0.896,1.999,2.357,3.361,4.415,4.096c0.27,0.097,0.473,0.063,0.658-0.167
			c0.696-0.866,1.571-1.044,2.599-0.678c0.407,0.145,0.833,0.238,1.251,0.352c1.307,0.357,2.03,2.107,0.797,3.201
			c-0.558,0.495-1.022,1.065-1.836,1.192c-0.526,0.082-0.971-0.148-1.456-0.206c-5.407-0.65-9.818-5.179-10.345-10.579
			C-34.386-4.795-34.422-5.109-34.456-5.424z"/>
		<path fill="#F7FCFD" d="M-19.037-1.917c0.007,0.23,0.071,0.51-0.315,0.448c-0.261-0.042-0.635,0.199-0.677-0.369
			c-0.263-3.512-2.741-6.002-6.309-6.318c-0.551-0.049-0.369-0.369-0.405-0.644c-0.045-0.346,0.158-0.369,0.426-0.36
			C-22.519-9.032-19.141-5.674-19.037-1.917z"/>
		<path fill="#F7FCFD" d="M-22.448-1.476c-0.353,0.083-0.45-0.068-0.484-0.413c-0.174-1.783-1.599-3.216-3.407-3.376
			c-0.592-0.052-0.369-0.422-0.4-0.702c-0.044-0.397,0.256-0.309,0.473-0.295c2.188,0.15,4.148,2.106,4.34,4.294
			C-21.887-1.524-22.039-1.385-22.448-1.476z"/>
		<path fill="#F7FCFD" d="M-25.341-1.465c-0.254,0.047-0.45-0.015-0.529-0.367c-0.054-0.24-0.266-0.414-0.508-0.518
			c-0.303-0.13-0.483-0.612-0.353-0.91c0.077-0.176,0.22-0.117,0.341-0.105c0.678,0.067,1.402,0.754,1.544,1.456
			C-24.764-1.509-24.807-1.467-25.341-1.465z"/>
	</g>
</g>
<g>
	<path fill="#010101" d="M-26.22,49.624L-26.22,49.624c-7.332,0-13.277-5.944-13.277-13.276v0c0-7.332,5.944-13.276,13.276-13.276h0
		c7.332,0,13.276,5.944,13.276,13.276v0C-12.944,43.68-18.888,49.624-26.22,49.624z"/>
	<path fill="#FFFFFF" d="M-22.228,27.066h-8.011c-1.084,0-1.965,0.881-1.965,1.965v14.306c0,1.083,0.881,1.965,1.965,1.965h8.011
		c1.083,0,1.965-0.881,1.965-1.965V29.031C-20.263,27.948-21.145,27.066-22.228,27.066L-22.228,27.066z M-30.24,28.135h8.011
		c0.494,0,0.896,0.402,0.896,0.896v10.624h-9.804V29.031C-31.136,28.537-30.734,28.135-30.24,28.135L-30.24,28.135z M-22.228,44.233
		h-8.011c-0.494,0-0.896-0.402-0.896-0.896v-2.613h9.804v2.613C-21.332,43.831-21.734,44.233-22.228,44.233L-22.228,44.233z
		 M-22.228,44.233 M-26.234,41.086c-0.768,0-1.393,0.625-1.393,1.393c0,0.768,0.625,1.393,1.393,1.393
		c0.768,0,1.393-0.625,1.393-1.393C-24.841,41.711-25.466,41.086-26.234,41.086L-26.234,41.086z M-26.234,42.803
		c-0.179,0-0.324-0.145-0.324-0.324c0-0.179,0.145-0.324,0.324-0.324c0.179,0,0.324,0.145,0.324,0.324
		C-25.91,42.657-26.055,42.803-26.234,42.803L-26.234,42.803z M-26.234,42.803"/>
</g>
<g>
	<path fill="#010101" d="M-26.22,125.159L-26.22,125.159c-7.332,0-13.277-5.944-13.277-13.276v0c0-7.332,5.944-13.276,13.276-13.276
		h0c7.332,0,13.276,5.944,13.276,13.276v0C-12.944,119.215-18.888,125.159-26.22,125.159z"/>
	<g>
		<path fill="#FFFFFF" d="M-26.22,102.858c-4.988,0-9.024,4.036-9.024,9.024c0,4.988,4.036,9.024,9.024,9.024
			c4.988,0,9.024-4.036,9.024-9.024C-17.196,106.895-21.232,102.858-26.22,102.858L-26.22,102.858z M-19.167,115.584h-2.698
			c0.225-0.974,0.363-2.042,0.396-3.173h3.198C-18.346,113.551-18.662,114.625-19.167,115.584L-19.167,115.584z M-34.169,112.411
			h3.198c0.033,1.13,0.171,2.199,0.396,3.173h-2.698C-33.779,114.625-34.094,113.551-34.169,112.411L-34.169,112.411z
			 M-33.273,108.181h2.698c-0.225,0.974-0.363,2.042-0.396,3.173h-3.198C-34.094,110.215-33.779,109.141-33.273,108.181
			L-33.273,108.181z M-25.692,107.124v-3.118c1.187,0.4,1.995,1.937,2.417,3.118H-25.692z M-22.955,108.181
			c0.246,0.977,0.392,2.052,0.427,3.173h-3.164v-3.173H-22.955z M-26.749,104.006v3.118h-2.417
			C-28.745,105.944-27.936,104.406-26.749,104.006L-26.749,104.006z M-26.749,108.181v3.173h-3.164
			c0.035-1.121,0.181-2.196,0.427-3.173H-26.749z M-29.913,112.411h3.164v3.173h-2.737
			C-29.732,114.607-29.878,113.532-29.913,112.411L-29.913,112.411z M-26.749,116.642v3.118c-1.187-0.4-1.995-1.937-2.417-3.118
			H-26.749z M-25.692,119.76v-3.118h2.417C-23.696,117.821-24.504,119.359-25.692,119.76L-25.692,119.76z M-25.692,115.584v-3.173
			h3.164c-0.035,1.121-0.181,2.196-0.427,3.173H-25.692z M-21.469,111.354c-0.033-1.13-0.171-2.199-0.396-3.173h2.698
			c0.506,0.959,0.821,2.034,0.896,3.173H-21.469z M-19.835,107.124h-2.321c-0.352-1.096-0.825-2.031-1.386-2.744
			C-22.052,104.913-20.766,105.878-19.835,107.124L-19.835,107.124z M-28.899,104.38c-0.561,0.713-1.033,1.648-1.386,2.744h-2.321
			C-31.675,105.878-30.389,104.913-28.899,104.38L-28.899,104.38z M-32.606,116.642h2.321c0.352,1.096,0.825,2.031,1.386,2.744
			C-30.389,118.852-31.675,117.887-32.606,116.642L-32.606,116.642z M-23.542,119.386c0.561-0.713,1.033-1.648,1.386-2.744h2.321
			C-20.766,117.887-22.052,118.852-23.542,119.386L-23.542,119.386z M-23.542,119.386"/>
	</g>
</g>
</svg>
