<?xml version="1.0" encoding="utf-8"?>
<!-- Generator: Adobe Illustrator 17.0.0, SVG Export Plug-In . SVG Version: 6.00 Build 0)  -->
<!DOCTYPE svg PUBLIC "-//W3C//DTD SVG 1.0//EN" "http://www.w3.org/TR/2001/REC-SVG-20010904/DTD/svg10.dtd">
<svg version="1.0" id="Layer_1" xmlns="http://www.w3.org/2000/svg" xmlns:xlink="http://www.w3.org/1999/xlink" x="0px" y="0px"
	 width="1094.333px" height="327.333px" viewBox="0 0 1094.333 327.333" enable-background="new 0 0 1094.333 327.333"
	 xml:space="preserve">
<g>
	<g>
		<path fill="#808080" d="M214.527,135.682c0-28.018,0-56.037,0-84.055c1.856-4.349,3.404-5.35,8.277-5.35
			c5.499,0,10.999,0.014,16.498-0.019c0.611-0.004,1.298-0.14,1.819-0.44c5.652-3.257,11.273-6.567,16.919-9.835
			c0.6-0.348,0.78-0.642,0.666-1.395c-0.567-3.748,0.697-6.818,3.898-8.873c3.099-1.99,6.388-1.999,9.472,0.016
			c3.162,2.066,4.513,5.095,3.854,8.869c-0.15,0.861,0.271,1.129,0.85,1.465c5.602,3.258,11.191,6.539,16.808,9.771
			c0.521,0.299,1.212,0.42,1.824,0.423c5.886,0.031,11.772,0.007,17.658,0.023c3.368,0.01,5.917,1.765,6.751,4.713
			c0.253,0.893,0.317,1.864,0.319,2.799c0.021,10.655,0.028,21.31-0.01,31.964c-0.004,0.984,0.265,1.423,1.231,1.687
			c3.506,0.959,6.727,2.556,9.732,4.595c0.348,0.236,0.706,0.456,1.041,0.671c3.63-3.605,3.664-3.701,3.424-8.44
			c-0.021-0.42-0.072-0.964,0.151-1.246c0.449-0.567,1.023-1.282,1.645-1.396c0.623-0.114,1.396,0.372,2.044,0.71
			c0.273,0.142,0.392,0.579,0.621,0.947c0.761-0.927,1.465-1.791,2.177-2.648c1.275-1.534,2.487-1.817,3.603-0.849
			c1.057,0.918,0.992,2.179-0.184,3.62c-0.64,0.784-1.277,1.571-1.979,2.434c1.946,0.173,2.834,0.876,2.892,2.161
			c0.057,1.269-0.771,2.053-2.518,2.362c-1.352,0.239-2.71,0.449-4.059,0.701c-0.32,0.06-0.715,0.154-0.908,0.377
			c-1.172,1.352-2.296,2.745-3.421,4.106c0.15,0.216,0.208,0.336,0.297,0.422c11.818,11.387,14.19,30.029,4.979,44.165
			c-0.399,0.612-0.268,0.953,0.204,1.411c1.294,1.257,2.619,2.494,3.794,3.858c3.087,3.583,1.611,8.934-2.844,10.52
			c-0.314,0.112-0.618,0.252-0.926,0.379c-0.773,0-1.547,0-2.321,0c-2.013-0.556-3.542-1.821-4.92-3.324
			c-0.637-0.695-1.375-1.301-1.988-2.015c-0.561-0.654-1.007-0.639-1.72-0.173c-3.406,2.222-7.119,3.756-11.088,4.639
			c-1.579,0.351-3.185,0.586-4.778,0.873c-1.977,0-3.953,0-5.93,0c-2.3-0.474-4.685-0.704-6.879-1.478
			c-3.412-1.204-6.693-2.779-10.227-4.28c-2.189,1.765-3.907,4.703-7.13,5.758c-1.031,0-2.063,0-3.094,0
			c-0.178-0.101-0.347-0.225-0.536-0.3c-4.754-1.912-5.917-7.318-2.359-11.037c1.04-1.086,2.124-2.13,3.176-3.205
			c0.215-0.219,0.38-0.488,0.681-0.882c-0.687,0-1.154,0-1.622,0c-19.424,0-38.847,0.003-58.271-0.009
			c-0.895-0.001-1.816-0.027-2.681-0.229C216.786,140.029,215.433,138.062,214.527,135.682z M315.744,86.017
			c0-0.388,0-0.848,0-1.309c0-10.27,0.002-20.54-0.001-30.81c-0.001-2.575-0.637-3.216-3.192-3.216
			c-30.123-0.001-60.246-0.001-90.369,0c-2.647,0-3.263,0.619-3.263,3.267c0,26.427,0,52.855,0,79.282
			c0,2.665,0.588,3.256,3.242,3.256c18.65,0.001,37.299,0,55.949,0c0.462,0,0.925,0,1.586,0c-3.712-7.837-4.5-15.831-2.43-24.205
			c-1.132,0-2.072,0.011-3.011-0.002c-2.961-0.042-4.701-1.778-4.739-4.756c-0.025-1.976-0.032-3.954,0.002-5.93
			c0.049-2.891,1.798-4.631,4.695-4.667c2.492-0.03,4.986-0.051,7.476,0.014c1.01,0.026,2.011,0.312,3.023,0.429
			c0.284,0.033,0.671-0.024,0.872-0.199c2.326-2.019,4.626-4.07,7.014-6.184c-1.045-1.065-1.08-2.6-1.05-4.167
			c0.032-1.675-0.009-3.352,0.012-5.027c0.036-2.915,1.762-4.649,4.656-4.668c2.707-0.018,5.414-0.014,8.122-0.001
			c3.034,0.015,4.783,1.771,4.804,4.808c0.009,1.316,0.002,2.633,0.002,4.086C311.4,86.017,313.491,86.017,315.744,86.017z
			 M329.29,96.292c-11.214-8.716-30.113-8.553-41.653,5.108c-11.137,13.184-8.939,33.365,4.819,44.051
			c13.74,10.673,33.702,7.807,43.835-6.327c10.291-14.353,5.593-31.991-3.654-39.974c-0.883,1.09-1.764,2.177-2.634,3.251
			c10.594,10.898,9.872,27.093,0.296,36.942c-9.454,9.724-24.801,10.619-35.358,2.045c-10.49-8.519-12.733-23.674-5.234-34.935
			c7.738-11.62,24.152-15.634,36.92-6.913C327.51,98.462,328.399,97.378,329.29,96.292z M324.351,109.222
			c6.812,7.963,5.487,18.471-0.607,24.539c-6.259,6.232-16.19,6.946-23.205,1.655c-7.075-5.336-9.181-15.021-4.917-22.734
			c2.118-3.83,5.226-6.582,9.341-8.082c5.593-2.039,10.952-1.354,16.036,1.768c0.952-1.161,1.833-2.236,2.718-3.316
			c-8.424-6.223-22.121-5.42-29.815,4.605c-7.557,9.847-5.467,23.981,4.579,31.162c10.148,7.254,24.174,4.693,31.085-5.664
			c6.599-9.889,3.323-22.128-2.56-27.15C326.133,107.063,325.261,108.119,324.351,109.222z M318.058,109.948
			c-4.904-3.704-13.122-2.189-17.272,3.079c-4.463,5.665-3.583,13.868,1.982,18.497c5.576,4.637,13.929,3.931,18.628-1.59
			c5.107-6.001,3.38-13.864,0.002-17.105c-0.923,1.119-1.843,2.233-2.737,3.317c2.9,4.964,0.984,9.531-1.735,11.744
			c-3.235,2.633-7.781,2.681-11.066,0.097c-3.24-2.549-4.245-7.067-2.4-10.796c0.91-1.839,2.304-3.189,4.156-4.055
			c2.571-1.202,5.147-1.027,7.705,0.125C316.269,112.113,317.162,111.032,318.058,109.948z M284.967,46.208
			c0.025-0.079,0.049-0.157,0.074-0.236c-3.622-2.113-7.233-4.245-10.885-6.306c-0.291-0.164-0.95,0.033-1.278,0.277
			c-1.598,1.189-3.343,1.87-5.349,1.93c-2.537,0.076-4.638-0.941-6.493-2.56c-3.874,2.266-7.661,4.481-11.449,6.696
			c0.026,0.066,0.051,0.132,0.077,0.198C261.432,46.208,273.2,46.208,284.967,46.208z M267.35,37.471
			c2.44-0.008,4.42-2.005,4.389-4.427c-0.031-2.363-1.997-4.324-4.361-4.351c-2.438-0.027-4.412,1.933-4.417,4.386
			C262.957,35.558,264.877,37.479,267.35,37.471z M296.043,81.593c0,2.22,0,4.303,0,6.405c0.245,0.038,0.41,0.065,0.574,0.089
			c2.709,0.394,5.078-1.022,7.632-1.452c0.185-0.031,0.464-0.318,0.468-0.492c0.037-1.523,0.021-3.046,0.021-4.622
			c-2.845,0-5.5-0.001-8.155,0.003C296.421,81.523,296.259,81.564,296.043,81.593z M312.208,116.934
			c-2.008-0.493-3.886,0.353-4.839,2.116c-0.957,1.771-0.619,3.917,0.837,5.318c1.495,1.438,3.69,1.653,5.453,0.535
			c1.672-1.061,2.373-2.893,1.814-4.747c-1.41,1.092-2.519,1.197-3.438,0.324C311.12,119.611,311.158,118.556,312.208,116.934z
			 M273.916,107.88c1.524,0,2.847,0.025,4.167-0.019c0.285-0.01,0.701-0.193,0.821-0.421c1.049-1.983,2.045-3.995,3.079-6.043
			c-2.656,0-5.285,0-7.966,0c-0.039,0.355-0.096,0.645-0.097,0.934C273.912,104.12,273.916,105.908,273.916,107.88z M287.87,147.669
			c-1.029-1.107-1.979-2.128-3.02-3.247c-1.193,1.223-2.401,2.426-3.567,3.668c-0.957,1.019-0.987,2.189-0.144,3.089
			c0.885,0.946,2.144,0.986,3.187,0.007C285.568,150.019,286.75,148.786,287.87,147.669z M334.712,147.546
			c1.267,1.264,2.503,2.577,3.828,3.792c0.902,0.826,2.075,0.729,2.911-0.077c0.844-0.813,0.994-2.002,0.166-2.892
			c-1.252-1.345-2.626-2.575-3.888-3.794C336.77,145.519,335.795,146.479,334.712,147.546z"/>
		<path fill="#808080" d="M234.37,77.125c1.458,0,2.917-0.027,4.375,0.006c2.477,0.055,4.311,1.828,4.375,4.3
			c0.058,2.272,0.064,4.548-0.004,6.819c-0.068,2.26-1.687,4.076-3.939,4.173c-3.21,0.138-6.434,0.141-9.644,0.007
			c-2.34-0.098-3.914-1.902-3.966-4.259c-0.049-2.272-0.056-4.548,0.005-6.819c0.066-2.426,1.859-4.16,4.293-4.219
			C231.367,77.095,232.869,77.125,234.37,77.125z M238.696,81.589c-2.938,0-5.779,0-8.652,0c0,2.185,0,4.295,0,6.394
			c2.932,0,5.769,0,8.652,0C238.696,85.828,238.696,83.783,238.696,81.589z"/>
		<path fill="#808080" d="M256.414,77.123c1.415-0.001,2.831-0.022,4.246,0.003c2.584,0.046,4.385,1.792,4.436,4.349
			c0.044,2.23,0.044,4.461-0.003,6.691c-0.049,2.346-1.628,4.164-3.966,4.262c-3.21,0.135-6.434,0.135-9.644-0.006
			c-2.308-0.101-3.9-1.965-3.942-4.3c-0.041-2.23-0.047-4.462,0.002-6.691c0.054-2.462,1.886-4.247,4.367-4.302
			C253.411,77.098,254.912,77.125,256.414,77.123z M260.65,81.614c-2.973,0-5.815,0-8.655,0c0,2.18,0,4.261,0,6.394
			c2.913,0,5.753,0,8.655,0C260.65,85.843,260.65,83.763,260.65,81.614z"/>
		<path fill="#808080" d="M278.313,77.122c1.458,0.001,2.917-0.022,4.375,0.006c2.422,0.046,4.238,1.587,4.386,3.99
			c0.15,2.435,0.143,4.891,0.006,7.327c-0.13,2.312-1.785,3.924-4.099,4.007c-3.084,0.11-6.177,0.114-9.261,0.003
			c-2.452-0.088-4.103-1.865-4.187-4.356c-0.074-2.185-0.072-4.376-0.003-6.562c0.084-2.649,1.897-4.372,4.538-4.413
			C275.482,77.104,276.897,77.122,278.313,77.122z M274.034,81.587c0,2.182,0,4.292,0,6.423c2.934,0,5.749,0,8.594,0
			c0-2.198,0-4.311,0-6.423C279.695,81.587,276.876,81.587,274.034,81.587z"/>
		<path fill="#808080" d="M278.433,57.3c1.416,0,2.832-0.023,4.248,0.006c2.405,0.048,4.241,1.61,4.39,4.002
			c0.152,2.435,0.149,4.893,0.009,7.329c-0.138,2.394-1.914,4.003-4.346,4.063c-2.916,0.071-5.836,0.068-8.752,0.003
			c-2.577-0.057-4.359-1.82-4.448-4.395c-0.077-2.228-0.086-4.464,0.006-6.692c0.106-2.572,1.945-4.271,4.517-4.312
			C275.515,57.281,276.974,57.3,278.433,57.3z M274.004,61.755c0,2.183,0,4.302,0,6.463c2.932,0,5.773,0,8.631,0
			c0-2.222,0-4.34,0-6.463C279.709,61.755,276.89,61.755,274.004,61.755z"/>
		<path fill="#808080" d="M256.353,57.3c1.459,0,2.918-0.028,4.376,0.007c2.487,0.059,4.307,1.835,4.363,4.306
			c0.05,2.23,0.045,4.462,0.004,6.692c-0.046,2.489-1.775,4.314-4.288,4.389c-2.958,0.088-5.921,0.08-8.879,0.005
			c-2.621-0.066-4.364-1.937-4.393-4.573c-0.023-2.102-0.026-4.205,0.001-6.306c0.035-2.672,1.873-4.481,4.57-4.517
			C253.522,57.284,254.938,57.3,256.353,57.3z M260.659,61.758c-2.968,0-5.786,0-8.661,0c0,2.187,0,4.307,0,6.468
			c2.926,0,5.776,0,8.661,0C260.659,66.037,260.659,63.944,260.659,61.758z"/>
		<path fill="#808080" d="M256.285,132.09c-1.416,0-2.832,0.019-4.247-0.004c-2.627-0.042-4.461-1.839-4.501-4.442
			c-0.033-2.144-0.029-4.29-0.001-6.434c0.033-2.517,1.685-4.376,4.202-4.474c3.041-0.118,6.093-0.115,9.134-0.007
			c2.537,0.09,4.185,1.905,4.226,4.437c0.035,2.187,0.04,4.376-0.004,6.563c-0.051,2.554-1.861,4.312-4.435,4.357
			C259.202,132.111,257.744,132.09,256.285,132.09z M260.648,127.648c0-2.226,0-4.314,0-6.469c-2.915,0-5.766,0-8.639,0
			c0,2.2,0,4.318,0,6.469C254.913,127.648,257.729,127.648,260.648,127.648z"/>
		<path fill="#808080" d="M234.415,57.301c1.459,0.001,2.918-0.032,4.376,0.009c2.397,0.068,4.246,1.844,4.323,4.237
			c0.073,2.271,0.064,4.548,0.006,6.82c-0.063,2.455-1.864,4.266-4.373,4.332c-2.915,0.076-5.835,0.068-8.751,0.006
			c-2.643-0.056-4.393-1.869-4.437-4.511c-0.036-2.144-0.038-4.29,0.003-6.435c0.05-2.642,1.845-4.411,4.478-4.455
			C231.498,57.28,232.957,57.3,234.415,57.301z M238.672,61.777c-2.929,0-5.778,0-8.618,0c0,2.206,0,4.325,0,6.469
			c2.918,0,5.732,0,8.618,0C238.672,66.084,238.672,63.996,238.672,61.777z"/>
		<path fill="#808080" d="M300.346,72.72c-1.416,0-2.832,0.031-4.247-0.006c-2.72-0.073-4.493-1.847-4.535-4.552
			c-0.033-2.144-0.039-4.291,0.005-6.435c0.054-2.629,1.862-4.396,4.509-4.421c2.831-0.027,5.663-0.026,8.494,0
			c2.685,0.024,4.522,1.849,4.563,4.53c0.033,2.102,0.032,4.204,0.001,6.306c-0.039,2.68-1.841,4.493-4.543,4.571
			C303.179,72.754,301.762,72.72,300.346,72.72z M296.069,61.745c0,2.254,0,4.373,0,6.494c2.928,0,5.742,0,8.597,0
			c0-2.203,0-4.323,0-6.494C301.766,61.745,298.949,61.745,296.069,61.745z"/>
		<path fill="#808080" d="M234.249,112.276c-1.458,0-2.917,0.037-4.374-0.008c-2.511-0.077-4.258-1.821-4.31-4.338
			c-0.047-2.229-0.048-4.461,0.002-6.69c0.056-2.463,1.76-4.233,4.214-4.29c3.043-0.071,6.091-0.072,9.134,0.004
			c2.416,0.06,4.152,1.881,4.209,4.321c0.051,2.186,0.043,4.375,0.004,6.561c-0.046,2.563-1.825,4.359-4.375,4.432
			C237.252,112.311,235.75,112.276,234.249,112.276z M229.996,107.785c2.963,0,5.808,0,8.667,0c0-2.179,0-4.261,0-6.362
			c-2.929,0-5.776,0-8.667,0C229.996,103.572,229.996,105.622,229.996,107.785z"/>
		<path fill="#808080" d="M234.374,132.088c-1.501,0-3.003,0.03-4.504-0.007c-2.428-0.06-4.232-1.803-4.296-4.223
			c-0.062-2.315-0.059-4.633,0.002-6.948c0.057-2.169,1.545-3.976,3.7-4.089c3.334-0.175,6.689-0.181,10.023-0.015
			c2.251,0.112,3.775,1.983,3.824,4.273c0.048,2.23,0.056,4.462-0.002,6.691c-0.064,2.467-1.906,4.256-4.371,4.312
			C237.292,132.115,235.833,132.088,234.374,132.088z M230.059,121.163c0,2.252,0,4.366,0,6.467c2.923,0,5.737,0,8.6,0
			c0-2.179,0-4.291,0-6.467C235.762,121.163,232.949,121.163,230.059,121.163z"/>
		<path fill="#808080" d="M256.267,112.27c-1.501,0-3.004,0.045-4.503-0.01c-2.408-0.09-4.173-1.886-4.222-4.308
			c-0.045-2.229-0.045-4.461,0-6.69c0.049-2.429,1.79-4.251,4.214-4.309c3.043-0.073,6.091-0.074,9.134-0.002
			c2.445,0.058,4.154,1.847,4.204,4.303c0.046,2.229,0.046,4.461,0,6.69c-0.051,2.502-1.811,4.251-4.325,4.325
			c-1.5,0.044-3.002,0.008-4.503,0.008C256.267,112.275,256.267,112.273,256.267,112.27z M251.995,101.391c0,2.2,0,4.283,0,6.403
			c2.921,0,5.769,0,8.643,0c0-2.172,0-4.255,0-6.403C257.746,101.391,254.926,101.391,251.995,101.391z"/>
	</g>
	<g>
		<path fill="#808080" d="M402.799,94.372c0.588-1.334,1.617-1.777,3.054-1.769c8.031,0.041,16.062,0.004,24.093,0.041
			c0.897,0.004,1.283-0.267,1.631-1.105c0.988-2.378,2.123-4.695,3.202-7.036c0.144-0.311,0.302-0.616,0.534-1.087
			c-1.809,0-3.461,0-5.113,0c-2.743,0-5.487,0.005-8.23-0.002c-1.813-0.004-2.94-0.946-2.91-2.413
			c0.029-1.415,1.149-2.351,2.873-2.354c5.248-0.009,10.496,0.015,15.744-0.033c0.503-0.005,1.165-0.284,1.479-0.663
			c6.902-8.359,15.54-13.964,26.093-16.554c0.671-0.165,0.999-0.423,0.964-1.187c-0.065-1.428-0.051-2.863-0.004-4.293
			c0.02-0.627-0.228-0.887-0.784-1.11c-3.862-1.546-5.987-5.18-5.29-8.973c0.74-4.029,4.047-6.745,8.315-6.764
			c5.447-0.024,10.894-0.014,16.341-0.004c4.429,0.009,7.728,2.621,8.479,6.686c0.749,4.052-1.407,7.596-5.6,9.211
			c-0.11,0.042-0.217,0.091-0.359,0.151c0,1.972,0,3.951,0,5.685c3.523,1.337,7.063,2.346,10.298,3.966
			c15.391,7.708,24.444,20.165,26.881,37.206c1.643,11.487-0.95,22.174-7.047,32.028c-0.625,1.01-1.45,1.594-2.66,1.385
			c-1.047-0.181-1.816-0.871-1.86-1.895c-0.033-0.763,0.27-1.639,0.681-2.307c2.839-4.621,4.771-9.585,5.797-14.902
			c3.991-20.675-7.63-41.363-27.394-48.781c-21.185-7.951-45.057,1.795-54.603,22.292c-11.485,24.662,2.21,53.661,28.612,60.347
			c11.888,3.011,23.169,1.261,33.685-5.128c0.238-0.144,0.468-0.302,0.712-0.434c1.283-0.695,2.639-0.38,3.335,0.767
			c0.691,1.14,0.366,2.503-0.872,3.306c-4.503,2.924-9.369,5.04-14.589,6.284c-23.536,5.609-46.924-6.341-56.144-28.686
			c-0.338-0.82-0.781-1.018-1.596-1.012c-4.93,0.032-9.86,0.018-14.79,0.012c-0.515-0.001-1.04,0.001-1.544-0.091
			c-1.101-0.202-1.871-1.189-1.865-2.302c0.006-1.066,0.728-2.024,1.777-2.254c0.498-0.109,1.025-0.115,1.539-0.116
			c4.532-0.008,9.065-0.005,13.597-0.008c0.232,0,0.464-0.032,0.754-0.053c-0.484-3.012-0.959-5.967-1.465-9.114
			c-0.317,0-0.735,0-1.154,0c-2.982,0-5.964,0.008-8.946-0.003c-1.702-0.007-2.798-0.991-2.761-2.44
			c0.035-1.403,1.1-2.318,2.761-2.324c3.335-0.012,6.67-0.004,10.022-0.004c0.392-3.048,0.774-6.022,1.175-9.146
			c-0.424,0-0.889,0-1.354,0c-7.355,0-14.711-0.024-22.066,0.02c-1.46,0.009-2.634-0.332-3.431-1.611
			C402.799,95.326,402.799,94.849,402.799,94.372z M476.765,50.517c2.66,0,5.32,0.01,7.98-0.008c0.549-0.004,1.123-0.029,1.64-0.191
			c1.499-0.47,2.452-2.022,2.24-3.521c-0.253-1.784-1.607-2.941-3.605-2.95c-5.518-0.025-11.037-0.026-16.556-0.001
			c-2.196,0.01-3.666,1.422-3.647,3.388c0.019,1.974,1.47,3.266,3.73,3.278C471.286,50.529,474.026,50.517,476.765,50.517z
			 M471.032,60.129c3.881,0,7.628,0,11.39,0c0-1.579,0-3.149,0-4.768c-3.82,0-7.572,0-11.39,0
			C471.032,57.002,471.032,58.571,471.032,60.129z"/>
		<path fill="#808080" d="M402.799,122.047c0.166-0.206,0.33-0.413,0.499-0.617c0.934-1.129,2.543-1.24,3.549-0.246
			c0.992,0.981,0.945,2.551-0.104,3.467c-1.057,0.923-2.679,0.711-3.52-0.467c-0.159-0.223-0.284-0.47-0.424-0.706
			C402.799,123.001,402.799,122.524,402.799,122.047z"/>
		<path fill="#808080" d="M513.753,108.169c-0.009,20.409-16.661,37.041-37.044,37c-20.409-0.041-36.995-16.698-36.944-37.103
			c0.051-20.397,16.588-36.9,36.985-36.91C497.183,71.146,513.761,87.728,513.753,108.169z M508.981,108.183
			c0.01-17.81-14.363-32.213-32.185-32.253c-17.774-0.04-32.236,14.386-32.26,32.181c-0.024,17.764,14.429,32.262,32.187,32.287
			C494.474,140.423,508.971,125.946,508.981,108.183z"/>
		<path fill="#808080" d="M506.797,140.446c0.043-1.308,1.096-2.293,2.419-2.26c1.297,0.032,2.348,1.11,2.325,2.384
			c-0.023,1.331-1.162,2.384-2.509,2.32C507.725,142.829,506.754,141.767,506.797,140.446z"/>
		<path fill="#808080" d="M469.289,108.11c0.114-0.663,0.076-1.407,0.375-1.972c0.582-1.099,0.095-1.706-0.665-2.411
			c-1.368-1.271-2.669-2.615-3.972-3.954c-1.15-1.182-1.197-2.59-0.165-3.585c0.973-0.939,2.4-0.881,3.512,0.202
			c1.509,1.47,3.001,2.959,4.462,4.477c0.445,0.462,0.801,0.578,1.436,0.331c1.609-0.626,3.289-0.64,4.896-0.025
			c0.742,0.284,1.128,0.087,1.626-0.416c3.523-3.56,7.066-7.102,10.628-10.623c0.436-0.431,0.984-0.834,1.556-1.023
			c1.008-0.334,1.899,0.043,2.496,0.916c0.624,0.914,0.621,1.9-0.071,2.767c-0.568,0.711-1.249,1.332-1.895,1.978
			c-3.089,3.095-6.171,6.198-9.286,9.267c-0.569,0.561-0.729,0.992-0.459,1.828c0.971,3.007,0.254,5.695-2.102,7.791
			c-2.314,2.058-5.014,2.477-7.882,1.249C471.046,113.737,469.343,111.065,469.289,108.11z M476.747,105.541
			c-1.477,0.005-2.637,1.181-2.613,2.65c0.022,1.403,1.178,2.569,2.576,2.6c1.433,0.031,2.661-1.173,2.674-2.622
			C479.396,106.703,478.225,105.536,476.747,105.541z"/>
		<path fill="#808080" d="M479.152,83.74c0,0.395,0.022,0.792-0.004,1.186c-0.088,1.312-1.02,2.243-2.269,2.289
			c-1.237,0.046-2.309-0.826-2.445-2.107c-0.091-0.86-0.084-1.742-0.017-2.606c0.106-1.354,1.157-2.263,2.456-2.222
			c1.305,0.04,2.213,0.988,2.281,2.393c0.017,0.355,0.003,0.712,0.003,1.067C479.155,83.74,479.154,83.74,479.152,83.74z"/>
		<path fill="#808080" d="M501.136,105.811c0.395,0.001,0.792-0.019,1.186,0.005c1.297,0.078,2.26,1.015,2.326,2.244
			c0.065,1.206-0.826,2.325-2.096,2.465c-0.898,0.099-1.822,0.098-2.722,0.009c-1.352-0.133-2.198-1.21-2.116-2.536
			c0.076-1.248,1.008-2.118,2.355-2.185C500.424,105.795,500.78,105.81,501.136,105.811z"/>
		<path fill="#808080" d="M474.364,132.545c0-0.395-0.023-0.792,0.004-1.185c0.088-1.294,1.043-2.242,2.28-2.288
			c1.227-0.045,2.301,0.843,2.438,2.125c0.088,0.821,0.073,1.661,0.023,2.487c-0.086,1.411-1.175,2.414-2.474,2.354
			c-1.27-0.059-2.209-1.057-2.272-2.426c-0.016-0.355-0.002-0.711-0.002-1.067C474.362,132.545,474.363,132.545,474.364,132.545z"/>
		<path fill="#808080" d="M452.43,105.785c0.437,0,0.878-0.042,1.309,0.008c1.207,0.139,2.026,1.042,2.067,2.227
			c0.041,1.204-0.675,2.218-1.876,2.384c-0.974,0.134-1.986,0.138-2.966,0.042c-1.258-0.123-2.111-1.161-2.101-2.347
			c0.01-1.238,0.941-2.21,2.256-2.323c0.434-0.037,0.873-0.006,1.31-0.006C452.43,105.775,452.43,105.78,452.43,105.785z"/>
	</g>
	<g>
		<path fill="#808080" d="M591.983,156.309c-1.344-0.729-1.79-1.838-1.748-3.369c0.408-14.713,10.057-29.218,24.574-33.705
			c3.307-1.022,6.582-2.151,9.845-3.305c0.548-0.194,1.136-0.672,1.408-1.178c1.191-2.214,2.251-4.497,3.406-6.73
			c0.308-0.595,0.254-0.941-0.164-1.503c-1.473-1.977-2.881-4.008-4.202-6.088c-0.415-0.653-0.82-0.797-1.536-0.89
			c-1.608-0.209-3.331-0.327-4.751-1.012c-2.485-1.2-3.654-3.469-3.788-6.235c-0.012-0.247-0.028-0.498-0.002-0.743
			c0.152-1.421-0.083-2.427-1.617-3.213c-2.094-1.074-3.267-3.145-3.284-5.495c-0.048-6.643-0.451-13.345,0.256-19.919
			c1.634-15.19,9.876-25.894,24.182-31.136c21.371-7.831,43.886,4.76,48.932,26.949c0.589,2.592,0.785,5.31,0.854,7.977
			c0.131,5.033,0.047,10.072,0.035,15.109c-0.011,4.689-3.162,7.827-7.854,7.846c-1.318,0.005-2.636,0.001-4.047,0.001
			c-0.284,1.544-0.506,3.046-0.84,4.523c-1.051,4.642-3.181,8.743-6.404,12.245c-0.556,0.604-0.562,1.024-0.205,1.702
			c1.13,2.153,2.146,4.367,3.306,6.502c0.293,0.54,0.891,1.071,1.467,1.277c4.382,1.569,8.939,2.731,13.166,4.632
			c11.276,5.071,17.743,14.134,20.45,26.011c0.473,2.077,0.511,4.251,0.776,6.377c0.19,1.529-0.389,2.638-1.728,3.369
			C665.642,156.309,628.812,156.309,591.983,156.309z M669.472,71.651c-0.695-0.133-1.096-0.238-1.503-0.283
			c-9.941-1.09-18.676-4.876-26.119-11.601c-0.34-0.307-0.963-0.504-1.418-0.45c-5,0.601-9.05,2.903-12.105,6.924
			c-0.899,1.183-1.832,2.343-2.656,3.577c-0.315,0.471-0.542,1.129-0.508,1.684c0.211,3.417,0.404,6.842,0.806,10.24
			c0.45,3.806,1.144,7.582,1.671,11.38c0.168,1.212,0.696,1.625,1.925,1.531c1.56-0.119,3.137-0.066,4.704-0.012
			c0.717,0.025,1.053-0.226,1.387-0.867c1.373-2.638,3.597-4.016,6.576-4.095c1.692-0.044,3.386-0.034,5.078-0.001
			c4.08,0.079,7.313,3.328,7.346,7.351c0.033,4.089-3.197,7.407-7.323,7.496c-1.527,0.033-3.055-0.003-4.583,0.01
			c-3.281,0.028-5.703-1.36-7.214-4.304c-0.131-0.255-0.409-0.609-0.629-0.617c-1.492-0.055-2.987-0.028-4.577-0.028
			c3.515,6.75,11.968,10.944,19.419,9.786c8.134-1.264,13.475-6.055,16.175-13.585c1.263-3.523,1.689-7.38,2.216-11.125
			C668.741,80.384,669.034,76.061,669.472,71.651z M625.941,120.766c-3.109,1.043-6.012,2.084-8.955,2.992
			c-10.334,3.187-16.749,10.287-20.19,20.282c-0.792,2.3-1.122,4.759-1.684,7.233c16.04,0,31.731,0,47.753,0
			C636.16,141.538,629.605,131.983,625.941,120.766z M651.585,151.274c16.069,0,31.772,0,47.656,0
			c-0.345-1.845-0.536-3.62-1.016-5.312c-2.95-10.391-9.047-18.023-19.439-21.77c-3.022-1.09-6.094-2.043-9.145-3.052
			c-0.336-0.111-0.686-0.179-1.155-0.3C664.818,132.024,658.288,141.553,651.585,151.274z M669.388,66.54
			c0.041-0.128,0.101-0.241,0.11-0.359c0.766-9.825-5.603-18.925-15.172-21.161c-3.003-0.702-6.219-0.646-9.339-0.655
			c-8.875-0.028-16.582,5.758-19.171,14.252c-0.325,1.066-0.505,2.177-0.765,3.327c0.275-0.017,0.331-0.004,0.352-0.025
			c0.261-0.264,0.514-0.535,0.774-0.799c4.179-4.242,9.245-6.507,15.186-6.875c1.294-0.08,2.28,0.329,3.213,1.225
			C651.511,62.128,659.858,65.647,669.388,66.54z M679.253,64.104c-0.909-15.645-14.809-30.772-33.953-29.598
			c-19.639,1.204-29.879,17.898-30.001,29.647c0.779,0,1.558,0,2.337,0c0.768,0,1.535,0,2.302,0
			c0.028-0.381,0.047-0.586,0.057-0.791c0.51-10.41,7.256-19.337,17.095-22.706c4.076-1.396,8.28-1.312,12.49-1.276
			c10.636,0.092,20.027,6.766,23.445,16.857c0.848,2.504,1.189,5.18,1.783,7.866C676.126,64.104,677.639,64.104,679.253,64.104z
			 M647.098,125.991c-0.2,0.121-0.323,0.163-0.402,0.246c-2.668,2.812-5.316,5.643-8.009,8.431
			c-0.513,0.531-0.347,0.902-0.029,1.385c2.785,4.233,5.561,8.471,8.348,12.703c0.054,0.081,0.202,0.101,0.258,0.127
			c2.545-3.794,5.086-7.543,7.584-11.321c1.522-2.302,1.492-2.322-0.43-4.245C651.977,130.874,649.536,128.43,647.098,125.991z
			 M659.071,130.688c1.727-4.177,3.441-8.307,5.13-12.448c0.092-0.227,0.05-0.579-0.062-0.808c-1.008-2.07-2.046-4.125-3.146-6.328
			c-3.571,3.776-7.058,7.463-10.446,11.046C653.38,124.987,656.109,127.721,659.071,130.688z M635.456,130.892
			c2.874-3.042,5.433-5.752,7.745-8.198c-3.539-3.547-6.952-6.967-10.347-10.37c-0.763,1.523-1.625,3.207-2.444,4.913
			c-0.145,0.301-0.25,0.746-0.136,1.029C631.934,122.379,633.634,126.476,635.456,130.892z M621.158,84.709
			c-0.415-5.255-0.818-10.373-1.223-15.507c-1.624,0-3.244,0-4.906,0c0,4.419-0.025,8.743,0.014,13.067
			c0.013,1.416,1.023,2.372,2.449,2.43C618.68,84.747,619.872,84.709,621.158,84.709z M673.299,84.714
			c1.074,0,2.135,0.008,3.196-0.002c2.018-0.018,2.928-0.929,2.934-2.966c0.01-3.667,0.003-7.334,0.003-11.001
			c0-0.519,0-1.039,0-1.576c-1.751,0-3.342,0-4.911,0C674.114,74.35,673.711,79.468,673.299,84.714z M644.694,99.57
			c0.863,0,1.729,0.04,2.589-0.009c1.404-0.08,2.416-1.145,2.411-2.468c-0.004-1.324-1.02-2.406-2.425-2.45
			c-1.683-0.053-3.371-0.055-5.055,0.001c-1.405,0.047-2.414,1.136-2.41,2.462c0.004,1.324,1.017,2.377,2.424,2.456
			C643.048,99.609,643.872,99.571,644.694,99.57z M642.706,114.153c1.375,1.383,2.864,2.88,4.398,4.423
			c1.259-1.337,2.601-2.761,3.873-4.112c-1.414,0-2.8,0.042-4.183-0.012C645.36,114.395,643.929,114.246,642.706,114.153z
			 M622.846,94.509c-0.149-0.853-0.279-1.624-0.419-2.394c-0.145-0.799-0.3-1.596-0.447-2.375c-0.712,0-1.312,0-1.898,0
			C619.594,92.998,620.444,94.754,622.846,94.509z"/>
		<path fill="#808080" d="M691.96,142.377c-0.094,1.238-0.643,2.052-1.749,2.402c-1.113,0.352-2.161,0.053-2.703-0.936
			c-1.568-2.862-3.589-5.303-6.091-7.395c-0.968-0.81-0.944-2.154-0.195-3.145c0.744-0.985,2.073-1.393,3.079-0.691
			c3.346,2.336,5.85,5.407,7.532,9.133C691.932,141.962,691.931,142.226,691.96,142.377z"/>
		<path fill="#808080" d="M674.448,132.517c-1.366-0.016-2.489-1.195-2.438-2.559c0.049-1.318,1.177-2.393,2.496-2.377
			c1.318,0.016,2.422,1.117,2.44,2.434C676.963,131.382,675.814,132.533,674.448,132.517z"/>
	</g>
	<g>
		<path fill="#808080" d="M901.543,154.902c-0.672,1.097-1.648,1.408-2.92,1.407c-45.367-0.025-90.735-0.021-136.102-0.021
			c-0.277,0-0.556,0.014-0.831-0.009c-1.206-0.102-2.035-0.915-2.067-2.014c-0.034-1.149,0.824-2.071,2.093-2.117
			c1.466-0.053,2.936-0.012,4.491-0.012c0.026-0.518,0.064-0.92,0.064-1.321c0.004-5.729,0.022-11.457-0.025-17.186
			c-0.005-0.623-0.254-1.352-0.632-1.846c-1.674-2.185-2.091-4.533-0.91-7.011c1.175-2.467,3.225-3.722,5.992-3.723
			c4.897-0.002,9.794-0.001,14.691-0.001c0.496,0,0.992,0,1.67,0c0-0.681-0.01-1.22,0.001-1.759
			c0.47-21.523,0.94-43.045,1.417-64.568c0.041-1.86,0.782-2.597,2.647-2.606c4.019-0.019,8.039-0.014,12.058-0.003
			c2.087,0.005,2.752,0.638,2.8,2.703c0.352,15.195,0.71,30.389,1.025,45.585c0.08,3.867,0.012,7.736,0.012,11.682
			c2.228,0,4.053,0,6.029,0c0.199-2.952,0.411-5.882,0.592-8.814c0.496-8.021,0.973-16.043,1.471-24.064
			c0.125-2.006,0.772-2.61,2.784-2.624c2.495-0.017,4.99-0.014,7.484-0.002c2.125,0.01,2.745,0.543,2.883,2.66
			c0.425,6.498,0.805,13,1.209,19.5c0.275,4.419,0.561,8.838,0.847,13.338c1.674,0,3.263,0,4.958,0
			c0.279-4.292,0.563-8.523,0.826-12.756c0.409-6.592,0.792-13.186,1.211-19.777c0.159-2.505,0.676-2.962,3.156-2.967
			c2.356-0.005,4.712-0.008,7.068,0.001c2.245,0.009,2.831,0.599,2.971,2.874c0.657,10.695,1.322,21.39,1.987,32.084
			c0.008,0.136,0.048,0.271,0.094,0.516c1.573,0,3.16,0,4.907,0c0.175-2.664,0.355-5.323,0.523-7.983
			c0.525-8.297,1.034-16.595,1.578-24.89c0.136-2.071,0.725-2.586,2.768-2.599c2.495-0.016,4.99-0.014,7.484,0
			c2.138,0.011,2.734,0.646,2.866,2.824c0.647,10.649,1.312,21.298,1.974,31.946c0.014,0.221,0.072,0.439,0.136,0.815
			c1.694,0,3.343,0,4.992,0c2.818,0,5.636-0.006,8.454,0.003c2.766,0.009,4.809,1.275,5.973,3.75
			c1.169,2.486,0.748,4.841-0.953,7.001c-0.314,0.398-0.599,0.957-0.601,1.442c-0.034,9.055-0.023,18.11-0.019,27.165
			c0,0.135,0.033,0.27,0.077,0.607c1.944,0,3.913,0.06,5.876-0.021c1.276-0.053,2.25,0.307,2.92,1.407
			C901.543,153.978,901.543,154.44,901.543,154.902z M888.454,125.198c-1.568,0-2.997,0.047-4.421-0.014
			c-1.386-0.059-2.231-0.961-2.177-2.181c0.051-1.159,0.896-1.915,2.235-1.949c1.062-0.027,2.124-0.005,3.187-0.007
			c2.233-0.004,3.394-0.794,3.436-2.336c0.043-1.603-1.097-2.391-3.465-2.391c-28.866,0-57.733,0-86.599,0
			c-0.462,0-0.926-0.021-1.385,0.022c-1.185,0.111-2.117,1.008-2.147,2.153c-0.031,1.186,0.523,2.071,1.703,2.382
			c0.612,0.161,1.277,0.164,1.918,0.164c24.34,0.007,48.68,0.006,73.02,0.007c0.462,0,0.925-0.017,1.385,0.015
			c1.139,0.078,1.802,0.762,1.922,1.832c0.122,1.091-0.447,1.887-1.523,2.168c-0.568,0.148-1.187,0.137-1.783,0.137
			c-24.202,0.006-48.403,0.005-72.605,0.005c-0.58,0-1.161,0-1.748,0c0,9.084,0,17.968,0,26.835c29.737,0,59.366,0,89.046,0
			C888.454,143.1,888.454,134.249,888.454,125.198z M803.121,112.164c-0.416-18.695-0.828-37.225-1.24-55.788
			c-3.183,0-6.196,0-9.269,0c-0.709,31.943-1.416,63.777-2.124,95.643c1.627,0,3.114,0,4.655,0c0-9.344,0.008-18.577-0.026-27.811
			c-0.002-0.439-0.309-0.934-0.599-1.305c-1.689-2.16-2.11-4.512-0.935-6.998c1.142-2.415,3.128-3.692,5.836-3.738
			C800.606,112.147,801.794,112.164,803.121,112.164z M786.788,125.224c-5.559,0-11.002-0.046-16.442,0.061
			c-0.646,0.013-1.56,0.741-1.831,1.364c-0.271,0.622-0.139,1.713,0.271,2.258c0.423,0.563,1.459,0.62,2.103,1.074
			c0.658,0.464,1.542,1.09,1.631,1.741c0.089,0.647-0.639,1.448-1.109,2.11c-0.172,0.243-0.632,0.281-0.91,0.392
			c0,5.982,0,11.877,0,17.795c5.295,0,10.518,0,15.983,0c0-5.999,0-11.89,0-17.93c-2.055,0-4.213,0.009-6.37-0.003
			c-1.722-0.01-2.714-0.781-2.725-2.085c-0.012-1.305,0.97-2.063,2.701-2.068c2.201-0.006,4.401-0.002,6.698-0.002
			C786.788,128.302,786.788,126.843,786.788,125.224z M848.36,112.086c-0.655-10.466-1.305-20.846-1.958-31.26
			c-1.734,0-3.326,0-4.988,0c-0.654,10.466-1.303,20.842-1.954,31.26C842.506,112.086,845.346,112.086,848.36,112.086z
			 M826.143,112.099c-0.66-10.511-1.309-20.861-1.964-31.287c-1.688,0-3.282,0-4.985,0c-0.654,10.452-1.303,20.833-1.956,31.287
			C820.281,112.099,823.122,112.099,826.143,112.099z M861.68,112.087c3.024,0,5.862,0,8.898,0
			c-0.653-10.46-1.3-20.834-1.951-31.259c-1.737,0-3.325,0-4.992,0C862.982,91.261,862.335,101.604,861.68,112.087z"/>
		<path fill="#808080" d="M901.543,43.464c-0.315,1.479-0.519,2.993-0.964,4.432c-3.219,10.395-10.121,17.063-20.819,18.996
			c-10.808,1.953-19.688-1.878-26.334-10.671c-0.54-0.714-0.921-1.002-1.888-0.742c-6.873,1.853-13.044,0.424-18.519-4.127
			c-0.38-0.316-1.09-0.587-1.508-0.452c-5.791,1.873-11.011,0.947-15.665-3.013c-0.104-0.088-0.228-0.152-0.261,0.131
			c-1.922,0.523-3.82,1.181-5.773,1.523c-1.385,0.243-2.329-0.67-2.41-1.872c-0.079-1.17,0.781-2.129,2.162-2.21
			c1.717-0.101,3.082-0.796,4.244-2.037c1.205-1.287,2.449-1.332,3.523,0.016c3.373,4.239,9.514,5.497,14.254,2.836
			c1.029-0.577,1.94-0.345,2.748,0.492c5.175,5.364,11.227,6.725,18.186,3.989c1.464-0.576,2.225-0.235,3.163,1.334
			c3.378,5.65,8.283,9.21,14.693,10.654c11.741,2.646,23.825-5.076,26.443-16.861c2.696-12.137-4.874-24.236-16.836-26.8
			c-7.507-1.609-14.172,0.183-19.953,5.238c-1.563,1.367-2.233,1.394-3.839,0.101c-6.682-5.382-15.617-4.834-21.532,1.322
			c-1.301,1.354-1.798,1.441-3.52,0.617c-6.262-2.994-13.372-0.029-15.665,6.534c-0.787,2.253-1.557,2.605-3.713,1.699
			c-3.538-1.487-7.137,0.473-7.859,4.28c-0.45,2.371-1.289,2.857-3.56,2.063c-1.586-0.554-2.826,0.266-3.267,1.991
			c-0.178,0.699-0.544,1.546-1.096,1.896c-0.492,0.312-1.609,0.303-2.001-0.055c-0.555-0.507-1.006-1.484-0.963-2.229
			c0.187-3.174,2.706-5.663,5.921-5.921c0.897-0.072,1.34-0.309,1.738-1.148c1.888-3.983,5.978-6.078,10.396-5.386
			c0.707,0.111,1.048-0.052,1.404-0.692c3.937-7.087,11.233-9.947,18.854-7.479c0.428,0.139,1.146,0.076,1.45-0.2
			c6.853-6.206,17.242-6.922,24.933-1.388c0.071,0.051,0.167,0.067,0.362,0.141c2.889-2.322,6.128-4.141,9.789-5.108
			c1.509-0.399,3.051-0.672,4.577-1.002c1.756,0,3.511,0,5.267,0c0.259,0.082,0.512,0.205,0.777,0.241
			c10.967,1.499,19.685,9.345,22.311,20.105c0.282,1.157,0.503,2.329,0.753,3.494C901.543,39.953,901.543,41.709,901.543,43.464z"/>
		<path fill="#808080" d="M832.62,134.376c0,0.736,0.055,1.478-0.012,2.208c-0.108,1.179-0.84,1.876-1.99,1.899
			s-1.98-0.64-2.048-1.818c-0.095-1.651-0.095-3.316,0.011-4.966c0.07-1.103,0.836-1.732,1.956-1.747
			c1.187-0.016,1.926,0.633,2.055,1.803c0.095,0.864,0.019,1.747,0.019,2.621C832.613,134.376,832.617,134.376,832.62,134.376z"/>
		<path fill="#808080" d="M877.103,134.183c0,0.784,0.06,1.573-0.014,2.35c-0.112,1.177-1.039,2-2.107,1.977
			c-1.09-0.024-1.961-0.863-2-2.058c-0.049-1.52-0.059-3.045,0.007-4.563c0.051-1.176,0.758-1.871,1.939-1.935
			c1.2-0.066,1.94,0.617,2.125,1.746c0.132,0.808,0.026,1.654,0.026,2.484C877.086,134.183,877.094,134.183,877.103,134.183z"/>
		<path fill="#808080" d="M814.837,134.321c0,0.737,0.036,1.476-0.008,2.211c-0.072,1.197-0.795,1.889-1.936,1.951
			c-1.159,0.063-2.018-0.607-2.1-1.762c-0.12-1.692-0.123-3.409,0.023-5.099c0.1-1.159,0.978-1.76,2.159-1.664
			c1.11,0.09,1.765,0.762,1.846,1.877c0.06,0.825,0.012,1.657,0.012,2.486C814.834,134.321,814.836,134.321,814.837,134.321z"/>
		<path fill="#808080" d="M846.322,134.177c0-0.783-0.047-1.57,0.011-2.348c0.084-1.118,0.742-1.784,1.851-1.871
			c1.179-0.093,2.057,0.505,2.154,1.668c0.142,1.69,0.142,3.406,0.021,5.099c-0.083,1.155-0.944,1.824-2.103,1.758
			c-1.142-0.065-1.864-0.759-1.931-1.956c-0.044-0.781-0.008-1.566-0.008-2.349C846.318,134.177,846.32,134.177,846.322,134.177z"/>
		<path fill="#808080" d="M864.085,134.185c0-0.738-0.026-1.476,0.006-2.212c0.052-1.181,0.688-1.907,1.863-2.015
			c1.184-0.109,2.072,0.517,2.169,1.659c0.148,1.734,0.136,3.5-0.013,5.235c-0.093,1.08-0.973,1.7-2.069,1.632
			c-1.143-0.071-1.871-0.75-1.942-1.948c-0.047-0.781-0.009-1.567-0.009-2.35C864.088,134.185,864.087,134.185,864.085,134.185z"/>
		<path fill="#808080" d="M855.202,134.118c0-0.737-0.039-1.477,0.009-2.211c0.077-1.181,0.741-1.877,1.921-1.952
			c1.118-0.072,1.991,0.507,2.078,1.595c0.141,1.779,0.139,3.588-0.017,5.365c-0.096,1.091-1.02,1.66-2.106,1.567
			c-1.072-0.091-1.788-0.743-1.866-1.876c-0.057-0.826-0.011-1.658-0.011-2.487C855.206,134.118,855.204,134.118,855.202,134.118z"
			/>
		<path fill="#808080" d="M823.701,134.267c0,0.828,0.076,1.665-0.019,2.483c-0.13,1.122-0.902,1.721-1.983,1.737
			c-1.02,0.015-1.884-0.542-1.961-1.582c-0.131-1.781-0.144-3.587-0.005-5.367c0.086-1.099,0.969-1.651,2.079-1.585
			c1.112,0.067,1.792,0.715,1.89,1.829c0.073,0.822,0.014,1.656,0.014,2.485C823.711,134.267,823.706,134.267,823.701,134.267z"/>
		<path fill="#808080" d="M837.435,134.142c0.001-0.783-0.055-1.57,0.014-2.346c0.099-1.112,0.768-1.773,1.881-1.84
			c1.18-0.071,2.036,0.539,2.123,1.706c0.127,1.691,0.117,3.405,0.004,5.098c-0.073,1.104-0.904,1.735-1.99,1.725
			c-1.148-0.011-1.912-0.669-2.018-1.858C837.375,135.805,837.434,134.971,837.435,134.142z"/>
	</g>
	<g>
		<path fill="#808080" d="M981.618,156.309c-1.244-0.962-1.611-1.9-1.095-2.876c0.517-0.98,1.42-1.081,2.409-1.08
			c9.547,0.013,19.094,0.008,28.642,0.008c0.486,0,0.972,0,1.683,0c0-1.22-0.002-2.38,0.001-3.539
			c0.002-0.816-0.042-1.636,0.026-2.447c0.1-1.188,0.903-1.919,1.988-1.912c1.091,0.007,1.879,0.742,1.928,1.947
			c0.061,1.507,0.025,3.018,0.03,4.528c0.001,0.437,0,0.874,0,1.424c3.416,0,6.671,0,9.926,0c3.257,0,3.257,0,3.257-3.204
			c0-2.611,0.017-5.223-0.005-7.834c-0.038-4.327-2.305-7.315-6.467-8.565c-5.734-1.721-11.466-3.449-17.206-5.149
			c-0.654-0.193-1.355-0.313-2.035-0.316c-6.161-0.024-12.322-0.024-18.482,0c-0.681,0.003-1.384,0.114-2.038,0.306
			c-5.625,1.658-11.244,3.337-16.859,5.028c-4.662,1.404-6.799,4.306-6.804,9.195c-0.003,3.019,0.037,6.039-0.02,9.057
			c-0.021,1.091,0.28,1.525,1.446,1.504c3.548-0.064,7.099-0.022,10.648-0.026c0.318,0,0.635-0.038,1.118-0.069
			c0-1.457-0.001-2.872,0.001-4.288c0.001-0.53-0.019-1.062,0.017-1.591c0.081-1.19,0.838-1.939,1.929-1.947
			c1.037-0.008,1.937,0.691,1.966,1.787c0.072,2.731,0.114,5.47-0.037,8.195c-0.036,0.644-0.88,1.243-1.352,1.863
			c-5.386,0-10.773,0-16.159,0c-2.729-1.076-3.7-3.116-3.557-5.979c0.145-2.889,0.021-5.792,0.035-8.688
			c0.029-6.452,3.336-10.887,9.524-12.757c5.223-1.579,10.447-3.157,15.687-4.68c0.909-0.264,1.235-0.665,1.169-1.609
			c-0.088-1.259-0.067-2.53-0.006-3.792c0.04-0.832-0.231-1.285-0.988-1.716c-4.933-2.813-7.946-7.039-8.904-12.645
			c-0.776-4.539-1.421-9.1-2.178-13.642c-0.072-0.429-0.439-0.935-0.815-1.168c-3.367-2.082-4.105-6.44-1.161-9.057
			c2.935-2.609,4.738-5.699,5.624-9.44c0.187-0.79,0.491-1.552,0.757-2.322c1.645-4.762,4.947-7.63,9.868-8.689
			c0.448-0.096,0.938-0.41,1.224-0.769c1.005-1.261,2.236-1.992,3.872-1.991c3.468,0.003,6.936,0.008,10.403-0.003
			c1.683-0.006,2.963,0.709,3.967,2.038c0.237,0.313,0.636,0.622,1.008,0.696c5.145,1.023,8.525,4.013,10.158,8.992
			c0.241,0.735,0.55,1.454,0.723,2.205c0.844,3.676,2.663,6.666,5.514,9.226c2.994,2.688,2.277,7.052-1.149,9.135
			c-0.351,0.214-0.708,0.672-0.772,1.065c-0.698,4.263-1.361,8.532-1.987,12.806c-0.717,4.895-2.887,8.957-6.779,12.053
			c-1.08,0.859-2.64,1.467-3.163,2.576c-0.551,1.168-0.126,2.798-0.127,4.226c0,0.041,0.006,0.083-0.001,0.122
			c-0.195,1.043,0.289,1.465,1.284,1.752c5.283,1.522,10.545,3.116,15.81,4.699c5.768,1.735,9.183,6.26,9.277,12.343
			c0.047,3.018-0.094,6.043,0.04,9.056c0.128,2.863-0.849,4.906-3.597,5.957C1014.426,156.309,998.022,156.309,981.618,156.309z
			 M986.97,123.219c5.644,0,11.256,0,16.975,0c0-1.349,0-2.701,0-3.872c-1.863,0-3.686,0.011-5.509-0.003
			c-1.411-0.011-2.317-0.796-2.315-1.967c0.002-1.168,0.911-1.986,2.322-1.953c2.846,0.065,5.63-0.166,8.199-1.527
			c3.996-2.117,6.513-5.382,7.295-9.847c0.786-4.489,1.429-9.003,2.151-13.614c-13.75,0-27.394,0-41.216,0
			c0.253,1.702,0.494,3.374,0.751,5.044c0.435,2.819,0.837,5.644,1.329,8.454c1.139,6.512,6.473,11.162,13.082,11.462
			c0.245,0.011,0.492,0.002,0.733,0.035c1.052,0.143,1.805,0.994,1.779,1.997c-0.026,1.011-0.807,1.884-1.87,1.894
			c-1.208,0.011-2.417-0.126-3.708-0.203C986.97,120.49,986.97,121.813,986.97,123.219z M1005.324,72.076
			c-0.026,0.691-0.369,1.551-0.869,1.985c-0.401,0.348-1.425,0.435-1.872,0.156c-0.549-0.342-1.085-1.174-1.109-1.814
			c-0.114-3.055-0.053-6.116-0.055-9.175c-0.001-1.925-0.001-1.925-1.976-1.926c-2.733,0-5.465-0.001-8.198,0
			c-1.738,0.001-1.74,0.002-1.741,1.798c-0.002,2.937,0.004,5.873-0.003,8.81c-0.004,1.658-0.695,2.571-1.933,2.587
			c-1.261,0.016-2.011-0.966-2.015-2.661c-0.005-2.52-0.001-5.04-0.001-7.718c-3.109,0.735-5.196,2.479-6.279,5.272
			c-1.014,2.616-1.752,5.338-2.734,7.968c-0.356,0.954-0.971,1.856-1.634,2.64c-0.919,1.086-1.987,2.048-3.008,3.044
			c-0.66,0.644-1.081,1.347-0.67,2.282c0.39,0.887,1.161,1.027,2.033,1.026c8.606-0.01,17.212-0.006,25.818-0.006
			c6.118,0,12.236-0.005,18.354,0.005c0.933,0.002,1.844-0.022,2.272-1.036c0.443-1.051-0.09-1.837-0.868-2.445
			c-3.15-2.462-4.976-5.707-5.871-9.561c-0.303-1.303-0.772-2.578-1.269-3.823c-1.133-2.836-3.188-4.619-6.333-5.376
			C1005.363,66.876,1005.422,69.479,1005.324,72.076z"/>
		<path fill="#808080" d="M1076.615,36.828c-0.152-0.367-0.316-0.73-0.454-1.103c-1.045-2.821-3.626-4.718-6.635-4.758
			c-3.467-0.046-6.936-0.024-10.404-0.01c-1.404,0.005-2.313,0.818-2.301,1.989c0.012,1.171,0.905,1.941,2.335,1.948
			c3.264,0.015,6.528-0.007,9.792,0.01c2.389,0.013,3.718,1.328,3.719,3.724c0.009,20.89,0.005,41.78,0.004,62.671
			c0,0.24-0.022,0.48-0.043,0.9c-0.5,0-0.97,0-1.441,0c-15.178,0-30.356,0-45.534,0.001c-0.449,0-0.902-0.027-1.345,0.028
			c-1.064,0.133-1.807,0.983-1.787,1.991c0.019,1.023,0.774,1.813,1.856,1.91c0.405,0.036,0.815,0.018,1.223,0.018
			c15.137,0.001,30.274,0.001,45.412,0.001c0.486,0,0.972,0,1.601,0c0.022,0.495,0.058,0.924,0.058,1.354
			c0.004,5.671,0.005,11.343,0.001,17.014c-0.002,2.868-1.228,4.094-4.097,4.095c-10.812,0.003-21.625,0.001-32.437,0.002
			c-0.408,0-0.818-0.018-1.223,0.022c-1.071,0.104-1.834,0.915-1.844,1.928c-0.01,0.991,0.761,1.846,1.813,1.975
			c0.362,0.044,0.733,0.023,1.1,0.023c10.853,0.001,21.706,0.002,32.559,0c4.245-0.001,6.511-1.639,7.91-5.704
			c0.023-0.068,0.106-0.115,0.162-0.172C1076.615,96.732,1076.615,66.78,1076.615,36.828z"/>
		<path fill="#808080" d="M1035.723,44.881c0.065-1.959,1.353-3.349,3.311-3.362c6.16-0.041,12.321-0.042,18.481,0.003
			c1.858,0.014,3.177,1.345,3.215,3.176c0.057,2.732,0.057,5.467-0.006,8.199c-0.04,1.738-1.295,2.966-3.037,3.071
			c-1.179,0.071-2.365,0.034-3.548,0.038c-1.289,0.005-2.578,0.001-3.933,0.001c0,1.265,0.064,2.329-0.019,3.38
			c-0.077,0.98,0.241,1.525,1.166,1.953c2.402,1.111,4.73,2.385,7.123,3.517c1.588,0.751,2.295,1.902,2.308,3.663
			c0.013,1.814-0.719,2.995-2.347,3.768c-2.465,1.17-4.895,2.415-7.321,3.664c-0.354,0.182-0.845,0.548-0.865,0.856
			c-0.093,1.403-0.041,2.817-0.041,4.309c2.509,0,4.83-0.024,7.15,0.007c2.011,0.027,3.339,1.283,3.377,3.254
			c0.051,2.651,0.051,5.304-0.001,7.955c-0.037,1.919-1.356,3.241-3.259,3.25c-6.161,0.03-12.321,0.031-18.482,0
			c-1.884-0.009-3.191-1.372-3.27-3.262c-0.026-0.633-0.004-1.267-0.004-1.871c-0.315-0.055-0.435-0.094-0.555-0.094
			c-1.469-0.008-2.937-0.011-4.406-0.015c-2-0.006-2.915-0.617-2.934-1.959c-0.019-1.393,0.919-2.033,2.992-2.035
			c1.612-0.002,3.224,0,4.897,0c0-0.484-0.002-0.765,0-1.046c0.03-3.111,1.106-4.185,4.197-4.187c2.07-0.002,4.14,0,6.346,0
			c0-1.372-0.045-2.627,0.018-3.876c0.034-0.692-0.251-0.995-0.836-1.278c-2.459-1.188-4.877-2.458-7.339-3.638
			c-1.6-0.767-2.408-1.908-2.412-3.738c-0.004-1.822,0.764-2.99,2.371-3.763c2.495-1.201,4.967-2.453,7.425-3.728
			c0.327-0.17,0.718-0.59,0.738-0.915c0.083-1.334,0.035-2.676,0.035-4.11c-0.493-0.023-0.89-0.055-1.287-0.057
			c-1.917-0.007-3.836,0.025-5.752-0.014c-2.212-0.045-3.458-1.33-3.5-3.532c-0.01-0.55-0.002-1.1-0.002-1.631
			c-21.644,0-43.089,0-64.651,0c0,0.505,0,0.943,0,1.381c0,5.63,0.005,11.261-0.009,16.891c-0.001,0.52-0.031,1.079-0.217,1.553
			c-0.353,0.901-1.112,1.3-2.063,1.154c-0.889-0.136-1.474-0.685-1.614-1.598c-0.067-0.44-0.048-0.895-0.048-1.343
			c-0.003-6.365-0.003-12.729-0.001-19.094c0-2.519,0.458-2.97,3.01-2.97c21.297-0.001,42.594,0,63.892,0c0.52,0,1.041,0,1.704,0
			C1035.72,46.018,1035.704,45.449,1035.723,44.881z M1056.732,45.505c-5.682,0-11.291,0-16.987,0c0,2.135,0,4.233,0,6.433
			c5.615,0,11.253,0,16.987,0C1056.732,49.765,1056.732,47.665,1056.732,45.505z M1039.722,85.12c0,2.158,0,4.259,0,6.451
			c5.641,0,11.275,0,16.997,0c0-2.119,0-4.247,0-6.451C1050.998,85.12,1045.392,85.12,1039.722,85.12z M1047.771,72.696
			c0.25,0.123,0.663,0.129,0.912,0.008c2.695-1.317,5.373-2.67,8.313-4.142c-1.564-0.785-2.91-1.471-4.266-2.138
			c-1.491-0.733-2.992-2.011-4.489-2.011c-1.496,0-2.997,1.279-4.488,2.012c-1.346,0.661-2.683,1.34-4.264,2.132
			C1042.402,70.019,1045.077,71.375,1047.771,72.696z"/>
		<path fill="#808080" d="M955.207,106.148c2.529,0,4.925,0,7.321,0c1.183,0,2.366,0.011,3.549-0.004
			c1.458-0.018,2.306-0.738,2.317-1.941c0.012-1.199-0.854-1.989-2.278-1.997c-3.263-0.019-6.527-0.005-9.791-0.009
			c-0.321,0-0.641-0.027-1.125-0.049c0-0.467,0-0.899,0-1.331c0-20.56,0-41.121,0.001-61.681c0-3.05,1.175-4.236,4.196-4.236
			c30.066-0.001,60.131,0,90.197-0.001c0.489,0,0.983,0.023,1.467-0.028c1.075-0.114,1.834-0.939,1.785-1.965
			c-0.051-1.08-0.661-1.726-1.712-1.922c-0.356-0.067-0.732-0.03-1.099-0.03c-30.269-0.001-60.539-0.002-90.808,0
			c-5.015,0-7.968,2.964-7.968,7.996c-0.001,28.556,0.007,57.112-0.012,85.668c-0.002,2.76,0.886,5.027,3.173,6.649
			c1.179,0.836,2.322,0.728,3.036-0.227c0.721-0.964,0.494-2.043-0.69-2.93c-0.943-0.707-1.544-1.601-1.549-2.777
			C955.196,119.011,955.207,112.689,955.207,106.148z"/>
		<path fill="#808080" d="M1052.268,124.663c-2.772,0-5.544,0.029-8.315-0.015c-1.01-0.016-2.053-0.073-3.018-0.342
			c-3.454-0.961-5.64-4.355-5.171-7.867c0.484-3.622,3.462-6.276,7.263-6.308c6.113-0.052,12.228-0.039,18.341,0.012
			c0.954,0.008,1.958,0.222,2.847,0.574c3.209,1.273,4.944,4.565,4.336,8.024c-0.596,3.39-3.526,5.827-7.236,5.904
			c-3.015,0.063-6.032,0.013-9.048,0.013C1052.268,124.661,1052.268,124.662,1052.268,124.663z M1061.578,120.629
			c1.525-0.029,2.696-1.046,3.031-2.396c0.361-1.454-0.224-2.992-1.524-3.668c-0.555-0.288-1.24-0.448-1.868-0.451
			c-5.99-0.033-11.979-0.04-17.969-0.01c-2.161,0.011-3.618,1.429-3.579,3.336c0.039,1.875,1.459,3.195,3.574,3.219
			c3.015,0.035,6.03,0.009,9.046,0.009c0-0.007,0-0.014,0-0.021C1055.385,120.646,1058.483,120.687,1061.578,120.629z"/>
		<path fill="#808080" d="M966.414,110.12c3.952-0.018,7.241,3.239,7.282,7.211c0.041,3.987-3.321,7.354-7.305,7.316
			c-3.971-0.038-7.234-3.325-7.224-7.277C959.178,113.406,962.444,110.139,966.414,110.12z M966.454,120.647
			c1.865-0.011,3.297-1.503,3.242-3.379c-0.053-1.811-1.521-3.194-3.345-3.153c-1.813,0.041-3.212,1.498-3.185,3.317
			C963.193,119.25,964.633,120.658,966.454,120.647z"/>
		<path fill="#808080" d="M1024.329,110.123c3.91-0.13,7.287,3.08,7.43,7.062c0.141,3.96-3.129,7.369-7.159,7.461
			c-3.934,0.09-7.253-3.13-7.35-7.129C1017.155,113.556,1020.314,110.256,1024.329,110.123z M1021.232,117.373
			c-0.003,1.83,1.401,3.256,3.224,3.274c1.859,0.018,3.354-1.476,3.322-3.319c-0.032-1.805-1.491-3.221-3.306-3.21
			C1022.643,114.129,1021.235,115.543,1021.232,117.373z"/>
	</g>
	<g>
		<path fill="#808080" d="M175.675,90.308c-1.282,1.413-2.334,2.58-3.394,3.738c-10.311,11.256-22.086,20.655-35.595,27.799
			c-13.316,7.042-27.393,11.176-42.61,10.607c-10.248-0.383-20.043-2.834-29.408-6.93c-17.85-7.809-32.822-19.51-45.614-34.1
			c-1.779-2.029-1.786-2.903,0.011-4.939c14.258-16.155,30.962-28.896,51.368-36.319c18.586-6.761,37.128-6.257,55.482,0.979
			c16.998,6.701,31.396,17.235,44.061,30.263c1.864,1.918,3.626,3.935,5.611,6.096c0.531,0.588,1.071,1.458,1.071,1.458
			S175.937,89.96,175.675,90.308z M169.863,89.109c-0.105-0.277-0.121-0.386-0.18-0.462c-0.158-0.203-0.329-0.396-0.503-0.585
			c-11.969-13.035-25.67-23.727-41.967-30.864c-8.597-3.765-17.573-6.078-26.978-6.553c-14.437-0.73-27.795,3.137-40.454,9.73
			C46.4,67.344,34.89,76.751,24.704,87.827c-0.335,0.365-0.639,0.758-0.96,1.142c0.335,0.399,0.554,0.684,0.797,0.947
			c11.918,12.93,25.507,23.608,41.707,30.707c16.88,7.397,34.17,8.947,51.922,3.432c11.678-3.628,22.182-9.491,31.931-16.772
			C157.297,101.909,163.833,95.806,169.863,89.109z"/>
		<path fill="#808080" d="M94.367,156.309c-0.018-5.077-0.06-10.153-0.039-15.23c0.007-1.681,1.039-2.704,2.513-2.702
			c1.475,0.001,2.512,1.025,2.518,2.702c0.019,5.076-0.028,10.153-0.049,15.23C97.662,156.309,96.014,156.309,94.367,156.309z"/>
		<path fill="#808080" d="M94.308,28.806c0-2.574-0.022-5.148,0.007-7.721c0.022-1.911,0.998-2.985,2.593-2.946
			c1.53,0.037,2.444,1.075,2.452,2.931c0.023,5.199,0.025,10.398-0.002,15.597c-0.01,1.816-0.99,2.876-2.515,2.878
			c-1.524,0.002-2.51-1.062-2.535-2.863c-0.036-2.625-0.009-5.25-0.009-7.875C94.301,28.806,94.305,28.806,94.308,28.806z"/>
		<path fill="#808080" d="M75.009,40.719c-0.021,1.292-0.722,2.141-1.932,2.441c-1.231,0.305-2.29-0.167-2.805-1.346
			c-0.532-1.217-0.895-2.509-1.314-3.774c-0.968-2.922-1.947-5.841-2.88-8.774c-0.594-1.87-0.084-3.164,1.38-3.732
			c1.204-0.467,2.631-0.043,3.086,1.263c1.552,4.453,2.954,8.958,4.408,13.445C74.999,40.384,74.99,40.546,75.009,40.719z"/>
		<path fill="#808080" d="M127.888,27.972c-0.086,0.389-0.154,0.902-0.312,1.386c-1.257,3.855-2.52,7.708-3.803,11.554
			c-0.608,1.823-1.862,2.657-3.278,2.243c-1.555-0.455-2.204-1.877-1.603-3.757c1.28-4.009,2.59-8.01,3.933-11.998
			c0.5-1.485,1.65-2.249,2.896-2.002C127.039,25.659,127.758,26.504,127.888,27.972z"/>
		<path fill="#808080" d="M127.862,149.875c-0.038,1.468-0.752,2.364-2.048,2.633c-1.327,0.276-2.342-0.356-2.822-1.6
			c-0.628-1.625-1.144-3.294-1.687-4.95c-0.799-2.438-1.594-4.877-2.361-7.325c-0.613-1.955-0.079-3.317,1.447-3.829
			c1.447-0.486,2.768,0.368,3.401,2.264c1.282,3.845,2.538,7.698,3.792,11.552C127.727,149.055,127.785,149.518,127.862,149.875z"/>
		<path fill="#808080" d="M75.044,137.335c-0.09,0.379-0.174,0.887-0.332,1.372c-1.253,3.856-2.51,7.712-3.789,11.56
			c-0.602,1.811-1.895,2.647-3.296,2.199c-1.485-0.475-2.175-1.881-1.62-3.631c1.288-4.06,2.627-8.105,3.991-12.14
			c0.497-1.471,1.655-2.222,2.915-1.962C74.226,135.003,74.948,135.845,75.044,137.335z"/>
		<path fill="#808080" d="M53.841,49.372c-0.521,0.58-1.025,1.63-1.764,1.836c-0.822,0.229-2.263,0.015-2.732-0.57
			c-1.923-2.397-3.635-4.971-5.307-7.556c-0.789-1.22-0.348-2.645,0.783-3.382c1.095-0.714,2.464-0.597,3.306,0.543
			c1.8,2.434,3.487,4.952,5.183,7.46C53.553,48.061,53.592,48.559,53.841,49.372z"/>
		<path fill="#808080" d="M142.967,126.401c0.393,0.286,1.278,0.675,1.786,1.348c1.638,2.171,3.171,4.425,4.678,6.691
			c0.97,1.458,0.69,2.951-0.58,3.794c-1.187,0.788-2.634,0.46-3.609-0.902c-1.583-2.214-3.165-4.431-4.661-6.704
			C139.33,128.726,140.39,126.459,142.967,126.401z"/>
		<path fill="#808080" d="M142.809,51.5c-2.006,0.044-3.471-1.987-2.558-3.488c1.702-2.797,3.628-5.47,5.622-8.072
			c0.763-0.995,2.039-0.931,3.072-0.168c1.019,0.752,1.499,1.912,0.825,2.984c-1.718,2.734-3.582,5.38-5.485,7.99
			C143.946,51.213,143.143,51.34,142.809,51.5z"/>
		<path fill="#808080" d="M46.394,138.676c-2.062-0.066-3.376-2.068-2.441-3.596c1.657-2.706,3.514-5.3,5.421-7.839
			c0.804-1.07,2.068-1.121,3.185-0.344c1.114,0.774,1.524,2.001,0.827,3.113c-1.687,2.692-3.525,5.294-5.411,7.853
			C47.607,138.362,46.752,138.503,46.394,138.676z"/>
		<path fill="#808080" d="M34.555,62.89c-0.345,0.468-0.702,1.415-1.359,1.72c-0.715,0.332-2.011,0.43-2.52-0.001
			c-1.588-1.341-3.019-2.905-4.319-4.535c-0.73-0.915-0.479-2.075,0.373-2.937c0.853-0.863,2.089-1.161,2.931-0.415
			c1.671,1.48,3.106,3.23,4.605,4.899C34.444,61.816,34.409,62.203,34.555,62.89z"/>
		<path fill="#808080" d="M164.989,56.378c2.099,0.069,3.426,2.126,2.348,3.626c-1.239,1.725-2.792,3.261-4.384,4.683
			c-0.88,0.786-2.076,0.507-2.933-0.337c-0.896-0.882-1.213-2.058-0.404-3.059c1.281-1.585,2.741-3.033,4.192-4.47
			C164.131,56.501,164.735,56.467,164.989,56.378z"/>
		<path fill="#808080" d="M28.244,121.714c-0.578-0.446-1.557-0.845-1.869-1.542c-0.317-0.709-0.295-1.944,0.139-2.541
			c1.105-1.52,2.458-2.881,3.837-4.172c0.98-0.917,2.2-0.856,3.213,0.03c0.941,0.823,1.342,2.018,0.548,3.027
			c-1.29,1.639-2.798,3.111-4.27,4.598C29.553,121.404,29.006,121.44,28.244,121.714z"/>
		<path fill="#808080" d="M167.744,119.414c-0.337,0.446-0.726,1.432-1.419,1.746c-0.706,0.319-1.997,0.313-2.532-0.141
			c-1.547-1.314-2.92-2.862-4.207-4.443c-0.718-0.882-0.585-2.125,0.307-2.772c0.72-0.522,2.234-1.041,2.661-0.683
			c1.814,1.518,3.363,3.355,4.982,5.101C167.681,118.377,167.631,118.713,167.744,119.414z"/>
		<path fill="#808080" d="M64.22,88.739c0.291-18.618,15.329-32.536,32.841-32.376c18.533,0.17,32.556,15.281,32.375,32.818
			c-0.191,18.579-15.291,32.54-32.822,32.376C78.093,121.384,64.142,106.311,64.22,88.739z M124.324,88.999
			c0.028-15.133-12.346-27.524-27.486-27.524c-15.085,0-27.404,12.268-27.485,27.37c-0.081,15.122,12.257,27.547,27.409,27.601
			C111.893,116.5,124.296,104.15,124.324,88.999z"/>
		<path fill="#808080" d="M113.143,88.141c-0.447,7.987-3.808,13.1-10.2,15.779c-6.393,2.679-12.372,1.309-17.425-3.389
			c-7.756-7.211-5.969-20.443,3.312-25.609c4.421-2.461,8.956-2.802,13.676-1.131c1.942,0.687,2.715,1.974,2.184,3.454
			c-0.548,1.527-1.89,2.118-3.835,1.389c-5.192-1.945-10.256,0.229-12.866,3.669c-2.696,3.555-2.957,8.493-0.562,12.473
			c2.335,3.88,6.933,5.883,11.567,5.039c4.298-0.783,8.084-4.438,8.642-8.777c0.241-1.876-0.209-3.844-0.374-5.768
			c-0.069-0.802-0.375-1.615-0.286-2.39c0.133-1.161,1.031-1.772,2.137-1.901c1.21-0.14,2.21,0.446,2.562,1.567
			C112.346,84.683,112.821,86.881,113.143,88.141z"/>
	</g>
	<g>
		<path fill="#DFAD37" d="M214.527,292.349c0-28.018,0-56.037,0-84.055c1.856-4.349,3.404-5.35,8.277-5.35
			c5.499,0,10.999,0.014,16.498-0.019c0.611-0.004,1.298-0.14,1.819-0.44c5.652-3.257,11.273-6.567,16.919-9.835
			c0.6-0.348,0.78-0.642,0.666-1.395c-0.567-3.748,0.697-6.818,3.898-8.873c3.099-1.99,6.388-1.999,9.472,0.016
			c3.162,2.066,4.513,5.095,3.854,8.869c-0.15,0.861,0.271,1.129,0.85,1.465c5.602,3.258,11.191,6.539,16.808,9.771
			c0.521,0.299,1.212,0.42,1.824,0.423c5.886,0.031,11.772,0.007,17.658,0.023c3.368,0.01,5.917,1.765,6.751,4.713
			c0.253,0.893,0.317,1.864,0.319,2.799c0.021,10.655,0.028,21.31-0.01,31.964c-0.004,0.984,0.265,1.423,1.231,1.687
			c3.506,0.959,6.727,2.556,9.732,4.595c0.348,0.236,0.706,0.456,1.041,0.671c3.63-3.605,3.664-3.701,3.424-8.44
			c-0.021-0.42-0.072-0.964,0.151-1.246c0.449-0.567,1.023-1.282,1.645-1.396c0.623-0.114,1.396,0.372,2.044,0.71
			c0.273,0.142,0.392,0.579,0.621,0.947c0.761-0.927,1.465-1.791,2.177-2.648c1.275-1.535,2.487-1.817,3.603-0.849
			c1.057,0.918,0.992,2.179-0.184,3.62c-0.64,0.784-1.277,1.571-1.979,2.434c1.946,0.173,2.834,0.876,2.892,2.161
			c0.057,1.269-0.771,2.053-2.518,2.362c-1.352,0.239-2.71,0.449-4.059,0.701c-0.32,0.06-0.715,0.154-0.908,0.377
			c-1.172,1.352-2.296,2.745-3.421,4.106c0.15,0.216,0.208,0.336,0.297,0.422c11.818,11.387,14.19,30.029,4.979,44.165
			c-0.399,0.612-0.268,0.953,0.204,1.411c1.294,1.257,2.619,2.494,3.794,3.858c3.087,3.583,1.611,8.934-2.844,10.52
			c-0.314,0.112-0.618,0.252-0.926,0.379c-0.773,0-1.547,0-2.321,0c-2.013-0.556-3.542-1.821-4.92-3.324
			c-0.637-0.695-1.375-1.301-1.988-2.015c-0.561-0.654-1.007-0.639-1.72-0.173c-3.406,2.222-7.119,3.756-11.088,4.639
			c-1.579,0.351-3.185,0.586-4.778,0.873c-1.977,0-3.953,0-5.93,0c-2.3-0.474-4.685-0.704-6.879-1.478
			c-3.412-1.204-6.693-2.779-10.227-4.28c-2.189,1.765-3.907,4.703-7.13,5.758c-1.031,0-2.063,0-3.094,0
			c-0.178-0.101-0.347-0.225-0.536-0.3c-4.754-1.912-5.917-7.318-2.359-11.037c1.04-1.086,2.124-2.13,3.176-3.205
			c0.215-0.219,0.38-0.488,0.681-0.882c-0.687,0-1.154,0-1.622,0c-19.424,0-38.847,0.003-58.271-0.009
			c-0.895-0.001-1.816-0.027-2.681-0.229C216.786,296.696,215.433,294.729,214.527,292.349z M315.744,242.684
			c0-0.388,0-0.848,0-1.309c0-10.27,0.002-20.54-0.001-30.81c-0.001-2.575-0.637-3.216-3.192-3.216
			c-30.123-0.001-60.246-0.001-90.369,0c-2.647,0-3.263,0.619-3.263,3.267c0,26.427,0,52.855,0,79.282
			c0,2.665,0.588,3.256,3.242,3.256c18.65,0.001,37.299,0,55.949,0c0.462,0,0.925,0,1.586,0c-3.712-7.837-4.5-15.831-2.43-24.205
			c-1.132,0-2.072,0.011-3.011-0.002c-2.961-0.042-4.701-1.778-4.739-4.756c-0.025-1.976-0.032-3.954,0.002-5.93
			c0.049-2.891,1.798-4.631,4.695-4.667c2.492-0.03,4.986-0.051,7.476,0.014c1.01,0.026,2.011,0.312,3.023,0.429
			c0.284,0.033,0.671-0.024,0.872-0.199c2.326-2.019,4.626-4.07,7.014-6.184c-1.045-1.065-1.08-2.6-1.05-4.167
			c0.032-1.675-0.009-3.352,0.012-5.027c0.036-2.915,1.762-4.649,4.656-4.668c2.707-0.018,5.414-0.014,8.122-0.001
			c3.034,0.015,4.783,1.771,4.804,4.808c0.009,1.316,0.002,2.633,0.002,4.086C311.4,242.684,313.491,242.684,315.744,242.684z
			 M329.29,252.959c-11.214-8.716-30.113-8.553-41.653,5.108c-11.137,13.184-8.939,33.365,4.819,44.051
			c13.74,10.673,33.702,7.807,43.835-6.327c10.291-14.353,5.593-31.991-3.654-39.974c-0.883,1.09-1.764,2.177-2.634,3.251
			c10.594,10.898,9.872,27.093,0.296,36.942c-9.454,9.724-24.801,10.619-35.358,2.045c-10.49-8.519-12.733-23.674-5.234-34.935
			c7.738-11.62,24.152-15.634,36.92-6.913C327.51,255.129,328.399,254.045,329.29,252.959z M324.351,265.889
			c6.812,7.963,5.487,18.471-0.607,24.539c-6.259,6.232-16.19,6.946-23.205,1.655c-7.075-5.336-9.181-15.021-4.917-22.734
			c2.118-3.83,5.226-6.582,9.341-8.082c5.593-2.039,10.952-1.354,16.036,1.768c0.952-1.161,1.833-2.236,2.718-3.316
			c-8.424-6.223-22.121-5.42-29.815,4.605c-7.557,9.847-5.467,23.981,4.579,31.162c10.148,7.254,24.174,4.693,31.085-5.664
			c6.599-9.889,3.323-22.128-2.56-27.15C326.133,263.73,325.261,264.787,324.351,265.889z M318.058,266.615
			c-4.904-3.704-13.122-2.19-17.272,3.079c-4.463,5.665-3.583,13.868,1.982,18.497c5.576,4.637,13.929,3.931,18.628-1.59
			c5.107-6.001,3.38-13.864,0.002-17.105c-0.923,1.119-1.843,2.233-2.737,3.317c2.9,4.964,0.984,9.531-1.735,11.744
			c-3.235,2.633-7.781,2.681-11.066,0.097c-3.24-2.549-4.245-7.067-2.4-10.796c0.91-1.839,2.304-3.189,4.156-4.055
			c2.571-1.202,5.147-1.027,7.705,0.125C316.269,268.781,317.162,267.699,318.058,266.615z M284.967,202.875
			c0.025-0.079,0.049-0.157,0.074-0.236c-3.622-2.113-7.233-4.245-10.885-6.306c-0.291-0.164-0.95,0.033-1.278,0.277
			c-1.598,1.189-3.343,1.87-5.349,1.93c-2.537,0.076-4.638-0.941-6.493-2.56c-3.874,2.266-7.661,4.481-11.449,6.696
			c0.026,0.066,0.051,0.132,0.077,0.198C261.432,202.875,273.2,202.875,284.967,202.875z M267.35,194.138
			c2.44-0.008,4.42-2.005,4.389-4.427c-0.031-2.363-1.997-4.324-4.361-4.351c-2.438-0.027-4.412,1.933-4.417,4.386
			C262.957,192.225,264.877,194.146,267.35,194.138z M296.043,238.26c0,2.22,0,4.303,0,6.405c0.245,0.038,0.41,0.065,0.574,0.089
			c2.709,0.394,5.078-1.022,7.632-1.452c0.185-0.031,0.464-0.318,0.468-0.492c0.037-1.523,0.021-3.046,0.021-4.622
			c-2.845,0-5.5-0.001-8.155,0.003C296.421,238.19,296.259,238.231,296.043,238.26z M312.208,273.601
			c-2.008-0.493-3.886,0.353-4.839,2.116c-0.957,1.771-0.619,3.917,0.837,5.318c1.495,1.438,3.69,1.653,5.453,0.535
			c1.672-1.061,2.373-2.893,1.814-4.747c-1.41,1.092-2.519,1.197-3.438,0.324C311.12,276.278,311.158,275.223,312.208,273.601z
			 M273.916,264.547c1.524,0,2.847,0.025,4.167-0.02c0.285-0.01,0.701-0.193,0.821-0.421c1.049-1.983,2.045-3.995,3.079-6.043
			c-2.656,0-5.285,0-7.966,0c-0.039,0.355-0.096,0.645-0.097,0.934C273.912,260.787,273.916,262.575,273.916,264.547z
			 M287.87,304.336c-1.029-1.107-1.979-2.128-3.02-3.247c-1.193,1.223-2.401,2.426-3.567,3.668
			c-0.957,1.019-0.987,2.189-0.144,3.089c0.885,0.946,2.144,0.986,3.187,0.007C285.568,306.686,286.75,305.453,287.87,304.336z
			 M334.712,304.213c1.267,1.264,2.503,2.577,3.828,3.792c0.902,0.826,2.075,0.729,2.911-0.077c0.844-0.813,0.994-2.002,0.166-2.892
			c-1.252-1.345-2.626-2.575-3.888-3.794C336.77,302.186,335.795,303.146,334.712,304.213z"/>
		<path fill="#DFAD37" d="M234.37,233.792c1.458,0,2.917-0.027,4.375,0.006c2.477,0.055,4.311,1.828,4.375,4.3
			c0.058,2.272,0.064,4.548-0.004,6.819c-0.068,2.26-1.687,4.076-3.939,4.173c-3.21,0.138-6.434,0.141-9.644,0.007
			c-2.34-0.098-3.914-1.902-3.966-4.259c-0.049-2.272-0.056-4.548,0.005-6.819c0.066-2.426,1.859-4.16,4.293-4.22
			C231.367,233.762,232.869,233.792,234.37,233.792z M238.696,238.256c-2.938,0-5.779,0-8.652,0c0,2.185,0,4.295,0,6.394
			c2.932,0,5.769,0,8.652,0C238.696,242.495,238.696,240.451,238.696,238.256z"/>
		<path fill="#DFAD37" d="M256.414,233.79c1.415-0.001,2.831-0.022,4.246,0.003c2.584,0.046,4.385,1.792,4.436,4.349
			c0.044,2.23,0.044,4.461-0.003,6.691c-0.049,2.346-1.628,4.164-3.966,4.262c-3.21,0.135-6.434,0.135-9.644-0.006
			c-2.308-0.101-3.9-1.965-3.942-4.3c-0.041-2.23-0.047-4.462,0.002-6.691c0.054-2.462,1.886-4.247,4.367-4.302
			C253.411,233.765,254.912,233.792,256.414,233.79z M260.65,238.281c-2.973,0-5.815,0-8.655,0c0,2.18,0,4.261,0,6.394
			c2.913,0,5.753,0,8.655,0C260.65,242.51,260.65,240.43,260.65,238.281z"/>
		<path fill="#DFAD37" d="M278.313,233.789c1.458,0.001,2.917-0.022,4.375,0.006c2.422,0.046,4.238,1.587,4.386,3.99
			c0.15,2.435,0.143,4.891,0.006,7.327c-0.13,2.312-1.785,3.924-4.099,4.007c-3.084,0.11-6.177,0.114-9.261,0.003
			c-2.452-0.088-4.103-1.865-4.187-4.356c-0.074-2.185-0.072-4.376-0.003-6.562c0.084-2.649,1.897-4.372,4.538-4.413
			C275.482,233.771,276.897,233.789,278.313,233.789z M274.034,238.254c0,2.182,0,4.292,0,6.423c2.934,0,5.749,0,8.594,0
			c0-2.198,0-4.311,0-6.423C279.695,238.254,276.876,238.254,274.034,238.254z"/>
		<path fill="#DFAD37" d="M278.433,213.967c1.416,0,2.832-0.023,4.248,0.006c2.405,0.048,4.241,1.61,4.39,4.002
			c0.152,2.435,0.149,4.893,0.009,7.329c-0.138,2.394-1.914,4.003-4.346,4.063c-2.916,0.071-5.836,0.068-8.752,0.003
			c-2.577-0.057-4.359-1.82-4.448-4.395c-0.077-2.228-0.086-4.464,0.006-6.692c0.106-2.572,1.945-4.271,4.517-4.312
			C275.515,213.948,276.974,213.967,278.433,213.967z M274.004,218.422c0,2.183,0,4.302,0,6.463c2.932,0,5.773,0,8.631,0
			c0-2.222,0-4.34,0-6.463C279.709,218.422,276.89,218.422,274.004,218.422z"/>
		<path fill="#DFAD37" d="M256.353,213.967c1.459,0,2.918-0.028,4.376,0.007c2.487,0.059,4.307,1.835,4.363,4.306
			c0.05,2.23,0.045,4.462,0.004,6.692c-0.046,2.489-1.775,4.314-4.288,4.389c-2.958,0.088-5.921,0.08-8.879,0.005
			c-2.621-0.066-4.364-1.937-4.393-4.573c-0.023-2.102-0.026-4.205,0.001-6.306c0.035-2.672,1.873-4.481,4.57-4.517
			C253.522,213.951,254.938,213.967,256.353,213.967z M260.659,218.425c-2.968,0-5.786,0-8.661,0c0,2.187,0,4.307,0,6.468
			c2.926,0,5.776,0,8.661,0C260.659,222.704,260.659,220.611,260.659,218.425z"/>
		<path fill="#DFAD37" d="M256.285,288.757c-1.416,0-2.832,0.019-4.247-0.004c-2.627-0.042-4.461-1.839-4.501-4.442
			c-0.033-2.144-0.029-4.29-0.001-6.434c0.033-2.517,1.685-4.376,4.202-4.474c3.041-0.118,6.093-0.115,9.134-0.007
			c2.537,0.09,4.185,1.905,4.226,4.437c0.035,2.187,0.04,4.376-0.004,6.563c-0.051,2.554-1.861,4.313-4.435,4.357
			C259.202,288.778,257.744,288.757,256.285,288.757z M260.648,284.315c0-2.226,0-4.314,0-6.469c-2.915,0-5.766,0-8.639,0
			c0,2.2,0,4.318,0,6.469C254.913,284.315,257.729,284.315,260.648,284.315z"/>
		<path fill="#DFAD37" d="M234.415,213.968c1.459,0.001,2.918-0.032,4.376,0.009c2.397,0.068,4.246,1.844,4.323,4.237
			c0.073,2.271,0.064,4.548,0.006,6.82c-0.063,2.455-1.864,4.266-4.373,4.332c-2.915,0.076-5.835,0.068-8.751,0.006
			c-2.643-0.056-4.393-1.869-4.437-4.511c-0.036-2.144-0.038-4.29,0.003-6.435c0.05-2.642,1.845-4.411,4.478-4.455
			C231.498,213.947,232.957,213.967,234.415,213.968z M238.672,218.445c-2.929,0-5.778,0-8.618,0c0,2.206,0,4.325,0,6.469
			c2.918,0,5.732,0,8.618,0C238.672,222.751,238.672,220.663,238.672,218.445z"/>
		<path fill="#DFAD37" d="M300.346,229.387c-1.416,0-2.832,0.031-4.247-0.006c-2.72-0.073-4.493-1.847-4.535-4.552
			c-0.033-2.144-0.039-4.291,0.005-6.435c0.054-2.629,1.862-4.396,4.509-4.421c2.831-0.027,5.663-0.026,8.494,0
			c2.685,0.024,4.522,1.849,4.563,4.53c0.033,2.102,0.032,4.204,0.001,6.306c-0.039,2.68-1.841,4.493-4.543,4.571
			C303.179,229.421,301.762,229.387,300.346,229.387z M296.069,218.412c0,2.254,0,4.373,0,6.494c2.928,0,5.742,0,8.597,0
			c0-2.203,0-4.323,0-6.494C301.766,218.412,298.949,218.412,296.069,218.412z"/>
		<path fill="#DFAD37" d="M234.249,268.943c-1.458,0-2.917,0.037-4.374-0.008c-2.511-0.077-4.258-1.821-4.31-4.338
			c-0.047-2.229-0.048-4.461,0.002-6.69c0.056-2.463,1.76-4.233,4.214-4.29c3.043-0.071,6.091-0.072,9.134,0.004
			c2.416,0.06,4.152,1.881,4.209,4.321c0.051,2.186,0.043,4.375,0.004,6.561c-0.046,2.563-1.825,4.359-4.375,4.432
			C237.252,268.978,235.75,268.943,234.249,268.943z M229.996,264.452c2.963,0,5.808,0,8.667,0c0-2.179,0-4.261,0-6.362
			c-2.929,0-5.776,0-8.667,0C229.996,260.239,229.996,262.289,229.996,264.452z"/>
		<path fill="#DFAD37" d="M234.374,288.755c-1.501,0-3.003,0.03-4.504-0.007c-2.428-0.06-4.232-1.803-4.296-4.223
			c-0.062-2.315-0.059-4.633,0.002-6.948c0.057-2.169,1.545-3.976,3.7-4.089c3.334-0.175,6.689-0.181,10.023-0.015
			c2.251,0.112,3.775,1.983,3.824,4.273c0.048,2.23,0.056,4.462-0.002,6.691c-0.064,2.467-1.906,4.256-4.371,4.312
			C237.292,288.782,235.833,288.755,234.374,288.755z M230.059,277.83c0,2.252,0,4.366,0,6.467c2.923,0,5.737,0,8.6,0
			c0-2.179,0-4.291,0-6.467C235.762,277.83,232.949,277.83,230.059,277.83z"/>
		<path fill="#DFAD37" d="M256.267,268.937c-1.501,0-3.004,0.045-4.503-0.01c-2.408-0.09-4.173-1.886-4.222-4.308
			c-0.045-2.229-0.045-4.461,0-6.69c0.049-2.429,1.79-4.251,4.214-4.309c3.043-0.073,6.091-0.074,9.134-0.002
			c2.445,0.058,4.154,1.847,4.204,4.303c0.046,2.229,0.046,4.461,0,6.69c-0.051,2.502-1.811,4.251-4.325,4.325
			c-1.5,0.044-3.002,0.008-4.503,0.008C256.267,268.942,256.267,268.94,256.267,268.937z M251.995,258.058c0,2.2,0,4.283,0,6.403
			c2.921,0,5.769,0,8.643,0c0-2.172,0-4.255,0-6.403C257.746,258.058,254.926,258.058,251.995,258.058z"/>
	</g>
	<g>
		<path fill="#DFAD37" d="M402.799,251.039c0.588-1.334,1.617-1.777,3.054-1.769c8.031,0.041,16.062,0.004,24.093,0.041
			c0.897,0.004,1.283-0.267,1.631-1.105c0.988-2.378,2.123-4.695,3.202-7.036c0.144-0.311,0.302-0.616,0.534-1.087
			c-1.809,0-3.461,0-5.113,0c-2.743,0-5.487,0.005-8.23-0.002c-1.813-0.004-2.94-0.946-2.91-2.413
			c0.029-1.415,1.149-2.351,2.873-2.354c5.248-0.009,10.496,0.015,15.744-0.033c0.503-0.005,1.165-0.284,1.479-0.663
			c6.902-8.359,15.54-13.964,26.093-16.554c0.671-0.165,0.999-0.423,0.964-1.187c-0.065-1.428-0.051-2.863-0.004-4.293
			c0.02-0.627-0.228-0.887-0.784-1.11c-3.862-1.546-5.987-5.18-5.29-8.973c0.74-4.029,4.047-6.745,8.315-6.764
			c5.447-0.024,10.894-0.014,16.341-0.004c4.429,0.009,7.728,2.621,8.479,6.686c0.749,4.052-1.407,7.596-5.6,9.211
			c-0.11,0.042-0.217,0.091-0.359,0.151c0,1.972,0,3.951,0,5.685c3.523,1.337,7.063,2.346,10.298,3.966
			c15.391,7.708,24.444,20.165,26.881,37.206c1.643,11.487-0.95,22.174-7.047,32.028c-0.625,1.01-1.45,1.594-2.66,1.385
			c-1.047-0.181-1.816-0.871-1.86-1.895c-0.033-0.763,0.27-1.639,0.681-2.307c2.839-4.621,4.771-9.585,5.797-14.902
			c3.991-20.675-7.63-41.363-27.394-48.781c-21.185-7.951-45.057,1.795-54.603,22.292c-11.485,24.662,2.21,53.661,28.612,60.347
			c11.888,3.011,23.169,1.261,33.685-5.128c0.238-0.144,0.468-0.302,0.712-0.434c1.283-0.695,2.639-0.38,3.335,0.767
			c0.691,1.14,0.366,2.503-0.872,3.306c-4.503,2.924-9.369,5.04-14.589,6.284c-23.536,5.609-46.924-6.341-56.144-28.686
			c-0.338-0.82-0.781-1.018-1.596-1.012c-4.93,0.032-9.86,0.018-14.79,0.012c-0.515-0.001-1.04,0.001-1.544-0.091
			c-1.101-0.202-1.871-1.189-1.865-2.302c0.006-1.066,0.728-2.024,1.777-2.254c0.498-0.109,1.025-0.115,1.539-0.116
			c4.532-0.008,9.065-0.005,13.597-0.008c0.232,0,0.464-0.032,0.754-0.053c-0.484-3.012-0.959-5.967-1.465-9.114
			c-0.317,0-0.735,0-1.154,0c-2.982,0-5.964,0.008-8.946-0.003c-1.702-0.007-2.798-0.991-2.761-2.44
			c0.035-1.403,1.1-2.318,2.761-2.324c3.335-0.012,6.67-0.004,10.022-0.004c0.392-3.048,0.774-6.022,1.175-9.146
			c-0.424,0-0.889,0-1.354,0c-7.355,0-14.711-0.024-22.066,0.02c-1.46,0.009-2.634-0.332-3.431-1.611
			C402.799,251.993,402.799,251.516,402.799,251.039z M476.765,207.184c2.66,0,5.32,0.01,7.98-0.008
			c0.549-0.004,1.123-0.029,1.64-0.191c1.499-0.47,2.452-2.022,2.24-3.521c-0.253-1.784-1.607-2.941-3.605-2.95
			c-5.518-0.025-11.037-0.026-16.556-0.001c-2.196,0.01-3.666,1.422-3.647,3.388c0.019,1.974,1.47,3.266,3.73,3.278
			C471.286,207.196,474.026,207.184,476.765,207.184z M471.032,216.796c3.881,0,7.628,0,11.39,0c0-1.579,0-3.149,0-4.768
			c-3.82,0-7.572,0-11.39,0C471.032,213.669,471.032,215.238,471.032,216.796z"/>
		<path fill="#DFAD37" d="M402.799,278.714c0.166-0.206,0.33-0.414,0.499-0.617c0.934-1.129,2.543-1.24,3.549-0.246
			c0.992,0.981,0.945,2.551-0.104,3.467c-1.057,0.923-2.679,0.711-3.52-0.467c-0.159-0.223-0.284-0.47-0.424-0.706
			C402.799,279.668,402.799,279.191,402.799,278.714z"/>
		<path fill="#DFAD37" d="M513.753,264.836c-0.009,20.409-16.661,37.041-37.044,37c-20.409-0.041-36.995-16.698-36.944-37.103
			c0.051-20.397,16.588-36.9,36.985-36.91C497.183,227.813,513.761,244.396,513.753,264.836z M508.981,264.85
			c0.01-17.81-14.363-32.213-32.185-32.253c-17.774-0.04-32.236,14.386-32.26,32.181c-0.024,17.764,14.429,32.262,32.187,32.287
			C494.474,297.09,508.971,282.613,508.981,264.85z"/>
		<path fill="#DFAD37" d="M506.797,297.113c0.043-1.308,1.096-2.293,2.419-2.26c1.297,0.032,2.348,1.11,2.325,2.384
			c-0.023,1.331-1.162,2.384-2.509,2.32C507.725,299.496,506.754,298.434,506.797,297.113z"/>
		<path fill="#DFAD37" d="M469.289,264.777c0.114-0.663,0.076-1.407,0.375-1.972c0.582-1.099,0.095-1.706-0.665-2.411
			c-1.368-1.271-2.669-2.615-3.972-3.954c-1.15-1.182-1.197-2.59-0.165-3.585c0.973-0.939,2.4-0.881,3.512,0.202
			c1.509,1.47,3.001,2.959,4.462,4.477c0.445,0.462,0.801,0.578,1.436,0.331c1.609-0.626,3.289-0.64,4.896-0.025
			c0.742,0.284,1.128,0.087,1.626-0.416c3.523-3.56,7.066-7.102,10.628-10.623c0.436-0.431,0.984-0.834,1.556-1.023
			c1.008-0.334,1.899,0.043,2.496,0.916c0.624,0.914,0.621,1.9-0.071,2.767c-0.568,0.711-1.249,1.332-1.895,1.978
			c-3.089,3.095-6.171,6.198-9.286,9.267c-0.569,0.561-0.729,0.992-0.459,1.828c0.971,3.007,0.254,5.695-2.102,7.791
			c-2.314,2.058-5.014,2.477-7.882,1.249C471.046,270.404,469.343,267.732,469.289,264.777z M476.747,262.208
			c-1.477,0.005-2.637,1.181-2.613,2.65c0.022,1.403,1.178,2.569,2.576,2.6c1.433,0.031,2.661-1.173,2.674-2.622
			C479.396,263.37,478.225,262.203,476.747,262.208z"/>
		<path fill="#DFAD37" d="M479.152,240.407c0,0.395,0.022,0.792-0.004,1.186c-0.088,1.312-1.02,2.243-2.269,2.289
			c-1.237,0.046-2.309-0.826-2.445-2.107c-0.091-0.86-0.084-1.742-0.017-2.606c0.106-1.354,1.157-2.263,2.456-2.222
			c1.305,0.04,2.213,0.988,2.281,2.393c0.017,0.355,0.003,0.712,0.003,1.067C479.155,240.407,479.154,240.407,479.152,240.407z"/>
		<path fill="#DFAD37" d="M501.136,262.478c0.395,0.001,0.792-0.019,1.186,0.005c1.297,0.078,2.26,1.015,2.326,2.245
			c0.065,1.206-0.826,2.325-2.096,2.465c-0.898,0.099-1.822,0.098-2.722,0.009c-1.352-0.133-2.198-1.21-2.116-2.536
			c0.076-1.248,1.008-2.118,2.355-2.185C500.424,262.462,500.78,262.477,501.136,262.478z"/>
		<path fill="#DFAD37" d="M474.364,289.212c0-0.395-0.023-0.792,0.004-1.185c0.088-1.294,1.043-2.242,2.28-2.288
			c1.227-0.045,2.301,0.843,2.438,2.125c0.088,0.821,0.073,1.661,0.023,2.487c-0.086,1.411-1.175,2.414-2.474,2.354
			c-1.27-0.059-2.209-1.057-2.272-2.426c-0.016-0.355-0.002-0.711-0.002-1.067C474.362,289.212,474.363,289.212,474.364,289.212z"/>
		<path fill="#DFAD37" d="M452.43,262.452c0.437,0,0.878-0.042,1.309,0.008c1.207,0.139,2.026,1.042,2.067,2.227
			c0.041,1.204-0.675,2.218-1.876,2.384c-0.974,0.134-1.986,0.138-2.966,0.042c-1.258-0.123-2.111-1.161-2.101-2.347
			c0.01-1.238,0.941-2.21,2.256-2.323c0.434-0.037,0.873-0.006,1.31-0.006C452.43,262.442,452.43,262.447,452.43,262.452z"/>
	</g>
	<g>
		<path fill="#DFAD37" d="M591.983,312.976c-1.344-0.729-1.79-1.838-1.748-3.369c0.408-14.713,10.057-29.218,24.574-33.705
			c3.307-1.022,6.582-2.151,9.845-3.305c0.548-0.194,1.136-0.672,1.408-1.178c1.191-2.214,2.251-4.497,3.406-6.73
			c0.308-0.595,0.254-0.941-0.164-1.503c-1.473-1.977-2.881-4.008-4.202-6.088c-0.415-0.653-0.82-0.797-1.536-0.89
			c-1.608-0.209-3.331-0.327-4.751-1.012c-2.485-1.2-3.654-3.469-3.788-6.235c-0.012-0.247-0.028-0.498-0.002-0.743
			c0.152-1.421-0.083-2.427-1.617-3.213c-2.094-1.074-3.267-3.145-3.284-5.495c-0.048-6.643-0.451-13.345,0.256-19.919
			c1.634-15.19,9.876-25.894,24.182-31.137c21.371-7.831,43.886,4.76,48.932,26.949c0.589,2.592,0.785,5.31,0.854,7.977
			c0.131,5.033,0.047,10.072,0.035,15.109c-0.011,4.689-3.162,7.827-7.854,7.846c-1.318,0.005-2.636,0.001-4.047,0.001
			c-0.284,1.544-0.506,3.046-0.84,4.523c-1.051,4.642-3.181,8.743-6.404,12.245c-0.556,0.604-0.562,1.024-0.205,1.702
			c1.13,2.153,2.146,4.367,3.306,6.502c0.293,0.54,0.891,1.071,1.467,1.277c4.382,1.569,8.939,2.731,13.166,4.632
			c11.276,5.071,17.743,14.134,20.45,26.012c0.473,2.077,0.511,4.251,0.776,6.377c0.19,1.529-0.389,2.638-1.728,3.369
			C665.642,312.976,628.812,312.976,591.983,312.976z M669.472,228.318c-0.695-0.133-1.096-0.238-1.503-0.283
			c-9.941-1.09-18.676-4.876-26.119-11.601c-0.34-0.307-0.963-0.504-1.418-0.449c-5,0.601-9.05,2.903-12.105,6.924
			c-0.899,1.183-1.832,2.343-2.656,3.577c-0.315,0.471-0.542,1.129-0.508,1.684c0.211,3.417,0.404,6.842,0.806,10.24
			c0.45,3.806,1.144,7.582,1.671,11.38c0.168,1.212,0.696,1.625,1.925,1.531c1.56-0.119,3.137-0.066,4.704-0.012
			c0.717,0.025,1.053-0.226,1.387-0.867c1.373-2.638,3.597-4.016,6.576-4.095c1.692-0.044,3.386-0.034,5.078-0.001
			c4.08,0.079,7.313,3.328,7.346,7.351c0.033,4.089-3.197,7.407-7.323,7.496c-1.527,0.033-3.055-0.003-4.583,0.01
			c-3.281,0.028-5.703-1.36-7.214-4.304c-0.131-0.255-0.409-0.609-0.629-0.617c-1.492-0.055-2.987-0.029-4.577-0.029
			c3.515,6.75,11.968,10.944,19.419,9.786c8.134-1.264,13.475-6.055,16.175-13.585c1.263-3.523,1.689-7.38,2.216-11.125
			C668.741,237.051,669.034,232.728,669.472,228.318z M625.941,277.434c-3.109,1.043-6.012,2.084-8.955,2.992
			c-10.334,3.187-16.749,10.287-20.19,20.282c-0.792,2.3-1.122,4.759-1.684,7.233c16.04,0,31.731,0,47.753,0
			C636.16,298.205,629.605,288.65,625.941,277.434z M651.585,307.941c16.069,0,31.772,0,47.656,0
			c-0.345-1.845-0.536-3.62-1.016-5.312c-2.95-10.391-9.047-18.023-19.439-21.77c-3.022-1.09-6.094-2.043-9.145-3.052
			c-0.336-0.111-0.686-0.179-1.155-0.3C664.818,288.691,658.288,298.22,651.585,307.941z M669.388,223.207
			c0.041-0.128,0.101-0.241,0.11-0.359c0.766-9.825-5.603-18.925-15.172-21.161c-3.003-0.702-6.219-0.646-9.339-0.655
			c-8.875-0.028-16.582,5.758-19.171,14.252c-0.325,1.066-0.505,2.177-0.765,3.327c0.275-0.017,0.331-0.004,0.352-0.025
			c0.261-0.264,0.514-0.535,0.774-0.799c4.179-4.242,9.245-6.507,15.186-6.875c1.294-0.08,2.28,0.329,3.213,1.225
			C651.511,218.795,659.858,222.314,669.388,223.207z M679.253,220.771c-0.909-15.645-14.809-30.772-33.953-29.598
			c-19.639,1.204-29.879,17.898-30.001,29.647c0.779,0,1.558,0,2.337,0c0.768,0,1.535,0,2.302,0
			c0.028-0.381,0.047-0.586,0.057-0.791c0.51-10.41,7.256-19.337,17.095-22.706c4.076-1.396,8.28-1.312,12.49-1.276
			c10.636,0.092,20.027,6.766,23.445,16.857c0.848,2.504,1.189,5.18,1.783,7.866C676.126,220.771,677.639,220.771,679.253,220.771z
			 M647.098,282.658c-0.2,0.121-0.323,0.163-0.402,0.246c-2.668,2.812-5.316,5.643-8.009,8.431
			c-0.513,0.531-0.347,0.902-0.029,1.385c2.785,4.233,5.561,8.471,8.348,12.703c0.054,0.081,0.202,0.101,0.258,0.127
			c2.545-3.794,5.086-7.543,7.584-11.321c1.522-2.302,1.492-2.322-0.43-4.245C651.977,287.541,649.536,285.097,647.098,282.658z
			 M659.071,287.355c1.727-4.177,3.441-8.307,5.13-12.448c0.092-0.227,0.05-0.578-0.062-0.808c-1.008-2.07-2.046-4.125-3.146-6.328
			c-3.571,3.776-7.058,7.463-10.446,11.046C653.38,281.654,656.109,284.389,659.071,287.355z M635.456,287.559
			c2.874-3.042,5.433-5.752,7.745-8.198c-3.539-3.547-6.952-6.967-10.347-10.37c-0.763,1.523-1.625,3.207-2.444,4.913
			c-0.145,0.301-0.25,0.746-0.136,1.029C631.934,279.046,633.634,283.143,635.456,287.559z M621.158,241.376
			c-0.415-5.255-0.818-10.373-1.223-15.507c-1.624,0-3.244,0-4.906,0c0,4.419-0.025,8.743,0.014,13.067
			c0.013,1.416,1.023,2.372,2.449,2.43C618.68,241.414,619.872,241.376,621.158,241.376z M673.299,241.381
			c1.074,0,2.135,0.008,3.196-0.002c2.018-0.018,2.928-0.929,2.934-2.966c0.01-3.667,0.003-7.334,0.003-11.001
			c0-0.519,0-1.039,0-1.576c-1.751,0-3.342,0-4.911,0C674.114,231.017,673.711,236.135,673.299,241.381z M644.694,256.237
			c0.863,0,1.729,0.04,2.589-0.009c1.404-0.08,2.416-1.146,2.411-2.468c-0.004-1.324-1.02-2.406-2.425-2.45
			c-1.683-0.053-3.371-0.055-5.055,0.001c-1.405,0.047-2.414,1.136-2.41,2.462c0.004,1.324,1.017,2.377,2.424,2.456
			C643.048,256.276,643.872,256.238,644.694,256.237z M642.706,270.82c1.375,1.383,2.864,2.88,4.398,4.423
			c1.259-1.337,2.601-2.761,3.873-4.112c-1.414,0-2.8,0.042-4.183-0.012C645.36,271.062,643.929,270.913,642.706,270.82z
			 M622.846,251.176c-0.149-0.853-0.279-1.624-0.419-2.394c-0.145-0.799-0.3-1.596-0.447-2.375c-0.712,0-1.312,0-1.898,0
			C619.594,249.665,620.444,251.421,622.846,251.176z"/>
		<path fill="#DFAD37" d="M691.96,299.044c-0.094,1.238-0.643,2.052-1.749,2.402c-1.113,0.352-2.161,0.053-2.703-0.936
			c-1.568-2.862-3.589-5.303-6.091-7.395c-0.968-0.81-0.944-2.154-0.195-3.145c0.744-0.985,2.073-1.393,3.079-0.691
			c3.346,2.336,5.85,5.407,7.532,9.133C691.932,298.629,691.931,298.893,691.96,299.044z"/>
		<path fill="#DFAD37" d="M674.448,289.184c-1.366-0.016-2.489-1.195-2.438-2.559c0.049-1.318,1.177-2.393,2.496-2.377
			c1.318,0.016,2.422,1.117,2.44,2.434C676.963,288.049,675.814,289.2,674.448,289.184z"/>
	</g>
	<g>
		<path fill="#DFAD37" d="M901.543,311.569c-0.672,1.097-1.648,1.408-2.92,1.407c-45.367-0.025-90.735-0.021-136.102-0.021
			c-0.277,0-0.556,0.014-0.831-0.009c-1.206-0.102-2.035-0.915-2.067-2.014c-0.034-1.149,0.824-2.071,2.093-2.117
			c1.466-0.053,2.936-0.012,4.491-0.012c0.026-0.518,0.064-0.92,0.064-1.321c0.004-5.729,0.022-11.457-0.025-17.186
			c-0.005-0.623-0.254-1.352-0.632-1.846c-1.674-2.185-2.091-4.533-0.91-7.011c1.175-2.467,3.225-3.722,5.992-3.723
			c4.897-0.002,9.794-0.001,14.691-0.001c0.496,0,0.992,0,1.67,0c0-0.681-0.01-1.22,0.001-1.759
			c0.47-21.523,0.94-43.045,1.417-64.568c0.041-1.86,0.782-2.597,2.647-2.606c4.019-0.019,8.039-0.014,12.058-0.003
			c2.087,0.005,2.752,0.638,2.8,2.703c0.352,15.195,0.71,30.389,1.025,45.585c0.08,3.867,0.012,7.736,0.012,11.682
			c2.228,0,4.053,0,6.029,0c0.199-2.952,0.411-5.882,0.592-8.814c0.496-8.021,0.973-16.043,1.471-24.064
			c0.125-2.007,0.772-2.61,2.784-2.624c2.495-0.017,4.99-0.014,7.484-0.002c2.125,0.01,2.745,0.543,2.883,2.66
			c0.425,6.498,0.805,13,1.209,19.5c0.275,4.419,0.561,8.838,0.847,13.338c1.674,0,3.263,0,4.958,0
			c0.279-4.292,0.563-8.523,0.826-12.756c0.409-6.592,0.792-13.186,1.211-19.777c0.159-2.505,0.676-2.962,3.156-2.967
			c2.356-0.005,4.712-0.008,7.068,0.001c2.245,0.009,2.831,0.599,2.971,2.874c0.657,10.695,1.322,21.39,1.987,32.084
			c0.008,0.136,0.048,0.271,0.094,0.516c1.573,0,3.16,0,4.907,0c0.175-2.664,0.355-5.323,0.523-7.983
			c0.525-8.297,1.034-16.595,1.578-24.89c0.136-2.071,0.725-2.586,2.768-2.599c2.495-0.016,4.99-0.014,7.484,0
			c2.138,0.011,2.734,0.646,2.866,2.824c0.647,10.649,1.312,21.298,1.974,31.946c0.014,0.221,0.072,0.439,0.136,0.815
			c1.694,0,3.343,0,4.992,0c2.818,0,5.636-0.006,8.454,0.003c2.766,0.009,4.809,1.275,5.973,3.75
			c1.169,2.486,0.748,4.841-0.953,7.001c-0.314,0.398-0.599,0.957-0.601,1.442c-0.034,9.055-0.023,18.11-0.019,27.165
			c0,0.135,0.033,0.27,0.077,0.607c1.944,0,3.913,0.06,5.876-0.021c1.276-0.053,2.25,0.307,2.92,1.407
			C901.543,310.645,901.543,311.107,901.543,311.569z M888.454,281.865c-1.568,0-2.997,0.047-4.421-0.014
			c-1.386-0.059-2.231-0.961-2.177-2.181c0.051-1.159,0.896-1.915,2.235-1.949c1.062-0.027,2.124-0.005,3.187-0.007
			c2.233-0.004,3.394-0.794,3.436-2.336c0.043-1.603-1.097-2.391-3.465-2.391c-28.866,0-57.733,0-86.599,0
			c-0.462,0-0.926-0.021-1.385,0.022c-1.185,0.111-2.117,1.008-2.147,2.153c-0.031,1.186,0.523,2.071,1.703,2.382
			c0.612,0.161,1.277,0.164,1.918,0.164c24.34,0.007,48.68,0.006,73.02,0.007c0.462,0,0.925-0.017,1.385,0.015
			c1.139,0.078,1.802,0.762,1.922,1.832c0.122,1.091-0.447,1.887-1.523,2.168c-0.568,0.148-1.187,0.137-1.783,0.137
			c-24.202,0.006-48.403,0.005-72.605,0.005c-0.58,0-1.161,0-1.748,0c0,9.084,0,17.968,0,26.835c29.737,0,59.366,0,89.046,0
			C888.454,299.767,888.454,290.916,888.454,281.865z M803.121,268.831c-0.416-18.695-0.828-37.225-1.24-55.788
			c-3.183,0-6.196,0-9.269,0c-0.709,31.943-1.416,63.777-2.124,95.643c1.627,0,3.114,0,4.655,0c0-9.344,0.008-18.577-0.026-27.811
			c-0.002-0.439-0.309-0.934-0.599-1.305c-1.689-2.16-2.11-4.512-0.935-6.998c1.142-2.415,3.128-3.692,5.836-3.738
			C800.606,268.814,801.794,268.831,803.121,268.831z M786.788,281.891c-5.559,0-11.002-0.046-16.442,0.061
			c-0.646,0.013-1.56,0.741-1.831,1.364c-0.271,0.622-0.139,1.713,0.271,2.258c0.423,0.563,1.459,0.62,2.103,1.074
			c0.658,0.464,1.542,1.09,1.631,1.741c0.089,0.647-0.639,1.448-1.109,2.11c-0.172,0.243-0.632,0.281-0.91,0.392
			c0,5.982,0,11.877,0,17.795c5.295,0,10.518,0,15.983,0c0-5.999,0-11.89,0-17.93c-2.055,0-4.213,0.009-6.37-0.003
			c-1.722-0.01-2.714-0.781-2.725-2.085c-0.012-1.305,0.97-2.063,2.701-2.068c2.201-0.006,4.401-0.001,6.698-0.001
			C786.788,284.969,786.788,283.51,786.788,281.891z M848.36,268.753c-0.655-10.466-1.305-20.846-1.958-31.26
			c-1.734,0-3.326,0-4.988,0c-0.654,10.466-1.303,20.842-1.954,31.26C842.506,268.753,845.346,268.753,848.36,268.753z
			 M826.143,268.766c-0.66-10.511-1.309-20.861-1.964-31.287c-1.688,0-3.282,0-4.985,0c-0.654,10.452-1.303,20.833-1.956,31.287
			C820.281,268.766,823.122,268.766,826.143,268.766z M861.68,268.754c3.024,0,5.862,0,8.898,0
			c-0.653-10.46-1.3-20.834-1.951-31.259c-1.737,0-3.325,0-4.992,0C862.982,247.928,862.335,258.271,861.68,268.754z"/>
		<path fill="#DFAD37" d="M901.543,200.131c-0.315,1.479-0.519,2.993-0.964,4.432c-3.219,10.395-10.121,17.063-20.819,18.996
			c-10.808,1.953-19.688-1.878-26.334-10.671c-0.54-0.714-0.921-1.002-1.888-0.742c-6.873,1.853-13.044,0.424-18.519-4.127
			c-0.38-0.316-1.09-0.587-1.508-0.452c-5.791,1.873-11.011,0.947-15.665-3.012c-0.104-0.088-0.228-0.152-0.261,0.131
			c-1.922,0.523-3.82,1.18-5.773,1.523c-1.385,0.243-2.329-0.67-2.41-1.872c-0.079-1.17,0.781-2.129,2.162-2.21
			c1.717-0.101,3.082-0.796,4.244-2.037c1.205-1.287,2.449-1.332,3.523,0.016c3.373,4.239,9.514,5.497,14.254,2.836
			c1.029-0.577,1.94-0.345,2.748,0.492c5.175,5.364,11.227,6.725,18.186,3.989c1.464-0.576,2.225-0.235,3.163,1.334
			c3.378,5.65,8.283,9.21,14.693,10.654c11.741,2.646,23.825-5.076,26.443-16.861c2.696-12.137-4.874-24.236-16.836-26.8
			c-7.507-1.609-14.172,0.183-19.953,5.238c-1.563,1.367-2.233,1.394-3.839,0.101c-6.682-5.382-15.617-4.834-21.532,1.322
			c-1.301,1.354-1.798,1.441-3.52,0.617c-6.262-2.994-13.372-0.029-15.665,6.534c-0.787,2.253-1.557,2.605-3.713,1.699
			c-3.538-1.487-7.137,0.473-7.859,4.28c-0.45,2.371-1.289,2.857-3.56,2.063c-1.586-0.554-2.826,0.266-3.267,1.991
			c-0.178,0.699-0.544,1.546-1.096,1.896c-0.492,0.312-1.609,0.303-2.001-0.055c-0.555-0.507-1.006-1.484-0.963-2.229
			c0.187-3.174,2.706-5.663,5.921-5.921c0.897-0.072,1.34-0.309,1.738-1.148c1.888-3.983,5.978-6.078,10.396-5.386
			c0.707,0.111,1.048-0.052,1.404-0.692c3.937-7.087,11.233-9.947,18.854-7.479c0.428,0.139,1.146,0.076,1.45-0.2
			c6.853-6.206,17.242-6.922,24.933-1.388c0.071,0.051,0.167,0.067,0.362,0.141c2.889-2.322,6.128-4.141,9.789-5.108
			c1.509-0.399,3.051-0.672,4.577-1.002c1.756,0,3.511,0,5.267,0c0.259,0.082,0.512,0.205,0.777,0.241
			c10.967,1.499,19.685,9.345,22.311,20.105c0.282,1.157,0.503,2.329,0.753,3.494C901.543,196.62,901.543,198.376,901.543,200.131z"
			/>
		<path fill="#DFAD37" d="M832.62,291.043c0,0.736,0.055,1.478-0.012,2.208c-0.108,1.179-0.84,1.876-1.99,1.899
			c-1.151,0.023-1.98-0.64-2.048-1.818c-0.095-1.651-0.095-3.316,0.011-4.966c0.07-1.103,0.836-1.732,1.956-1.747
			c1.187-0.016,1.926,0.633,2.055,1.803c0.095,0.864,0.019,1.747,0.019,2.621C832.613,291.043,832.617,291.043,832.62,291.043z"/>
		<path fill="#DFAD37" d="M877.103,290.85c0,0.784,0.06,1.573-0.014,2.35c-0.112,1.177-1.039,2-2.107,1.977
			c-1.09-0.024-1.961-0.863-2-2.058c-0.049-1.52-0.059-3.045,0.007-4.563c0.051-1.176,0.758-1.871,1.939-1.935
			c1.2-0.066,1.94,0.617,2.125,1.746c0.132,0.808,0.026,1.654,0.026,2.484C877.086,290.85,877.094,290.85,877.103,290.85z"/>
		<path fill="#DFAD37" d="M814.837,290.988c0,0.737,0.036,1.476-0.008,2.211c-0.072,1.197-0.795,1.889-1.936,1.951
			c-1.159,0.063-2.018-0.607-2.1-1.762c-0.12-1.692-0.123-3.409,0.023-5.099c0.1-1.159,0.978-1.76,2.159-1.664
			c1.11,0.09,1.765,0.762,1.846,1.877c0.06,0.825,0.012,1.657,0.012,2.486C814.834,290.988,814.836,290.988,814.837,290.988z"/>
		<path fill="#DFAD37" d="M846.322,290.844c0-0.783-0.047-1.57,0.011-2.348c0.084-1.118,0.742-1.784,1.851-1.871
			c1.179-0.093,2.057,0.505,2.154,1.668c0.142,1.69,0.142,3.407,0.021,5.099c-0.083,1.155-0.944,1.824-2.103,1.758
			c-1.142-0.065-1.864-0.759-1.931-1.956c-0.044-0.781-0.008-1.566-0.008-2.349C846.318,290.844,846.32,290.844,846.322,290.844z"/>
		<path fill="#DFAD37" d="M864.085,290.852c0-0.738-0.026-1.476,0.006-2.212c0.052-1.181,0.688-1.907,1.863-2.015
			c1.184-0.109,2.072,0.517,2.169,1.659c0.148,1.734,0.136,3.5-0.013,5.235c-0.093,1.08-0.973,1.7-2.069,1.632
			c-1.143-0.071-1.871-0.75-1.942-1.948c-0.047-0.781-0.009-1.567-0.009-2.35C864.088,290.852,864.087,290.852,864.085,290.852z"/>
		<path fill="#DFAD37" d="M855.202,290.785c0-0.737-0.039-1.477,0.009-2.211c0.077-1.181,0.741-1.877,1.921-1.952
			c1.118-0.072,1.991,0.507,2.078,1.595c0.141,1.779,0.139,3.588-0.017,5.365c-0.096,1.091-1.02,1.66-2.106,1.568
			c-1.072-0.091-1.788-0.743-1.866-1.876c-0.057-0.826-0.011-1.658-0.011-2.487C855.206,290.785,855.204,290.785,855.202,290.785z"
			/>
		<path fill="#DFAD37" d="M823.701,290.934c0,0.828,0.076,1.665-0.019,2.483c-0.13,1.122-0.902,1.721-1.983,1.737
			c-1.02,0.015-1.884-0.542-1.961-1.582c-0.131-1.781-0.144-3.587-0.005-5.367c0.086-1.099,0.969-1.651,2.079-1.585
			c1.112,0.067,1.792,0.715,1.89,1.829c0.073,0.822,0.014,1.656,0.014,2.485C823.711,290.934,823.706,290.934,823.701,290.934z"/>
		<path fill="#DFAD37" d="M837.435,290.809c0.001-0.783-0.055-1.57,0.014-2.346c0.099-1.112,0.768-1.773,1.881-1.84
			c1.18-0.071,2.036,0.539,2.123,1.706c0.127,1.691,0.117,3.405,0.004,5.098c-0.073,1.104-0.904,1.735-1.99,1.725
			c-1.148-0.011-1.912-0.669-2.018-1.858C837.375,292.472,837.434,291.638,837.435,290.809z"/>
	</g>
	<g>
		<path fill="#DFAD37" d="M981.618,312.976c-1.244-0.962-1.611-1.9-1.095-2.876c0.517-0.98,1.42-1.081,2.409-1.08
			c9.547,0.013,19.094,0.008,28.642,0.008c0.486,0,0.972,0,1.683,0c0-1.22-0.002-2.38,0.001-3.539
			c0.002-0.816-0.042-1.636,0.026-2.447c0.1-1.188,0.903-1.919,1.988-1.912c1.091,0.007,1.879,0.742,1.928,1.947
			c0.061,1.507,0.025,3.018,0.03,4.528c0.001,0.437,0,0.874,0,1.424c3.416,0,6.671,0,9.926,0c3.257,0,3.257,0,3.257-3.204
			c0-2.611,0.017-5.223-0.005-7.834c-0.038-4.327-2.305-7.315-6.467-8.565c-5.734-1.721-11.466-3.449-17.206-5.149
			c-0.654-0.193-1.355-0.313-2.035-0.316c-6.161-0.024-12.322-0.024-18.482,0c-0.681,0.003-1.384,0.114-2.038,0.306
			c-5.625,1.658-11.244,3.337-16.859,5.028c-4.662,1.404-6.799,4.306-6.804,9.195c-0.003,3.019,0.037,6.039-0.02,9.057
			c-0.021,1.091,0.28,1.525,1.446,1.504c3.548-0.064,7.099-0.022,10.648-0.026c0.318,0,0.635-0.038,1.118-0.069
			c0-1.457-0.001-2.872,0.001-4.288c0.001-0.53-0.019-1.062,0.017-1.591c0.081-1.19,0.838-1.939,1.929-1.947
			c1.037-0.008,1.937,0.691,1.966,1.787c0.072,2.731,0.114,5.47-0.037,8.195c-0.036,0.644-0.88,1.243-1.352,1.863
			c-5.386,0-10.773,0-16.159,0c-2.729-1.076-3.7-3.116-3.557-5.979c0.145-2.889,0.021-5.792,0.035-8.688
			c0.029-6.452,3.336-10.887,9.524-12.757c5.223-1.579,10.447-3.157,15.687-4.68c0.909-0.264,1.235-0.665,1.169-1.609
			c-0.088-1.259-0.067-2.53-0.006-3.792c0.04-0.832-0.231-1.285-0.988-1.716c-4.933-2.813-7.946-7.039-8.904-12.645
			c-0.776-4.539-1.421-9.1-2.178-13.642c-0.072-0.429-0.439-0.935-0.815-1.168c-3.367-2.082-4.105-6.44-1.161-9.057
			c2.935-2.609,4.738-5.699,5.624-9.44c0.187-0.79,0.491-1.552,0.757-2.322c1.645-4.762,4.947-7.63,9.868-8.689
			c0.448-0.096,0.938-0.41,1.224-0.769c1.005-1.261,2.236-1.992,3.872-1.991c3.468,0.003,6.936,0.008,10.403-0.003
			c1.683-0.006,2.963,0.709,3.967,2.038c0.237,0.313,0.636,0.622,1.008,0.696c5.145,1.023,8.525,4.013,10.158,8.992
			c0.241,0.735,0.55,1.454,0.723,2.205c0.844,3.676,2.663,6.666,5.514,9.226c2.994,2.688,2.277,7.052-1.149,9.135
			c-0.351,0.214-0.708,0.672-0.772,1.065c-0.698,4.263-1.361,8.532-1.987,12.806c-0.717,4.895-2.887,8.957-6.779,12.053
			c-1.08,0.859-2.64,1.467-3.163,2.576c-0.551,1.168-0.126,2.798-0.127,4.226c0,0.041,0.006,0.083-0.001,0.122
			c-0.195,1.043,0.289,1.465,1.284,1.752c5.283,1.522,10.545,3.116,15.81,4.699c5.768,1.735,9.183,6.26,9.277,12.342
			c0.047,3.018-0.094,6.043,0.04,9.056c0.128,2.863-0.849,4.906-3.597,5.957C1014.426,312.976,998.022,312.976,981.618,312.976z
			 M986.97,279.886c5.644,0,11.256,0,16.975,0c0-1.349,0-2.701,0-3.872c-1.863,0-3.686,0.011-5.509-0.003
			c-1.411-0.011-2.317-0.796-2.315-1.967c0.002-1.168,0.911-1.986,2.322-1.953c2.846,0.065,5.63-0.166,8.199-1.527
			c3.996-2.117,6.513-5.382,7.295-9.847c0.786-4.489,1.429-9.003,2.151-13.614c-13.75,0-27.394,0-41.216,0
			c0.253,1.702,0.494,3.374,0.751,5.044c0.435,2.819,0.837,5.644,1.329,8.454c1.139,6.512,6.473,11.162,13.082,11.462
			c0.245,0.011,0.492,0.002,0.733,0.035c1.052,0.143,1.805,0.994,1.779,1.997c-0.026,1.011-0.807,1.884-1.87,1.894
			c-1.208,0.011-2.417-0.126-3.708-0.203C986.97,277.157,986.97,278.48,986.97,279.886z M1005.324,228.743
			c-0.026,0.691-0.369,1.551-0.869,1.985c-0.401,0.348-1.425,0.435-1.872,0.156c-0.549-0.342-1.085-1.174-1.109-1.814
			c-0.114-3.055-0.053-6.116-0.055-9.175c-0.001-1.925-0.001-1.925-1.976-1.926c-2.733,0-5.465-0.001-8.198,0
			c-1.738,0.001-1.74,0.002-1.741,1.798c-0.002,2.937,0.004,5.873-0.003,8.81c-0.004,1.658-0.695,2.571-1.933,2.587
			c-1.261,0.016-2.011-0.966-2.015-2.661c-0.005-2.52-0.001-5.04-0.001-7.718c-3.109,0.735-5.196,2.479-6.279,5.272
			c-1.014,2.616-1.752,5.338-2.734,7.968c-0.356,0.954-0.971,1.856-1.634,2.64c-0.919,1.086-1.987,2.048-3.008,3.044
			c-0.66,0.644-1.081,1.347-0.67,2.282c0.39,0.887,1.161,1.027,2.033,1.026c8.606-0.01,17.212-0.006,25.818-0.006
			c6.118,0,12.236-0.005,18.354,0.005c0.933,0.002,1.844-0.022,2.272-1.036c0.443-1.051-0.09-1.837-0.868-2.445
			c-3.15-2.462-4.976-5.707-5.871-9.561c-0.303-1.303-0.772-2.578-1.269-3.823c-1.133-2.836-3.188-4.619-6.333-5.376
			C1005.363,223.543,1005.422,226.146,1005.324,228.743z"/>
		<path fill="#DFAD37" d="M1076.615,193.495c-0.152-0.367-0.316-0.73-0.454-1.103c-1.045-2.821-3.626-4.718-6.635-4.758
			c-3.467-0.046-6.936-0.024-10.404-0.01c-1.404,0.005-2.313,0.818-2.301,1.989c0.012,1.171,0.905,1.941,2.335,1.948
			c3.264,0.015,6.528-0.007,9.792,0.01c2.389,0.013,3.718,1.328,3.719,3.724c0.009,20.89,0.005,41.78,0.004,62.671
			c0,0.24-0.022,0.48-0.043,0.9c-0.5,0-0.97,0-1.441,0c-15.178,0-30.356,0-45.534,0.001c-0.449,0-0.902-0.027-1.345,0.028
			c-1.064,0.133-1.807,0.983-1.787,1.991c0.019,1.023,0.774,1.813,1.856,1.91c0.405,0.036,0.815,0.018,1.223,0.018
			c15.137,0.001,30.274,0.001,45.412,0.001c0.486,0,0.972,0,1.601,0c0.022,0.495,0.058,0.924,0.058,1.354
			c0.004,5.671,0.005,11.343,0.001,17.014c-0.002,2.868-1.228,4.094-4.097,4.095c-10.812,0.003-21.625,0.001-32.437,0.002
			c-0.408,0-0.818-0.018-1.223,0.022c-1.071,0.104-1.834,0.915-1.844,1.928c-0.01,0.991,0.761,1.846,1.813,1.975
			c0.362,0.044,0.733,0.023,1.1,0.023c10.853,0.001,21.706,0.002,32.559,0c4.245-0.001,6.511-1.639,7.91-5.704
			c0.023-0.068,0.106-0.115,0.162-0.172C1076.615,253.399,1076.615,223.447,1076.615,193.495z"/>
		<path fill="#DFAD37" d="M1035.723,201.548c0.065-1.959,1.353-3.349,3.311-3.362c6.16-0.041,12.321-0.042,18.481,0.003
			c1.858,0.014,3.177,1.345,3.215,3.176c0.057,2.732,0.057,5.467-0.006,8.199c-0.04,1.738-1.295,2.966-3.037,3.071
			c-1.179,0.071-2.365,0.034-3.548,0.038c-1.289,0.005-2.578,0.001-3.933,0.001c0,1.265,0.064,2.329-0.019,3.38
			c-0.077,0.98,0.241,1.525,1.166,1.953c2.402,1.111,4.73,2.385,7.123,3.517c1.588,0.751,2.295,1.902,2.308,3.663
			c0.013,1.814-0.719,2.995-2.347,3.768c-2.465,1.17-4.895,2.415-7.321,3.664c-0.354,0.182-0.845,0.548-0.865,0.856
			c-0.093,1.403-0.041,2.816-0.041,4.309c2.509,0,4.83-0.024,7.15,0.007c2.011,0.027,3.339,1.283,3.377,3.254
			c0.051,2.651,0.051,5.304-0.001,7.955c-0.037,1.919-1.356,3.241-3.259,3.25c-6.161,0.03-12.321,0.031-18.482,0
			c-1.884-0.009-3.191-1.372-3.27-3.262c-0.026-0.633-0.004-1.267-0.004-1.871c-0.315-0.055-0.435-0.094-0.555-0.094
			c-1.469-0.008-2.937-0.011-4.406-0.015c-2-0.006-2.915-0.617-2.934-1.959c-0.019-1.393,0.919-2.033,2.992-2.035
			c1.612-0.002,3.224,0,4.897,0c0-0.484-0.002-0.765,0-1.046c0.03-3.111,1.106-4.185,4.197-4.187c2.07-0.002,4.14,0,6.346,0
			c0-1.372-0.045-2.627,0.018-3.876c0.034-0.692-0.251-0.995-0.836-1.278c-2.459-1.188-4.877-2.458-7.339-3.638
			c-1.6-0.767-2.408-1.908-2.412-3.738c-0.004-1.822,0.764-2.99,2.371-3.763c2.495-1.201,4.967-2.453,7.425-3.728
			c0.327-0.17,0.718-0.59,0.738-0.915c0.083-1.334,0.035-2.676,0.035-4.11c-0.493-0.023-0.89-0.055-1.287-0.057
			c-1.917-0.007-3.836,0.025-5.752-0.014c-2.212-0.045-3.458-1.33-3.5-3.532c-0.01-0.55-0.002-1.1-0.002-1.631
			c-21.644,0-43.089,0-64.651,0c0,0.505,0,0.943,0,1.381c0,5.63,0.005,11.261-0.009,16.891c-0.001,0.52-0.031,1.079-0.217,1.553
			c-0.353,0.901-1.112,1.3-2.063,1.154c-0.889-0.136-1.474-0.685-1.614-1.598c-0.067-0.44-0.048-0.895-0.048-1.343
			c-0.003-6.365-0.003-12.729-0.001-19.094c0-2.519,0.458-2.97,3.01-2.97c21.297-0.001,42.594,0,63.892,0c0.52,0,1.041,0,1.704,0
			C1035.72,202.685,1035.704,202.116,1035.723,201.548z M1056.732,202.172c-5.682,0-11.291,0-16.987,0c0,2.135,0,4.233,0,6.433
			c5.615,0,11.253,0,16.987,0C1056.732,206.432,1056.732,204.333,1056.732,202.172z M1039.722,241.787c0,2.158,0,4.259,0,6.451
			c5.641,0,11.275,0,16.997,0c0-2.119,0-4.247,0-6.451C1050.998,241.787,1045.392,241.787,1039.722,241.787z M1047.771,229.363
			c0.25,0.123,0.663,0.129,0.912,0.008c2.695-1.317,5.373-2.67,8.313-4.142c-1.564-0.785-2.91-1.471-4.266-2.138
			c-1.491-0.733-2.992-2.011-4.489-2.011c-1.496,0-2.997,1.279-4.488,2.012c-1.346,0.661-2.683,1.34-4.264,2.132
			C1042.402,226.687,1045.077,228.042,1047.771,229.363z"/>
		<path fill="#DFAD37" d="M955.207,262.815c2.529,0,4.925,0,7.321,0c1.183,0,2.366,0.011,3.549-0.004
			c1.458-0.018,2.306-0.738,2.317-1.941c0.012-1.199-0.854-1.989-2.278-1.997c-3.263-0.019-6.527-0.005-9.791-0.009
			c-0.321,0-0.641-0.027-1.125-0.049c0-0.467,0-0.899,0-1.331c0-20.56,0-41.121,0.001-61.681c0-3.05,1.175-4.236,4.196-4.236
			c30.066-0.001,60.131,0,90.197-0.001c0.489,0,0.983,0.023,1.467-0.028c1.075-0.114,1.834-0.939,1.785-1.965
			c-0.051-1.08-0.661-1.726-1.712-1.922c-0.356-0.067-0.732-0.03-1.099-0.03c-30.269-0.001-60.539-0.002-90.808,0
			c-5.015,0-7.968,2.964-7.968,7.996c-0.001,28.556,0.007,57.112-0.012,85.668c-0.002,2.76,0.886,5.027,3.173,6.649
			c1.179,0.836,2.322,0.728,3.036-0.227c0.721-0.964,0.494-2.043-0.69-2.93c-0.943-0.707-1.544-1.601-1.549-2.777
			C955.196,275.678,955.207,269.356,955.207,262.815z"/>
		<path fill="#DFAD37" d="M1052.268,281.331c-2.772,0-5.544,0.029-8.315-0.015c-1.01-0.016-2.053-0.073-3.018-0.342
			c-3.454-0.961-5.64-4.355-5.171-7.867c0.484-3.622,3.462-6.276,7.263-6.308c6.113-0.052,12.228-0.039,18.341,0.012
			c0.954,0.008,1.958,0.222,2.847,0.574c3.209,1.273,4.944,4.565,4.336,8.024c-0.596,3.39-3.526,5.827-7.236,5.904
			c-3.015,0.063-6.032,0.013-9.048,0.013C1052.268,281.328,1052.268,281.329,1052.268,281.331z M1061.578,277.296
			c1.525-0.029,2.696-1.046,3.031-2.396c0.361-1.454-0.224-2.992-1.524-3.668c-0.555-0.288-1.24-0.448-1.868-0.451
			c-5.99-0.033-11.979-0.04-17.969-0.01c-2.161,0.011-3.618,1.429-3.579,3.336c0.039,1.875,1.459,3.195,3.574,3.219
			c3.015,0.035,6.03,0.009,9.046,0.009c0-0.007,0-0.014,0-0.021C1055.385,277.313,1058.483,277.354,1061.578,277.296z"/>
		<path fill="#DFAD37" d="M966.414,266.787c3.952-0.018,7.241,3.239,7.282,7.211c0.041,3.987-3.321,7.354-7.305,7.316
			c-3.971-0.038-7.234-3.325-7.224-7.277C959.178,270.073,962.444,266.806,966.414,266.787z M966.454,277.314
			c1.865-0.011,3.297-1.503,3.242-3.379c-0.053-1.811-1.521-3.194-3.345-3.153c-1.813,0.041-3.212,1.498-3.185,3.317
			C963.193,275.917,964.633,277.325,966.454,277.314z"/>
		<path fill="#DFAD37" d="M1024.329,266.79c3.91-0.13,7.287,3.08,7.43,7.062c0.141,3.96-3.129,7.369-7.159,7.461
			c-3.934,0.09-7.253-3.13-7.35-7.129C1017.155,270.223,1020.314,266.923,1024.329,266.79z M1021.232,274.04
			c-0.003,1.831,1.401,3.256,3.224,3.274c1.859,0.018,3.354-1.476,3.322-3.319c-0.032-1.805-1.491-3.221-3.306-3.21
			C1022.643,270.796,1021.235,272.21,1021.232,274.04z"/>
	</g>
	<g>
		<path fill="#DFAD37" d="M175.675,246.975c-1.282,1.413-2.334,2.58-3.394,3.738c-10.311,11.256-22.086,20.655-35.595,27.799
			c-13.316,7.042-27.393,11.176-42.61,10.607c-10.248-0.383-20.043-2.834-29.408-6.93c-17.85-7.809-32.822-19.51-45.614-34.1
			c-1.779-2.029-1.786-2.902,0.011-4.939c14.258-16.155,30.962-28.896,51.368-36.319c18.586-6.761,37.128-6.257,55.482,0.979
			c16.998,6.701,31.396,17.235,44.061,30.263c1.864,1.918,3.626,3.935,5.611,6.096c0.531,0.588,1.071,1.458,1.071,1.458
			S175.937,246.627,175.675,246.975z M169.863,245.776c-0.105-0.277-0.121-0.386-0.18-0.462c-0.158-0.203-0.329-0.396-0.503-0.585
			c-11.969-13.035-25.67-23.727-41.967-30.864c-8.597-3.765-17.573-6.078-26.978-6.553c-14.437-0.73-27.795,3.137-40.454,9.73
			c-13.382,6.97-24.892,16.377-35.078,27.452c-0.335,0.365-0.639,0.758-0.96,1.142c0.335,0.399,0.554,0.684,0.797,0.947
			c11.918,12.93,25.507,23.608,41.707,30.707c16.88,7.397,34.17,8.947,51.922,3.432c11.678-3.628,22.182-9.491,31.931-16.772
			C157.297,258.576,163.833,252.473,169.863,245.776z"/>
		<path fill="#DFAD37" d="M94.367,312.976c-0.018-5.077-0.06-10.153-0.039-15.23c0.007-1.681,1.039-2.704,2.513-2.702
			c1.475,0.001,2.512,1.025,2.518,2.702c0.019,5.076-0.028,10.153-0.049,15.23C97.662,312.976,96.014,312.976,94.367,312.976z"/>
		<path fill="#DFAD37" d="M94.308,185.473c0-2.574-0.022-5.148,0.007-7.721c0.022-1.911,0.998-2.985,2.593-2.946
			c1.53,0.037,2.444,1.075,2.452,2.931c0.023,5.199,0.025,10.398-0.002,15.597c-0.01,1.816-0.99,2.876-2.515,2.878
			c-1.524,0.002-2.51-1.062-2.535-2.863c-0.036-2.625-0.009-5.25-0.009-7.875C94.301,185.473,94.305,185.473,94.308,185.473z"/>
		<path fill="#DFAD37" d="M75.009,197.386c-0.021,1.292-0.722,2.141-1.932,2.441c-1.231,0.305-2.29-0.167-2.805-1.346
			c-0.532-1.217-0.895-2.509-1.314-3.774c-0.968-2.922-1.947-5.841-2.88-8.774c-0.594-1.87-0.084-3.164,1.38-3.732
			c1.204-0.467,2.631-0.043,3.086,1.263c1.552,4.453,2.954,8.958,4.408,13.445C74.999,197.051,74.99,197.213,75.009,197.386z"/>
		<path fill="#DFAD37" d="M127.888,184.639c-0.086,0.389-0.154,0.902-0.312,1.386c-1.257,3.855-2.52,7.708-3.803,11.554
			c-0.608,1.823-1.862,2.657-3.278,2.243c-1.555-0.455-2.204-1.877-1.603-3.758c1.28-4.009,2.59-8.01,3.933-11.998
			c0.5-1.485,1.65-2.249,2.896-2.002C127.039,182.326,127.758,183.171,127.888,184.639z"/>
		<path fill="#DFAD37" d="M127.862,306.542c-0.038,1.468-0.752,2.364-2.048,2.633c-1.327,0.276-2.342-0.356-2.822-1.6
			c-0.628-1.625-1.144-3.294-1.687-4.95c-0.799-2.438-1.594-4.877-2.361-7.325c-0.613-1.955-0.079-3.317,1.447-3.829
			c1.447-0.486,2.768,0.368,3.401,2.264c1.282,3.845,2.538,7.698,3.792,11.552C127.727,305.722,127.785,306.185,127.862,306.542z"/>
		<path fill="#DFAD37" d="M75.044,294.002c-0.09,0.379-0.174,0.887-0.332,1.372c-1.253,3.856-2.51,7.712-3.789,11.56
			c-0.602,1.811-1.895,2.647-3.296,2.199c-1.485-0.475-2.175-1.881-1.62-3.631c1.288-4.06,2.627-8.105,3.991-12.14
			c0.497-1.471,1.655-2.222,2.915-1.962C74.226,291.67,74.948,292.512,75.044,294.002z"/>
		<path fill="#DFAD37" d="M53.841,206.039c-0.521,0.58-1.025,1.63-1.764,1.836c-0.822,0.229-2.263,0.015-2.732-0.57
			c-1.923-2.397-3.635-4.971-5.307-7.556c-0.789-1.22-0.348-2.645,0.783-3.382c1.095-0.714,2.464-0.597,3.306,0.543
			c1.8,2.434,3.487,4.952,5.183,7.46C53.553,204.729,53.592,205.226,53.841,206.039z"/>
		<path fill="#DFAD37" d="M142.967,283.068c0.393,0.286,1.278,0.675,1.786,1.348c1.638,2.171,3.171,4.425,4.678,6.691
			c0.97,1.458,0.69,2.951-0.58,3.794c-1.187,0.788-2.634,0.46-3.609-0.902c-1.583-2.214-3.165-4.431-4.661-6.704
			C139.33,285.393,140.39,283.126,142.967,283.068z"/>
		<path fill="#DFAD37" d="M142.809,208.167c-2.006,0.044-3.471-1.987-2.558-3.488c1.702-2.797,3.628-5.47,5.622-8.072
			c0.763-0.995,2.039-0.931,3.072-0.168c1.019,0.752,1.499,1.912,0.825,2.984c-1.718,2.734-3.582,5.38-5.485,7.99
			C143.946,207.88,143.143,208.007,142.809,208.167z"/>
		<path fill="#DFAD37" d="M46.394,295.343c-2.062-0.066-3.376-2.068-2.441-3.596c1.657-2.706,3.514-5.3,5.421-7.839
			c0.804-1.07,2.068-1.121,3.185-0.344c1.114,0.774,1.524,2.001,0.827,3.113c-1.687,2.692-3.525,5.294-5.411,7.853
			C47.607,295.029,46.752,295.17,46.394,295.343z"/>
		<path fill="#DFAD37" d="M34.555,219.557c-0.345,0.468-0.702,1.415-1.359,1.72c-0.715,0.332-2.011,0.43-2.52-0.001
			c-1.588-1.341-3.019-2.905-4.319-4.535c-0.73-0.915-0.479-2.075,0.373-2.937c0.853-0.863,2.089-1.161,2.931-0.415
			c1.671,1.48,3.106,3.23,4.605,4.899C34.444,218.484,34.409,218.87,34.555,219.557z"/>
		<path fill="#DFAD37" d="M164.989,213.045c2.099,0.069,3.426,2.126,2.348,3.626c-1.239,1.725-2.792,3.261-4.384,4.683
			c-0.88,0.786-2.076,0.507-2.933-0.337c-0.896-0.882-1.213-2.058-0.404-3.059c1.281-1.585,2.741-3.033,4.192-4.47
			C164.131,213.168,164.735,213.134,164.989,213.045z"/>
		<path fill="#DFAD37" d="M28.244,278.381c-0.578-0.446-1.557-0.845-1.869-1.542c-0.317-0.709-0.295-1.944,0.139-2.541
			c1.105-1.52,2.458-2.881,3.837-4.172c0.98-0.917,2.2-0.856,3.213,0.03c0.941,0.823,1.342,2.018,0.548,3.027
			c-1.29,1.639-2.798,3.111-4.27,4.598C29.553,278.071,29.006,278.107,28.244,278.381z"/>
		<path fill="#DFAD37" d="M167.744,276.081c-0.337,0.446-0.726,1.432-1.419,1.746c-0.706,0.319-1.997,0.313-2.532-0.141
			c-1.547-1.314-2.92-2.862-4.207-4.443c-0.718-0.882-0.585-2.125,0.307-2.772c0.72-0.522,2.234-1.041,2.661-0.683
			c1.814,1.518,3.363,3.355,4.982,5.101C167.681,275.044,167.631,275.38,167.744,276.081z"/>
		<path fill="#DFAD37" d="M64.22,245.406c0.291-18.618,15.329-32.536,32.841-32.376c18.533,0.17,32.556,15.281,32.375,32.818
			c-0.191,18.579-15.291,32.54-32.822,32.376C78.093,278.051,64.142,262.978,64.22,245.406z M124.324,245.666
			c0.028-15.133-12.346-27.524-27.486-27.524c-15.085,0-27.404,12.268-27.485,27.37c-0.081,15.122,12.257,27.547,27.409,27.601
			C111.893,273.167,124.296,260.817,124.324,245.666z"/>
		<path fill="#DFAD37" d="M113.143,244.808c-0.447,7.987-3.808,13.1-10.2,15.779c-6.393,2.679-12.372,1.309-17.425-3.389
			c-7.756-7.211-5.969-20.443,3.312-25.609c4.421-2.461,8.956-2.802,13.676-1.131c1.942,0.687,2.715,1.974,2.184,3.454
			c-0.548,1.527-1.89,2.118-3.835,1.389c-5.192-1.945-10.256,0.229-12.866,3.669c-2.696,3.555-2.957,8.493-0.562,12.473
			c2.335,3.88,6.933,5.883,11.567,5.039c4.298-0.783,8.084-4.438,8.642-8.777c0.241-1.876-0.209-3.844-0.374-5.768
			c-0.069-0.802-0.375-1.615-0.286-2.39c0.133-1.161,1.031-1.773,2.137-1.901c1.21-0.14,2.21,0.446,2.562,1.567
			C112.346,241.35,112.821,243.548,113.143,244.808z"/>
	</g>
</g>
</svg>
