<?xml version="1.0" encoding="utf-8"?>
<!-- Generator: Adobe Illustrator 17.0.0, SVG Export Plug-In . SVG Version: 6.00 Build 0)  -->
<!DOCTYPE svg PUBLIC "-//W3C//DTD SVG 1.1//EN" "http://www.w3.org/Graphics/SVG/1.1/DTD/svg11.dtd">
<svg version="1.1" id="Layer_1" xmlns="http://www.w3.org/2000/svg" xmlns:xlink="http://www.w3.org/1999/xlink" x="0px" y="0px"
	 width="164px" height="240px" viewBox="0 0 164 240" enable-background="new 0 0 164 240" xml:space="preserve">
<g>
	<path fill="#FFCD05" d="M11.887,225.225h-0.17c-0.452-0.517-1.002-0.912-1.651-1.183c-0.649-0.272-1.342-0.408-2.079-0.408
		c-1.448,0-2.604,0.455-3.469,1.364c-0.863,0.91-1.295,2.186-1.295,3.828c0,1.67,0.421,2.97,1.263,3.901
		c0.841,0.932,2.073,1.397,3.694,1.397c0.463,0,0.917-0.047,1.364-0.142c0.447-0.093,0.854-0.235,1.221-0.424v-4.231l0.726,0.033
		l0.726-0.033v4.66c-0.726,0.258-1.475,0.457-2.24,0.593c-0.767,0.138-1.52,0.206-2.257,0.206c-2.02,0-3.565-0.556-4.636-1.671
		c-0.989-1.038-1.486-2.443-1.486-4.214c0-1.892,0.611-3.358,1.834-4.401c1.158-0.991,2.697-1.487,4.619-1.487
		c0.855,0,1.651,0.082,2.387,0.246c0.734,0.165,1.35,0.4,1.845,0.707c-0.076,0.178-0.146,0.38-0.214,0.605
		C12.002,224.796,11.941,225.016,11.887,225.225"/>
	<path fill="#FFCD05" d="M16.741,223.835c0,0.221-0.083,0.414-0.25,0.578c-0.167,0.164-0.361,0.246-0.581,0.246
		c-0.232,0-0.432-0.08-0.602-0.238c-0.17-0.159-0.255-0.355-0.255-0.586c0-0.232,0.085-0.433,0.255-0.605
		c0.17-0.172,0.37-0.26,0.602-0.26c0.221,0,0.414,0.085,0.581,0.252C16.658,223.39,16.741,223.595,16.741,223.835 M16.571,226.646
		v7.938l-0.662-0.063c-0.12,0-0.213,0.002-0.279,0.007c-0.068,0.006-0.192,0.025-0.375,0.057v-7.938
		c0.161,0.022,0.276,0.038,0.342,0.049c0.068,0.011,0.172,0.016,0.312,0.016L16.571,226.646z"/>
	<path fill="#FFCD05" d="M25.204,229.327v3.836l-0.033,0.235c0,0.22,0.027,0.381,0.082,0.48c0.054,0.099,0.169,0.148,0.347,0.148
		l0.525-0.104v0.362c-0.14,0.082-0.304,0.137-0.493,0.17l-0.597,0.065c-0.318,0-0.573-0.077-0.767-0.23
		c-0.194-0.153-0.312-0.419-0.354-0.795l-0.131,0.17c-0.71,0.706-1.528,1.057-2.454,1.057c-0.613,0-1.136-0.191-1.566-0.573
		c-0.432-0.381-0.646-0.875-0.646-1.478c0-0.651,0.189-1.156,0.569-1.514c0.38-0.359,1.215-0.647,2.508-0.868
		c0.559-0.092,0.929-0.164,1.106-0.218c0.43-0.147,0.647-0.436,0.647-0.873c0-0.619-0.167-1.1-0.498-1.441
		c-0.331-0.342-0.816-0.513-1.457-0.513c-0.54,0-1.002,0.143-1.389,0.428c-0.307,0.221-0.493,0.463-0.558,0.728h-0.202v-0.921
		c0.43-0.301,0.862-0.531,1.292-0.69c0.432-0.159,0.893-0.239,1.389-0.239C24.309,226.549,25.204,227.475,25.204,229.327
		 M22.409,223.634c0.065-0.065,0.158-0.161,0.279-0.287c0.121-0.128,0.236-0.228,0.343-0.303c0.069-0.033,0.137-0.068,0.202-0.105
		h0.129c0.302,0,0.49,0.11,0.566,0.331v0.202c0,0.135-0.011,0.224-0.033,0.268c-0.134,0.118-0.266,0.238-0.395,0.363l-2.617,1.615
		h-0.556L22.409,223.634z M23.879,232.864v-2.415l-0.597,0.098c-0.98,0.198-1.586,0.355-1.818,0.468
		c-0.662,0.296-0.994,0.77-0.994,1.422c0,0.517,0.142,0.905,0.422,1.161c0.279,0.26,0.681,0.389,1.202,0.389
		c0.232,0,0.471-0.062,0.72-0.183c0.246-0.12,0.446-0.268,0.597-0.44c0.091-0.069,0.192-0.161,0.302-0.271
		C23.824,232.984,23.879,232.908,23.879,232.864"/>
	<path fill="#FFCD05" d="M32.6,225.023l1.325-0.524v2.147h1.752l-0.031,0.364l0.031,0.266h-1.752v4.168l-0.031,0.564
		c0,0.813,0.115,1.381,0.347,1.705c0.199,0.274,0.501,0.411,0.904,0.411c0.146,0,0.287-0.016,0.424-0.047
		c0.139-0.033,0.252-0.062,0.343-0.09v0.405c-0.221,0.085-0.458,0.162-0.715,0.23c-0.255,0.066-0.48,0.101-0.673,0.101
		c-0.652,0-1.129-0.162-1.43-0.485c-0.35-0.372-0.525-0.992-0.525-1.865l0.032-0.266v-4.83h-1.024
		c0.02-0.065,0.032-0.164,0.032-0.298c0-0.156-0.011-0.268-0.032-0.333H32.6V225.023z"/>
	<path fill="#FFCD05" d="M37.487,234.584v-7.938c0.167,0.022,0.282,0.038,0.348,0.049c0.065,0.011,0.169,0.016,0.313,0.016
		l0.663-0.065v1.656l0.065-0.202c0.307-0.463,0.621-0.827,0.944-1.092c0.383-0.306,0.762-0.46,1.141-0.46
		c0.187,0,0.365,0.033,0.532,0.098l-0.235,1.389c-0.263-0.087-0.528-0.176-0.791-0.266c-0.443,0-0.794,0.134-1.059,0.403
		c-0.258,0.307-0.422,0.602-0.493,0.888c-0.069,0.285-0.104,0.695-0.104,1.227v4.296l-0.663-0.064c-0.123,0-0.217,0.003-0.282,0.008
		C37.802,234.533,37.676,234.553,37.487,234.584"/>
	<path fill="#FFCD05" d="M44.198,224.628c-0.2,0-0.376-0.077-0.529-0.232c-0.153-0.153-0.23-0.329-0.23-0.528
		c0-0.2,0.077-0.377,0.23-0.529c0.153-0.154,0.329-0.23,0.529-0.23c0.21,0,0.389,0.074,0.536,0.222
		c0.15,0.148,0.224,0.327,0.224,0.537c0,0.198-0.077,0.375-0.23,0.528C44.573,224.551,44.397,224.628,44.198,224.628
		 M44.198,237.032c-0.2,0-0.376-0.077-0.529-0.232c-0.153-0.153-0.23-0.329-0.23-0.528c0-0.2,0.077-0.375,0.23-0.529
		c0.153-0.153,0.329-0.23,0.529-0.23c0.21,0,0.389,0.074,0.536,0.222c0.15,0.148,0.224,0.328,0.224,0.537
		c0,0.198-0.077,0.375-0.23,0.528C44.573,236.955,44.397,237.032,44.198,237.032 M44.795,226.646v7.938l-0.662-0.063
		c-0.124,0-0.219,0.002-0.284,0.007c-0.065,0.006-0.191,0.025-0.38,0.057v-7.938c0.167,0.022,0.282,0.038,0.348,0.049
		c0.065,0.011,0.169,0.016,0.315,0.016L44.795,226.646z"/>
	<path fill="#FFCD05" d="M58.912,227.243l-0.364,1.09H58.42c-0.017-0.011-0.071-0.082-0.162-0.214
		c-0.091-0.131-0.194-0.249-0.307-0.352c-0.178-0.203-0.416-0.365-0.71-0.483c-0.296-0.118-0.6-0.178-0.912-0.178
		c-0.9,0-1.61,0.35-2.133,1.051c-0.473,0.633-0.71,1.421-0.71,2.357c0,1.071,0.274,1.942,0.821,2.609
		c0.545,0.668,1.276,1.002,2.191,1.002c0.463,0,0.877-0.095,1.245-0.283c0.274-0.145,0.621-0.403,1.041-0.775l0.096,0.033
		l-0.096,0.76c-0.366,0.285-0.761,0.499-1.186,0.644c-0.425,0.147-0.871,0.219-1.334,0.219c-1.345,0-2.398-0.398-3.157-1.196
		c-0.715-0.747-1.074-1.728-1.074-2.938c0-1.26,0.394-2.25,1.183-2.965c0.789-0.715,1.816-1.075,3.081-1.075
		c0.521,0,0.983,0.05,1.385,0.15C58.082,226.797,58.491,226.98,58.912,227.243"/>
	<path fill="#FFCD05" d="M66.971,226.646v7.938l-0.662-0.065c-0.12,0-0.213,0.003-0.28,0.008c-0.066,0.007-0.192,0.025-0.375,0.057
		v-1.453c-0.553,1.06-1.437,1.59-2.648,1.59c-0.915,0-1.597-0.257-2.043-0.77c-0.447-0.515-0.669-1.33-0.669-2.443v-4.861
		c0.165,0.022,0.282,0.038,0.345,0.049c0.066,0.011,0.172,0.016,0.317,0.016l0.662-0.065v4.466c0,0.926,0.148,1.621,0.444,2.084
		c0.296,0.462,0.81,0.693,1.542,0.693c0.759,0,1.308-0.296,1.648-0.889c0.269-0.452,0.403-1.049,0.403-1.793v-4.562
		c0.162,0.022,0.276,0.038,0.343,0.049c0.068,0.011,0.172,0.016,0.312,0.016L66.971,226.646z M63.329,225.814v-0.178
		c0-0.096,0.013-0.214,0.041-0.352c0.027-0.137,0.057-0.235,0.088-0.295l0.662-0.873l0.146-0.313c0.054-0.167,0.093-0.34,0.12-0.517
		c0-0.394-0.266-0.626-0.799-0.695c-0.285,0.047-0.482,0.148-0.589,0.298c0.065,0.134,0.107,0.267,0.129,0.397
		c0,0.165-0.047,0.307-0.142,0.423c-0.095,0.115-0.236,0.185-0.424,0.205c-0.161,0-0.307-0.063-0.436-0.189
		c-0.129-0.126-0.194-0.274-0.194-0.439l0.17-0.445c0.032-0.087,0.099-0.17,0.202-0.25c0.085-0.108,0.261-0.213,0.525-0.312
		c0.265-0.099,0.528-0.15,0.792-0.15c0.198,0,0.337,0.008,0.416,0.025c0.077,0.016,0.224,0.06,0.44,0.132
		c0.216,0.072,0.372,0.175,0.468,0.304c0.265,0.268,0.395,0.589,0.395,0.96c0,0.135-0.057,0.298-0.172,0.49
		c-0.117,0.191-0.266,0.402-0.449,0.633l-0.421,0.315l-0.315,0.218c-0.087,0.087-0.137,0.157-0.153,0.214
		c-0.016,0.057-0.03,0.101-0.041,0.134l-0.016,0.258H63.329z"/>
	<path fill="#FFCD05" d="M74.789,229.327v3.836l-0.033,0.235c0,0.22,0.027,0.381,0.082,0.48c0.054,0.099,0.169,0.148,0.347,0.148
		l0.525-0.104v0.362c-0.14,0.082-0.304,0.137-0.493,0.17l-0.597,0.065c-0.318,0-0.573-0.077-0.767-0.23
		c-0.194-0.153-0.312-0.419-0.354-0.795l-0.131,0.17c-0.71,0.706-1.528,1.057-2.454,1.057c-0.614,0-1.136-0.191-1.567-0.573
		c-0.43-0.381-0.644-0.875-0.644-1.478c0-0.651,0.189-1.156,0.569-1.514c0.38-0.359,1.215-0.647,2.508-0.868
		c0.559-0.092,0.928-0.164,1.106-0.218c0.43-0.147,0.646-0.436,0.646-0.873c0-0.619-0.165-1.1-0.496-1.441
		c-0.332-0.342-0.818-0.513-1.459-0.513c-0.539,0-1,0.143-1.388,0.428c-0.307,0.221-0.493,0.463-0.558,0.728h-0.202v-0.921
		c0.43-0.301,0.86-0.531,1.292-0.69c0.43-0.159,0.893-0.239,1.389-0.239C73.894,226.549,74.789,227.475,74.789,229.327
		 M73.464,232.864v-2.415l-0.597,0.098c-0.98,0.198-1.586,0.355-1.818,0.468c-0.662,0.296-0.994,0.77-0.994,1.422
		c0,0.517,0.14,0.905,0.422,1.161c0.279,0.26,0.679,0.389,1.202,0.389c0.232,0,0.471-0.062,0.718-0.183
		c0.247-0.12,0.447-0.268,0.599-0.44c0.091-0.069,0.192-0.161,0.302-0.271C73.409,232.984,73.464,232.908,73.464,232.864"/>
	<path fill="#FFCD05" d="M82.056,232.961h0.129c0.221,0.345,0.499,0.635,0.837,0.872c0.336,0.238,0.687,0.356,1.054,0.356
		c0.441,0,0.822-0.14,1.142-0.42c0.32-0.28,0.482-0.646,0.482-1.098c0-0.673-0.652-1.197-1.955-1.575
		c-1.303-0.377-1.955-1.076-1.955-2.098c0-0.77,0.257-1.371,0.772-1.802c0.514-0.43,1.161-0.646,1.942-0.646
		c0.386,0,0.767,0.049,1.137,0.145c0.269,0.071,0.509,0.165,0.72,0.283c-0.169,0.398-0.302,0.797-0.405,1.196h-0.129
		c-0.124-0.301-0.315-0.561-0.573-0.775c-0.258-0.216-0.54-0.323-0.848-0.323c-0.443,0-0.8,0.115-1.074,0.347
		c-0.274,0.232-0.411,0.569-0.411,1.01c0,0.662,0.649,1.204,1.95,1.623c1.3,0.421,1.95,1.093,1.95,2.02
		c0,0.822-0.326,1.486-0.977,1.986c-0.583,0.441-1.271,0.662-2.068,0.662c-0.77,0-1.463-0.188-2.083-0.566
		c0.085-0.263,0.153-0.463,0.2-0.597C81.981,233.296,82.036,233.096,82.056,232.961"/>
	<path fill="#FFCD05" d="M94.881,227.009c0.21-0.054,0.356-0.139,0.44-0.254c0.083-0.117,0.126-0.263,0.126-0.441
		c0-0.22-0.044-0.375-0.129-0.46c-0.038-0.053-0.139-0.087-0.304-0.096c-0.164-0.011-0.25-0.037-0.262-0.074v-0.992l0.493,0.072
		h1.098l-0.033,0.258v0.63c0,0.29-0.028,0.542-0.085,0.755c-0.055,0.213-0.173,0.424-0.35,0.635
		c-0.129,0.156-0.271,0.268-0.421,0.334c-0.151,0.068-0.342,0.112-0.573,0.134v7.073l-0.663-0.063c-0.117,0-0.211,0.002-0.277,0.008
		c-0.068,0.005-0.194,0.023-0.377,0.055v-1.452c-0.555,1.06-1.437,1.591-2.648,1.591c-0.915,0-1.597-0.257-2.043-0.772
		c-0.447-0.514-0.671-1.328-0.671-2.443v-4.861c0.167,0.022,0.284,0.038,0.348,0.049c0.065,0.011,0.17,0.016,0.315,0.016
		l0.662-0.065v4.466c0,0.926,0.148,1.621,0.444,2.084c0.296,0.463,0.81,0.695,1.542,0.695c0.759,0,1.309-0.296,1.648-0.888
		c0.269-0.452,0.403-1.051,0.403-1.793v-4.564c0.162,0.022,0.277,0.038,0.343,0.049c0.068,0.011,0.17,0.016,0.31,0.016l0.663-0.065
		V227.009z M91.546,237.031c-0.2,0-0.378-0.077-0.532-0.23c-0.158-0.154-0.235-0.329-0.235-0.529c0-0.198,0.077-0.375,0.235-0.529
		c0.154-0.153,0.332-0.23,0.532-0.23c0.21,0,0.389,0.074,0.537,0.222c0.148,0.148,0.221,0.328,0.221,0.537
		c0,0.2-0.076,0.375-0.23,0.529C91.921,236.954,91.744,237.031,91.546,237.031"/>
	<path fill="#FFCD05" d="M101.89,234.584v-12.437l0.662,0.033l0.663-0.033v6.026c0.285-0.522,0.654-0.923,1.106-1.204
		c0.452-0.279,0.967-0.42,1.542-0.42c0.937,0,1.616,0.271,2.038,0.813c0.424,0.54,0.635,1.349,0.635,2.426v4.797l-0.662-0.064
		c-0.118,0-0.211,0.003-0.279,0.008c-0.068,0.006-0.195,0.025-0.384,0.057v-4.433c0-0.958-0.126-1.641-0.38-2.051
		c-0.285-0.463-0.773-0.695-1.47-0.695c-0.737,0-1.279,0.22-1.627,0.662c-0.347,0.443-0.52,1.105-0.52,1.988v4.529l-0.663-0.064
		c-0.123,0-0.217,0.003-0.282,0.008C102.205,234.533,102.079,234.553,101.89,234.584"/>
	<path fill="#FFCD05" d="M110.49,230.546c0-1.178,0.356-2.139,1.066-2.883c0.711-0.743,1.613-1.113,2.706-1.113
		c1.038,0,1.876,0.368,2.516,1.106c0.636,0.737,0.956,1.715,0.956,2.932c0,1.136-0.315,2.089-0.945,2.858
		c-0.695,0.851-1.626,1.276-2.793,1.276c-0.991,0-1.818-0.34-2.481-1.024c-0.704-0.733-1.057-1.659-1.057-2.779L110.49,230.546z
		 M114.23,227.074c-0.851,0-1.492,0.399-1.922,1.194c-0.35,0.652-0.525,1.49-0.525,2.513c0,0.936,0.175,1.71,0.525,2.318
		c0.421,0.726,1.029,1.09,1.824,1.09c0.77,0,1.366-0.447,1.785-1.341c0.329-0.706,0.493-1.482,0.493-2.333
		c0-0.906-0.148-1.659-0.444-2.261C115.578,227.468,115,227.074,114.23,227.074"/>
	<path fill="#FFCD05" d="M125.116,229.327v3.836l-0.033,0.235c0,0.22,0.028,0.381,0.082,0.48c0.054,0.099,0.169,0.148,0.347,0.148
		l0.525-0.104v0.362c-0.14,0.082-0.304,0.137-0.492,0.17l-0.599,0.065c-0.317,0-0.572-0.077-0.767-0.23
		c-0.192-0.153-0.312-0.419-0.354-0.795l-0.129,0.17c-0.711,0.706-1.53,1.057-2.456,1.057c-0.613,0-1.136-0.191-1.566-0.573
		c-0.432-0.381-0.646-0.875-0.646-1.478c0-0.651,0.189-1.156,0.569-1.514c0.38-0.359,1.216-0.647,2.508-0.868
		c0.559-0.092,0.929-0.164,1.106-0.218c0.432-0.147,0.647-0.436,0.647-0.873c0-0.619-0.165-1.1-0.498-1.441
		c-0.331-0.342-0.816-0.513-1.457-0.513c-0.539,0-1.002,0.143-1.389,0.428c-0.307,0.221-0.493,0.463-0.558,0.728h-0.202v-0.921
		c0.43-0.301,0.862-0.531,1.292-0.69c0.432-0.159,0.895-0.239,1.389-0.239C124.223,226.549,125.116,227.475,125.116,229.327
		 M123.84,225.717h-0.566l-2.607-1.615c-0.135-0.125-0.268-0.244-0.397-0.363c-0.022-0.044-0.031-0.132-0.031-0.268v-0.202
		c0.074-0.221,0.261-0.331,0.556-0.331h0.139c0.065,0.038,0.129,0.072,0.194,0.105c0.112,0.074,0.23,0.175,0.35,0.303
		c0.121,0.126,0.214,0.222,0.279,0.287L123.84,225.717z M123.791,232.864v-2.415l-0.597,0.098c-0.98,0.198-1.586,0.355-1.816,0.468
		c-0.663,0.296-0.994,0.77-0.994,1.422c0,0.517,0.14,0.905,0.421,1.161c0.279,0.26,0.681,0.389,1.202,0.389
		c0.232,0,0.473-0.062,0.72-0.183c0.247-0.12,0.446-0.268,0.597-0.44c0.091-0.069,0.192-0.161,0.302-0.271
		C123.736,232.984,123.791,232.908,123.791,232.864"/>
	<path fill="#FFCD05" d="M127.853,234.584v-7.938c0.167,0.022,0.284,0.038,0.348,0.049c0.065,0.011,0.169,0.016,0.314,0.016
		l0.663-0.065v1.526c0.285-0.522,0.654-0.923,1.106-1.204c0.454-0.279,0.967-0.42,1.542-0.42c0.948,0,1.63,0.265,2.048,0.792
		c0.417,0.528,0.625,1.342,0.625,2.446v4.797l-0.662-0.064c-0.118,0-0.211,0.003-0.279,0.008c-0.068,0.006-0.195,0.025-0.384,0.057
		v-4.433c0-0.884-0.109-1.526-0.331-1.93c-0.285-0.543-0.791-0.816-1.517-0.816c-0.814,0-1.386,0.299-1.72,0.896
		c-0.287,0.505-0.428,1.311-0.428,2.415v3.867l-0.663-0.064c-0.123,0-0.217,0.003-0.282,0.008
		C128.168,234.533,128.042,234.553,127.853,234.584"/>
	<path fill="#FFCD05" d="M141.872,234.584v-7.938c0.167,0.022,0.282,0.038,0.347,0.049c0.065,0.011,0.17,0.016,0.315,0.016
		l0.663-0.065v1.421c0.285-0.495,0.611-0.863,0.977-1.106c0.414-0.274,0.904-0.413,1.47-0.413c0.539,0,1.03,0.147,1.479,0.436
		c0.446,0.292,0.758,0.698,0.936,1.22c0.328-0.553,0.699-0.969,1.114-1.243c0.414-0.274,0.903-0.413,1.462-0.413
		c0.975,0,1.676,0.28,2.108,0.841c0.383,0.51,0.573,1.311,0.573,2.398v4.797l-0.662-0.064c-0.118,0-0.213,0.003-0.279,0.008
		c-0.068,0.006-0.195,0.025-0.384,0.057v-4.433c0-0.866-0.106-1.504-0.313-1.914c-0.287-0.555-0.797-0.832-1.534-0.832
		c-0.739,0-1.257,0.299-1.56,0.896c-0.216,0.432-0.323,1.025-0.323,1.785v4.498l-0.662-0.064c-0.124,0-0.219,0.003-0.284,0.008
		c-0.065,0.006-0.191,0.025-0.38,0.057v-4.86c0-1.547-0.584-2.319-1.752-2.319c-0.786,0-1.333,0.236-1.64,0.71
		c-0.23,0.356-0.347,0.901-0.347,1.64v4.828l-0.663-0.064c-0.123,0-0.217,0.003-0.282,0.008
		C142.188,234.533,142.062,234.553,141.872,234.584"/>
	<path fill="#FFCD05" d="M158.379,234.487l-3.343-7.842c0.134,0.022,0.262,0.038,0.383,0.049c0.121,0.011,0.257,0.016,0.408,0.016
		c0.124,0,0.263-0.008,0.416-0.023c0.153-0.016,0.28-0.03,0.383-0.041c0.329,1.04,0.681,2.035,1.055,2.988
		c0.373,0.953,0.836,2.009,1.393,3.166c0.35-0.726,0.77-1.706,1.263-2.936c0.493-1.23,0.898-2.303,1.215-3.218
		c0.087,0.022,0.175,0.038,0.263,0.049c0.088,0.011,0.189,0.016,0.304,0.016c0.085,0,0.26-0.02,0.525-0.065
		c-1.137,2.525-1.763,3.921-1.883,4.184c-0.884,1.944-1.481,3.274-1.793,3.989c-0.673,1.535-1.233,2.867-1.679,3.998
		c-0.102-0.022-0.195-0.038-0.279-0.049c-0.083-0.011-0.18-0.016-0.287-0.016c-0.156,0-0.273,0.005-0.347,0.016
		c-0.102,0.033-0.175,0.049-0.219,0.049L158.379,234.487z M157.37,225.289h-0.435c0.09-0.441,0.279-0.816,0.564-1.122
		c0.285-0.307,0.616-0.46,0.992-0.46c0.18,0,0.299,0.01,0.364,0.032l0.695,0.364c0.189,0.107,0.378,0.197,0.566,0.266
		c0.043,0.011,0.107,0.03,0.191,0.057c0.084,0.027,0.14,0.039,0.173,0.039c0.096,0,0.195-0.028,0.295-0.085
		c0.099-0.055,0.176-0.124,0.235-0.205c0.057-0.08,0.11-0.18,0.165-0.295c0.054-0.117,0.096-0.21,0.129-0.279h0.395
		c-0.087,0.463-0.257,0.851-0.509,1.163c-0.285,0.351-0.633,0.524-1.041,0.524c-0.167,0-0.287-0.009-0.359-0.031
		c-0.074-0.022-0.307-0.132-0.699-0.331c-0.21-0.108-0.367-0.186-0.469-0.235c-0.183-0.087-0.336-0.129-0.46-0.129l-0.331,0.065
		c-0.107,0.043-0.202,0.129-0.287,0.258C157.459,225.015,157.403,225.15,157.37,225.289"/>
	<path fill-rule="evenodd" clip-rule="evenodd" fill="#FFCD05" d="M35.272,206.163c1.643,0,2.975,1.332,2.975,2.975
		c0,1.643-1.332,2.975-2.975,2.975c-1.643,0-2.975-1.332-2.975-2.975C32.296,207.495,33.629,206.163,35.272,206.163"/>
	<path fill-rule="evenodd" clip-rule="evenodd" fill="#FFCD05" d="M42.24,181.565v-1.192h11.514v1.192
		c-1.573,0.164-2.356,0.942-2.356,2.319c0,0.614-0.038,1.62-0.111,3.012c-0.078,1.392-0.116,3.469-0.116,6.23
		c4.251,0.394,8.241,0.341,12.493,0v-3.846c0-0.599-0.026-1.499-0.078-2.699c-0.053-1.199-0.071-2.097-0.071-2.698
		c0-1.377-0.843-2.155-2.514-2.319v-1.192h11.514v1.192c-1.696,0.164-2.545,0.942-2.545,2.319c0,1.385-0.026,3.456-0.085,6.21
		c-0.058,2.762-0.085,4.823-0.085,6.194v10.621c0,1.377,0.906,2.155,2.715,2.319v1.192H61.416v-1.192
		c1.626-0.164,2.434-0.942,2.434-2.319v-4.919l-0.188-5.959c-4.244-0.34-8.217-0.391-12.461,0c0,0.556-0.032,1.47-0.091,2.741
		c-0.052,1.213-0.078,2.126-0.078,2.74v5.396c0,1.377,0.908,2.155,2.721,2.319v1.192H42.658v-1.192
		c1.618-0.164,2.428-0.942,2.428-2.319v-8.593c0-1.607-0.033-4.012-0.091-7.217c-0.065-3.204-0.098-5.609-0.098-7.215
		C44.896,182.507,44.009,181.729,42.24,181.565"/>
	<path fill-rule="evenodd" clip-rule="evenodd" fill="#FFCD05" d="M22.783,209.127c0.448-0.259,0.873-0.546,1.267-0.864
		c1.478-1.187,2.825-2.768,3.563-3.947c1.729-2.748,2.597-5.723,2.597-8.927c0-4.633-1.442-8.386-4.321-11.269
		c-2.793-2.79-6.33-4.183-10.613-4.183c-4.269,0-7.8,1.393-10.594,4.183c-2.879,2.883-4.321,6.636-4.321,11.269
		c0,4.274,1.259,7.844,3.785,10.704c1.441,1.63,3.138,2.851,5.095,3.663c2.298,0.955,5.108,1.342,7.815,1.089
		c3.74,2.854,7.547,2.962,12.092,2.592v-1.898C27.406,211.635,24.964,210.628,22.783,209.127 M18.421,203.38
		c-2.359,0.315-3.584,0.478-5.943,0.791c0.614,1.652,1.79,3.856,3.129,5.3c-1.057,0.021-2.354-0.144-3.313-0.63
		c-3.252-1.57-4.876-6.054-4.876-13.452c0-9.385,2.617-14.074,7.858-14.074c5.253,0,7.878,4.689,7.878,14.074
		c0,5.576-0.926,9.496-2.777,11.762C19.201,205.991,18.809,204.589,18.421,203.38"/>
	<path fill-rule="evenodd" clip-rule="evenodd" fill="#FFCD05" d="M99.287,184.121c-2.793-2.792-6.332-4.183-10.613-4.183
		c-4.269,0-7.8,1.392-10.593,4.183c-2.879,2.881-4.321,6.644-4.321,11.269c0,4.638,1.442,8.406,4.321,11.29
		c2.793,2.79,6.324,4.182,10.593,4.182c4.281,0,7.82-1.392,10.613-4.182c2.879-2.884,4.322-6.652,4.322-11.29
		C103.609,190.765,102.166,187.002,99.287,184.121 M88.675,209.484c-5.24,0-7.858-4.696-7.858-14.094
		c0-9.385,2.618-14.074,7.858-14.074c5.255,0,7.878,4.689,7.878,14.074C96.553,204.788,93.929,209.484,88.675,209.484"/>
	<path fill-rule="evenodd" clip-rule="evenodd" fill="#FFCD05" d="M131.579,179.937h1.208l3.25,24.586
		c0.254,1.899,0.619,3.148,1.109,3.762c0.378,0.492,1.083,0.806,2.102,0.942v1.192h-10.959v-1.192
		c0.816-0.136,1.359-0.458,1.626-0.963c0.196-0.357,0.286-1.007,0.286-1.942c0-0.349-0.103-1.392-0.319-3.133l-1.326-11.084h-0.071
		l-8.147,18.063h-0.86l-8.036-17.729h-0.078l-1.41,10.784c-0.183,1.413-0.267,2.426-0.267,3.055c0,1.02,0.196,1.734,0.587,2.155
		c0.345,0.357,0.999,0.629,1.951,0.793v1.192h-7.8v-1.192c0.979-0.086,1.644-0.379,1.991-0.879c0.306-0.442,0.606-1.678,0.914-3.696
		l3.772-24.715h1.045l9.836,21.661L131.579,179.937z"/>
	<path fill-rule="evenodd" clip-rule="evenodd" fill="#FFCD05" d="M151.302,208.206c0.934,0.164,2.089,0.25,3.479,0.25
		c1.887,0,3.322-0.244,4.308-0.736c1.208-0.614,2.167-1.77,2.865-3.469l1.684,0.65l-1.299,5.96
		c-3.76-0.464-10.299-0.693-19.621-0.693v-0.941c1.742-0.165,2.618-1.543,2.618-4.118v-8.258c0-1.441-0.026-3.597-0.071-6.487
		c-0.053-2.884-0.079-5.047-0.079-6.481c0-1.184-0.796-2.042-2.389-2.569v-0.942c0.98,0,2.454,0.04,4.413,0.122
		c1.965,0.082,3.44,0.16,4.419,0.128l7.689-0.25c1.416-0.045,2.57,0.021,3.459-0.435c-0.089,2.438-0.082,4.468,0,6.894h-1.717
		c-0.534-1.642-1.181-2.733-1.931-3.261c-0.946-0.658-2.69-0.986-5.242-0.986h-2.16c0,0.778-0.053,2.02-0.149,3.726
		c-0.106,1.648-0.159,2.884-0.159,3.727v3.911h4.491c2.069,0,3.264-0.971,3.577-2.912h1.724c-0.082,2.946-0.086,5.356,0,8.299
		h-1.893c-0.144-1.199-0.443-2.012-0.908-2.439c-0.47-0.435-1.259-0.651-2.383-0.651h-4.646c0,0.63-0.015,1.578-0.04,2.856
		c-0.026,1.276-0.04,2.233-0.04,2.876V208.206z"/>
	<path fill-rule="evenodd" clip-rule="evenodd" fill="#FFCD05" d="M123.188,101.039c0.214-0.61,0.499-1.185,0.733-1.786
		c2.162-5.595,3.254-11.593,3.254-17.589c0-5.996-1.093-11.992-3.254-17.587c-2.168-5.607-5.399-10.798-9.499-15.194
		c-4.11-4.409-9.095-8.009-14.604-10.465c-5.523-2.463-11.569-3.747-17.615-3.754c-6.049-0.008-12.101,1.261-17.634,3.708
		c-5.523,2.448-10.524,6.039-14.654,10.443c-4.121,4.396-7.375,9.594-9.562,15.207c-2.184,5.607-3.313,11.625-3.313,17.641
		c0,6.018,1.128,12.034,3.313,17.642c2.187,5.613,5.441,10.81,9.562,15.206c4.13,4.407,9.131,7.998,14.654,10.443
		c5.533,2.45,11.585,3.718,17.634,3.709c6.046-0.008,12.092-1.29,17.615-3.753c5.509-2.457,10.494-6.057,14.604-10.466
		c2.789-2.99,5.083-6.402,7.096-9.949c0.587-1.032,1.134-2.091,1.58-3.193C123.132,101.216,123.157,101.126,123.188,101.039
		 M99.731,108.947c-1.337-1.191-2.602-2.425-3.825-3.733c-1.328,1.822-2.942,3.511-4.74,4.862
		c-3.511,2.631-7.685,3.924-11.978,2.453c-3.927-1.347-7.038-5.009-6.395-9.329c0.402-2.708,2.313-5.044,4.669-6.347
		c2.572-1.424,5.633-1.806,8.508-1.279c3.064,0.562,5.89,2.123,8.305,4.048c1.291,1.027,2.5,2.155,3.63,3.355
		c2.241,2.384,7.86,8.474,11.171,8.668l0.83,0.05l-0.595,0.578c-3.371,3.273-7.311,5.966-11.608,7.867
		c-4.866,2.154-10.179,3.266-15.5,3.259c-5.316-0.007-10.622-1.134-15.478-3.3c-4.864-2.169-9.265-5.354-12.895-9.247
		c-3.641-3.905-6.512-8.522-8.434-13.5c-1.929-4.99-2.901-10.339-2.901-15.686c0-5.346,0.972-10.695,2.901-15.685
		c1.922-4.979,4.793-9.595,8.434-13.5c3.63-3.894,8.03-7.079,12.895-9.25c4.857-2.164,10.164-3.29,15.478-3.297
		c5.321-0.009,10.634,1.105,15.5,3.257c4.878,2.158,9.296,5.336,12.942,9.228c3.662,3.905,6.554,8.528,8.497,13.514
		c1.949,5.002,2.955,10.367,2.955,15.734c0,5.367-1.007,10.733-2.955,15.735c-0.8,2.056-1.713,4.081-3.171,5.766
		c-1.013,1.172-2.281,1.964-3.848,2.089c-1.152,0.093-2.301-0.194-3.354-0.648c-1.121-0.483-2.176-1.167-3.142-1.912
		c-1.345-1.033-2.582-2.229-3.741-3.466c-1.308-1.394-2.711-2.701-4.204-3.894c-1.54-1.228-3.194-2.319-4.957-3.2
		c-1.82-0.909-3.762-1.587-5.765-1.958c-4.11-0.758-8.522-0.179-12.184,1.878c-1.889,1.061-3.575,2.485-4.864,4.228
		c-1.324,1.79-2.233,3.9-2.569,6.103c-0.337,2.231-0.087,4.564,0.751,6.661c0.818,2.045,2.125,3.88,3.756,5.358
		c0.974,0.88,2.053,1.637,3.209,2.256c2.133,1.144,4.468,1.868,6.897,1.917c3.706,0.073,7.267-1.037,10.423-2.938
		C95.209,113.936,97.742,111.592,99.731,108.947 M105.347,98.615c1.009-2.777,1.749-5.6,2.262-8.514
		c0.528-3.006,0.802-5.996,0.741-9.048c-0.192-9.327-2.077-17.458-7.115-25.39c-4.212-6.632-10.897-11.742-19.033-11.742
		c-8.135,0-14.836,5.151-19.054,11.778c-5.005,7.862-7.082,16.071-7.092,25.347c-0.008,10.206,2.707,20.376,9.091,28.484
		c-0.024-0.066-0.048-0.133-0.071-0.2c-1.159-3.424-1.396-6.931-0.115-10.348c-1.209-2.926-2.134-5.924-2.713-9.04
		c-0.546-2.941-0.775-5.907-0.775-8.897c0-3.585,0.41-7.092,1.212-10.588c0.828-3.606,2.077-6.965,3.892-10.199
		c3.209-5.712,8.69-10.898,15.627-10.925c6.984-0.026,12.421,5.217,15.641,10.95c1.77,3.151,2.995,6.43,3.825,9.943
		c0.843,3.573,1.286,7.146,1.266,10.819c-0.013,2.474-0.152,4.932-0.515,7.381c-0.3,2.023-0.749,4.006-1.318,5.968
		c0.811,0.696,1.572,1.434,2.319,2.199C104.07,97.26,104.697,97.948,105.347,98.615"/>
	<path fill-rule="evenodd" clip-rule="evenodd" fill="#FFCD05" d="M149.893,122.325l-11.742,11.741
		c-0.635,0.668-1.692,0.694-2.359,0.057c-0.011-0.008-0.025-0.023-0.036-0.033l-10.774-10.775l-0.192-0.193
		c-0.55-0.557-0.546-1.455,0.011-2.006c0.057-0.057,0.126-0.112,0.193-0.16l7.776-5.39l-4.446,6.36l8.604,8.606L147.456,120
		c0.656-0.646,1.713-0.671,2.38-0.036C150.504,120.601,150.528,121.658,149.893,122.325 M122.771,149.448l11.741-11.742
		c0.668-0.636,0.692-1.692,0.057-2.359c-0.011-0.011-0.024-0.026-0.034-0.035l-10.773-10.777l-0.194-0.191
		c-0.557-0.552-1.454-0.549-2.006,0.009c-0.057,0.057-0.111,0.126-0.161,0.193l-5.387,7.776l6.358-4.446l8.606,8.606l-10.529,10.529
		c-0.647,0.656-0.673,1.713-0.036,2.379C121.048,150.059,122.103,150.085,122.771,149.448 M14.323,122.325l11.742,11.741
		c0.635,0.668,1.692,0.694,2.359,0.057c0.011-0.008,0.025-0.023,0.036-0.033l10.774-10.775l0.192-0.193
		c0.552-0.557,0.546-1.455-0.011-2.006c-0.057-0.057-0.126-0.112-0.193-0.16l-7.776-5.39l4.446,6.36l-8.606,8.606L16.759,120
		c-0.655-0.646-1.712-0.671-2.379-0.036C13.713,120.601,13.688,121.658,14.323,122.325 M82.108,142.908H68.775
		c-0.008,0.188-0.021,0.375-0.042,0.562c-0.22,2.044-1.221,3.88-2.821,5.17c-1.599,1.29-3.605,1.876-5.65,1.662
		c-1.666-0.179-3.162-0.995-4.214-2.301c-1.053-1.303-1.533-2.939-1.356-4.606c0.098-0.916,0.919-1.58,1.836-1.482
		c0.917,0.099,1.581,0.921,1.483,1.838c-0.083,0.78,0.142,1.545,0.634,2.155c0.492,0.611,1.192,0.995,1.971,1.078
		c1.163,0.123,2.295-0.213,3.202-0.942c0.906-0.729,1.474-1.77,1.597-2.928c0.361-3.361-2.082-6.394-5.445-6.752
		c-2.22-0.239-4.399,0.404-6.136,1.803c-1.737,1.401-2.825,3.396-3.063,5.615c-0.045,0.423-0.065,0.874-0.058,1.343
		c0,0.029,0,0.058-0.001,0.086c0.054,2.504-0.466,4.99-1.495,7.254l3.167,3.166c2.417,2.053,5.505,3.179,8.746,3.179
		c0,0,10.512,0,21.007-0.029c10.496,0.029,20.949,0.029,20.949,0.029c3.243,0,6.328-1.126,8.747-3.179l3.164-3.166
		c-1.028-2.263-1.548-4.749-1.494-7.254c-0.001-0.028-0.001-0.057-0.001-0.086c0.008-0.468-0.013-0.92-0.058-1.343
		c-0.239-2.219-1.327-4.214-3.064-5.615c-1.736-1.399-3.915-2.043-6.135-1.803c-3.363,0.359-5.805,3.391-5.445,6.752
		c0.124,1.158,0.692,2.199,1.598,2.928c0.905,0.729,2.039,1.065,3.2,0.942c0.778-0.083,1.479-0.467,1.973-1.078
		c0.492-0.61,0.717-1.375,0.632-2.155c-0.099-0.917,0.566-1.739,1.482-1.838c0.918-0.098,1.738,0.566,1.836,1.482
		c0.179,1.667-0.303,3.303-1.353,4.606c-1.053,1.306-2.551,2.122-4.215,2.301c-2.044,0.214-4.051-0.372-5.65-1.662
		c-1.599-1.29-2.6-3.126-2.821-5.17c-0.02-0.188-0.034-0.374-0.044-0.562H82.108z M41.445,149.448l-11.741-11.742
		c-0.668-0.636-0.692-1.692-0.057-2.359c0.009-0.011,0.025-0.026,0.034-0.035l10.774-10.777l0.193-0.191
		c0.556-0.552,1.454-0.549,2.006,0.009c0.057,0.057,0.112,0.126,0.16,0.193l5.388,7.776l-6.358-4.446l-8.606,8.606l10.528,10.529
		c0.647,0.656,0.673,1.713,0.038,2.379C43.168,150.059,42.111,150.085,41.445,149.448 M144.69,81.664v13.625
		c1.515,0.431,2.856,1.316,3.864,2.568c1.29,1.599,1.88,3.606,1.66,5.65c-0.179,1.663-0.995,3.161-2.301,4.214
		c-1.306,1.053-2.942,1.533-4.604,1.356c-0.917-0.099-1.58-0.921-1.482-1.837c0.099-0.915,0.921-1.58,1.838-1.48
		c0.778,0.082,1.543-0.143,2.154-0.636c0.611-0.494,0.994-1.193,1.077-1.972c0.124-1.158-0.209-2.293-0.939-3.199
		c-0.73-0.908-1.771-1.474-2.928-1.598c-3.368-0.36-6.392,2.084-6.752,5.447c-0.239,2.219,0.402,4.397,1.803,6.134
		c1.401,1.738,3.395,2.826,5.613,3.063c0.558,0.059,1.138,0.075,1.717,0.049c0.07-0.003,0.14-0.003,0.209,0.003
		c0.84-0.013,1.685,0.038,2.522,0.15l0.004,0.003c0.009,0,0.017,0.001,0.024,0.003c0.201,0.026,0.397,0.057,0.587,0.089
		c0.116,0.021,0.233,0.041,0.352,0.065c0.128,0.023,0.257,0.049,0.382,0.076c0.108,0.024,0.22,0.049,0.331,0.075
		c0.198,0.046,0.393,0.095,0.581,0.146c0.011,0.003,0.038,0.01,0.049,0.016c0.374,0.1,0.743,0.214,1.097,0.338
		c0.065,0.023,0.124,0.048,0.183,0.077c0.396,0.144,0.783,0.304,1.164,0.478l3.178-3.178c2.053-2.419,3.18-5.506,3.18-8.747
		c0,0,0-10.454-0.032-20.95c0.032-10.496,0.032-20.995,0.032-20.995c0-3.242-1.127-6.33-3.18-8.75l-3.178-3.178 M149.893,41.005
		l-11.742-11.742c-0.635-0.667-1.692-0.692-2.359-0.057c-0.011,0.009-0.025,0.025-0.036,0.033l-10.774,10.777l-0.192,0.193
		c-0.55,0.556-0.546,1.454,0.011,2.004c0.057,0.057,0.126,0.113,0.193,0.163l7.776,5.387l-4.446-6.359l8.604-8.606l10.528,10.531
		c0.656,0.647,1.713,0.672,2.38,0.037C150.504,42.73,150.528,41.672,149.893,41.005 M144.69,81.664V68.039
		c1.515-0.432,2.856-1.316,3.864-2.568c1.29-1.599,1.88-3.605,1.66-5.649c-0.179-1.664-0.995-3.162-2.301-4.213
		c-1.306-1.053-2.942-1.534-4.604-1.356c-0.917,0.098-1.58,0.921-1.482,1.837c0.099,0.917,0.921,1.58,1.838,1.479
		c0.778-0.082,1.543,0.144,2.154,0.636c0.611,0.494,0.994,1.195,1.077,1.972c0.124,1.158-0.209,2.293-0.939,3.2
		c-0.73,0.905-1.771,1.472-2.928,1.596c-3.368,0.36-6.392-2.084-6.752-5.445c-0.239-2.219,0.402-4.397,1.803-6.134
		c1.401-1.737,3.395-2.826,5.613-3.063c0.558-0.061,1.138-0.077,1.717-0.05c0.07,0.005,0.14,0.003,0.209-0.003
		c0.84,0.015,1.685-0.038,2.522-0.15l0.004-0.001c0.009,0,0.017-0.001,0.024-0.004c0.201-0.025,0.397-0.056,0.587-0.089
		c0.116-0.021,0.233-0.041,0.352-0.062c0.128-0.025,0.257-0.052,0.382-0.078c0.108-0.024,0.22-0.048,0.331-0.074
		c0.198-0.048,0.393-0.095,0.581-0.146c0.011-0.003,0.038-0.012,0.049-0.015c0.374-0.102,0.743-0.217,1.097-0.341
		c0.065-0.021,0.124-0.046,0.183-0.075c0.396-0.146,0.783-0.304,1.164-0.479 M122.771,13.88l11.741,11.743
		c0.668,0.636,0.692,1.693,0.057,2.361c-0.011,0.008-0.024,0.024-0.034,0.033l-10.773,10.775l-0.194,0.192
		c-0.557,0.552-1.454,0.548-2.006-0.011c-0.057-0.057-0.111-0.123-0.161-0.193l-5.387-7.776l6.358,4.448l8.606-8.606l-10.529-10.529
		c-0.647-0.656-0.673-1.713-0.036-2.38C121.048,13.27,122.103,13.244,122.771,13.88 M155.89,47c0.041-0.03,0.083-0.061,0.126-0.094
		c4.088-3.089,6.531-8.074,6.531-13.338V2.882c0-0.922-0.749-1.67-1.671-1.67h-30.683c-5.263,0-10.249,2.442-13.338,6.531
		c-0.03,0.041-0.062,0.083-0.094,0.127l-2.279-2.281c-0.022-0.023,0,0,0,0c-3.082-2.815-7.158-4.407-11.396-4.407
		c0,0-10.513,0.029-21.007,0.029c-10.495,0-20.949-0.029-20.949-0.029c-4.236,0-8.27,1.549-11.351,4.364
		c-0.024,0.02-0.024,0.02-0.045,0.042l-2.281,2.281c-0.029-0.044-0.061-0.086-0.093-0.127c-3.089-4.089-8.074-6.531-13.338-6.531
		H3.339c-0.921,0-1.667,0.748-1.667,1.67v30.686c0,5.264,2.44,10.249,6.529,13.338c0.042,0.033,0.079,0.059,0.12,0.091l-2.287,2.298
		c-0.022,0.021,0.023-0.024,0,0c-2.815,3.083-4.407,7.16-4.407,11.397c0,0,0.029,10.454,0.029,20.949
		c0,10.495-0.029,20.996-0.029,20.996c0,4.238,1.55,8.268,4.364,11.352c0.021,0.023,0.02,0.023,0.042,0.045l2.294,2.293
		c-0.042,0.03-0.085,0.063-0.127,0.094c-4.089,3.089-6.529,8.075-6.529,13.338v30.688c0,0.92,0.746,1.668,1.667,1.668h30.684
		c5.264,0,10.249-2.442,13.338-6.533c0.032-0.041,0.064-0.083,0.093-0.124l2.326,2.322c0.022,0.022-0.024-0.021,0,0
		c3.081,2.814,7.115,4.364,11.351,4.364c0,0,10.512-0.029,21.007-0.029c10.496,0,20.949,0.029,20.949,0.029
		c4.237,0,8.303-1.582,11.385-4.396c0.024-0.022-0.012,0.012,0.011-0.012l2.279-2.278c0.032,0.041,0.063,0.083,0.094,0.124
		c3.089,4.091,8.075,6.533,13.338,6.533h30.683c0.922,0,1.671-0.749,1.671-1.668v-30.688c0-5.263-2.443-10.249-6.531-13.338
		c-0.042-0.03-0.085-0.063-0.126-0.094l2.293-2.293c0.022-0.022,0.02-0.022,0.042-0.045c2.814-3.084,4.363-7.115,4.363-11.352
		c0,0-0.029-10.502-0.029-20.996c0-10.495,0.029-20.949,0.029-20.949c0-4.237-1.581-8.304-4.395-11.388
		c-0.021-0.023-0.011-0.011-0.032-0.033L155.89,47z M14.323,41.005l11.742-11.742c0.635-0.667,1.692-0.692,2.359-0.057
		c0.011,0.009,0.025,0.025,0.036,0.033l10.774,10.777l0.192,0.193c0.552,0.556,0.546,1.454-0.011,2.004
		c-0.057,0.057-0.126,0.113-0.193,0.163l-7.776,5.387l4.446-6.359l-8.606-8.606L16.759,43.327c-0.655,0.647-1.712,0.672-2.379,0.037
		C13.713,42.73,13.688,41.672,14.323,41.005 M11.321,114.563c0.381-0.173,0.769-0.334,1.163-0.478
		c0.06-0.029,0.12-0.054,0.184-0.077c0.352-0.124,0.722-0.238,1.097-0.338c0.011-0.005,0.038-0.013,0.05-0.016
		c0.185-0.05,0.38-0.099,0.579-0.146c0.111-0.026,0.224-0.052,0.331-0.075c0.126-0.026,0.254-0.053,0.384-0.076
		c0.116-0.024,0.234-0.044,0.351-0.065c0.192-0.032,0.386-0.062,0.587-0.089c0.007-0.001,0.016-0.003,0.023-0.003
		c0.001,0,0.003-0.003,0.005-0.003c0.836-0.111,1.683-0.163,2.522-0.15c0.068-0.005,0.138-0.005,0.209-0.003
		c0.579,0.026,1.159,0.01,1.717-0.049c2.219-0.237,4.214-1.324,5.613-3.063c1.402-1.737,2.041-3.916,1.805-6.134
		c-0.361-3.363-3.387-5.807-6.754-5.447c-1.156,0.124-2.196,0.691-2.928,1.598c-0.73,0.906-1.064,2.041-0.939,3.199
		c0.083,0.778,0.466,1.478,1.077,1.972c0.613,0.493,1.376,0.718,2.154,0.636c0.917-0.099,1.738,0.565,1.838,1.48
		c0.098,0.917-0.566,1.738-1.482,1.837c-1.663,0.177-3.298-0.303-4.604-1.356c-1.304-1.053-2.123-2.551-2.302-4.214
		c-0.22-2.044,0.37-4.051,1.662-5.65c1.008-1.252,2.35-2.137,3.864-2.568v-13.47v-13.78c-1.515-0.432-2.856-1.316-3.864-2.568
		c-1.291-1.599-1.881-3.605-1.662-5.649c0.179-1.664,0.997-3.162,2.302-4.213c1.306-1.053,2.941-1.534,4.604-1.356
		c0.916,0.098,1.58,0.921,1.482,1.837c-0.099,0.917-0.921,1.58-1.838,1.479c-0.778-0.082-1.541,0.144-2.154,0.636
		c-0.611,0.494-0.994,1.195-1.077,1.972c-0.124,1.158,0.209,2.293,0.939,3.2c0.732,0.905,1.771,1.472,2.928,1.596
		c3.367,0.36,6.392-2.084,6.754-5.445c0.237-2.219-0.402-4.397-1.805-6.134c-1.4-1.737-3.395-2.826-5.613-3.063
		c-0.558-0.061-1.138-0.077-1.717-0.05c-0.071,0.005-0.142,0.003-0.209-0.003c-0.839,0.015-1.685-0.038-2.522-0.15
		c-0.003,0-0.004-0.001-0.005-0.001c-0.007,0-0.016-0.001-0.023-0.004c-0.201-0.025-0.396-0.056-0.587-0.089
		c-0.116-0.021-0.234-0.041-0.351-0.062c-0.13-0.025-0.258-0.052-0.384-0.078c-0.107-0.024-0.22-0.048-0.331-0.074
		c-0.2-0.048-0.394-0.095-0.579-0.146c-0.012-0.003-0.04-0.012-0.05-0.015c-0.374-0.102-0.745-0.217-1.097-0.341
		c-0.064-0.021-0.124-0.046-0.184-0.075c-0.394-0.146-0.782-0.304-1.163-0.479l-3.28,3.299c-2.052,2.417-3.077,5.386-3.077,8.628
		c0,0,0,10.499,0.029,20.995c-0.029,10.496-0.029,20.95-0.029,20.95c0,3.241,1.126,6.329,3.179,8.747L11.321,114.563z
		 M68.775,20.419h26.664c0.009-0.185,0.024-0.374,0.044-0.561c0.221-2.045,1.221-3.881,2.821-5.17
		c1.599-1.29,3.606-1.876,5.65-1.661c1.664,0.177,3.162,0.995,4.215,2.299c1.05,1.306,1.532,2.941,1.353,4.607
		c-0.098,0.915-0.918,1.581-1.836,1.482c-0.915-0.098-1.581-0.92-1.482-1.836c0.085-0.782-0.14-1.546-0.632-2.157
		c-0.493-0.611-1.195-0.993-1.973-1.076c-1.162-0.124-2.295,0.211-3.2,0.94c-0.906,0.73-1.474,1.77-1.598,2.928
		c-0.36,3.364,2.082,6.394,5.445,6.754c2.22,0.238,4.399-0.405,6.135-1.805c1.737-1.401,2.824-3.393,3.064-5.613
		c0.045-0.423,0.066-0.875,0.058-1.343c0-0.029,0-0.057,0.001-0.086c-0.054-2.504,0.466-4.99,1.494-7.254l-3.164-3.167
		c-2.42-2.053-5.505-3.178-8.747-3.178c0,0-10.513,0-21.007,0.029C71.584,4.521,61.13,4.521,61.13,4.521
		c-3.241,0-6.329,1.125-8.746,3.178l-3.167,3.167c1.029,2.263,1.549,4.749,1.495,7.254c0.001,0.029,0.001,0.057,0.001,0.086
		c-0.007,0.468,0.013,0.92,0.058,1.343c0.238,2.22,1.326,4.212,3.063,5.613c1.737,1.4,3.916,2.043,6.136,1.805
		c3.363-0.36,5.806-3.389,5.445-6.754c-0.123-1.158-0.691-2.197-1.597-2.928c-0.906-0.729-2.039-1.064-3.202-0.94
		c-0.779,0.082-1.479,0.464-1.971,1.076c-0.492,0.61-0.717,1.375-0.634,2.157c0.098,0.917-0.566,1.738-1.483,1.836
		c-0.917,0.099-1.738-0.566-1.836-1.482c-0.177-1.666,0.303-3.301,1.356-4.607c1.052-1.304,2.548-2.122,4.214-2.299
		c2.045-0.214,4.051,0.372,5.65,1.661c1.599,1.289,2.601,3.125,2.821,5.17C68.754,20.045,68.767,20.234,68.775,20.419
		 M22.864,81.664V68.292c4.329-0.472,7.911-3.906,8.393-8.407c0.335-3.106-0.562-6.154-2.523-8.586
		c-1.961-2.43-4.751-3.954-7.856-4.286c-0.673-0.071-1.364-0.097-2.057-0.071c-0.046-0.003-0.093-0.005-0.138-0.002
		c-0.72,0.019-1.45-0.022-2.174-0.119c-0.005-0.001-0.013-0.001-0.02-0.003h-0.005c-0.16-0.023-0.316-0.048-0.472-0.073
		c-0.093-0.016-0.185-0.033-0.28-0.051c-0.106-0.019-0.208-0.041-0.314-0.064c-0.086-0.018-0.172-0.037-0.261-0.058
		c-0.165-0.038-0.323-0.079-0.462-0.115c-0.008-0.003-0.04-0.012-0.049-0.015c-0.242-0.066-0.483-0.138-0.712-0.215
		c-0.049-0.021-0.098-0.042-0.148-0.06c-1.286-0.456-2.491-1.103-3.575-1.923c-3.26-2.461-5.204-6.453-5.204-10.675V4.551h29.015
		c4.223,0,8.213,1.946,10.674,5.204c1.835,2.429,2.761,5.32,2.675,8.406c0,0.021,0.003,0.059,0.004,0.089
		c-0.005,0.57,0.023,1.126,0.078,1.655c0.332,3.105,1.856,5.895,4.286,7.856c2.432,1.961,5.484,2.857,8.585,2.524
		c3.838-0.411,6.898-3.071,8.009-6.528h13.775h13.773c1.113,3.457,4.173,6.116,8.009,6.528c3.104,0.333,6.156-0.564,8.585-2.524
		c2.433-1.961,3.954-4.751,4.286-7.856c0.057-0.529,0.083-1.085,0.081-1.655c0-0.029,0.001-0.068,0.001-0.089
		c-0.083-3.086,0.841-5.977,2.675-8.406c2.461-3.258,6.453-5.204,10.675-5.204h29.016v29.017c0,4.222-1.946,8.214-5.206,10.675
		c-1.085,0.82-2.287,1.467-3.575,1.923c-0.052,0.017-0.099,0.038-0.148,0.06c-0.229,0.078-0.468,0.15-0.713,0.215
		c-0.007,0.003-0.038,0.012-0.048,0.015c-0.138,0.036-0.298,0.077-0.463,0.115c-0.087,0.021-0.173,0.04-0.261,0.058
		c-0.105,0.023-0.206,0.045-0.312,0.064c-0.095,0.018-0.187,0.036-0.279,0.051c-0.157,0.025-0.314,0.05-0.475,0.073h-0.004
		c-0.007,0.001-0.013,0.001-0.021,0.003c-0.722,0.097-1.454,0.138-2.172,0.119c-0.045-0.004-0.091-0.001-0.138,0.002
		c-0.693-0.025-1.384,0-2.057,0.071c-3.105,0.332-5.895,1.856-7.854,4.286c-1.962,2.431-2.858,5.479-2.525,8.586
		c0.484,4.502,4.065,7.935,8.394,8.407v13.372v13.374c-4.329,0.471-7.91,3.905-8.394,8.406c-0.332,3.106,0.564,6.157,2.525,8.586
		c1.959,2.431,4.749,3.954,7.854,4.286c0.673,0.071,1.364,0.097,2.057,0.071c0.046,0.004,0.093,0.005,0.138,0.004
		c0.718-0.021,1.45,0.021,2.172,0.117c0.008,0.001,0.015,0.004,0.021,0.004c0.001,0,0.003,0.001,0.004,0.001
		c0.161,0.02,0.318,0.046,0.475,0.073c0.093,0.015,0.184,0.032,0.279,0.049c0.106,0.021,0.208,0.042,0.312,0.064
		c0.087,0.018,0.173,0.038,0.261,0.058c0.165,0.038,0.325,0.079,0.463,0.116c0.009,0.003,0.041,0.011,0.048,0.015
		c0.245,0.066,0.484,0.139,0.713,0.214c0.049,0.022,0.097,0.044,0.148,0.061c1.287,0.456,2.49,1.103,3.575,1.922
		c3.26,2.461,5.206,6.453,5.206,10.675v29.019h-29.016c-4.222,0-8.214-1.946-10.675-5.206c-1.834-2.429-2.758-5.318-2.675-8.406
		c0-0.02-0.001-0.058-0.001-0.089c0.003-0.57-0.024-1.126-0.081-1.655c-0.332-3.105-1.853-5.895-4.286-7.856
		c-2.429-1.959-5.481-2.858-8.585-2.524c-3.837,0.411-6.897,3.073-8.009,6.527H82.108H68.334c-1.111-3.454-4.171-6.116-8.009-6.527
		c-3.101-0.334-6.153,0.565-8.585,2.524c-2.43,1.961-3.954,4.75-4.286,7.856c-0.056,0.529-0.083,1.085-0.078,1.655
		c-0.001,0.03-0.004,0.069-0.004,0.089c0.086,3.088-0.84,5.977-2.675,8.406c-2.461,3.26-6.451,5.206-10.674,5.206H5.008v-29.019
		c0-4.221,1.945-8.214,5.204-10.675c1.083-0.819,2.289-1.466,3.575-1.922c0.05-0.017,0.099-0.038,0.148-0.061
		c0.229-0.076,0.47-0.148,0.712-0.214c0.009-0.004,0.041-0.012,0.049-0.015c0.139-0.037,0.296-0.078,0.462-0.116
		c0.089-0.02,0.175-0.04,0.261-0.058c0.106-0.021,0.208-0.043,0.314-0.064c0.095-0.017,0.188-0.035,0.28-0.049
		c0.156-0.026,0.312-0.053,0.472-0.073c0.003,0,0.004-0.001,0.004-0.001c0.008,0,0.016-0.003,0.021-0.004
		c0.724-0.095,1.454-0.138,2.174-0.117c0.045,0.001,0.091,0,0.138-0.004c0.693,0.025,1.384,0,2.057-0.071
		c3.105-0.332,5.895-1.855,7.856-4.286c1.961-2.429,2.858-5.48,2.523-8.586c-0.482-4.501-4.064-7.935-8.393-8.406V81.664z
		 M41.445,13.88L29.704,25.623c-0.668,0.636-0.692,1.693-0.057,2.361c0.009,0.008,0.025,0.024,0.034,0.033l10.774,10.775
		l0.193,0.192c0.556,0.552,1.454,0.548,2.006-0.011c0.057-0.057,0.112-0.123,0.16-0.193l5.388-7.776l-6.358,4.448l-8.606-8.606
		l10.528-10.529c0.647-0.656,0.673-1.713,0.038-2.38C43.168,13.27,42.111,13.244,41.445,13.88"/>
</g>
</svg>
