<?xml version="1.0" encoding="utf-8"?>
<!-- Generator: Adobe Illustrator 17.0.0, SVG Export Plug-In . SVG Version: 6.00 Build 0)  -->
<!DOCTYPE svg PUBLIC "-//W3C//DTD SVG 1.0//EN" "http://www.w3.org/TR/2001/REC-SVG-20010904/DTD/svg10.dtd">
<svg version="1.0" id="Layer_1" xmlns="http://www.w3.org/2000/svg" xmlns:xlink="http://www.w3.org/1999/xlink" x="0px" y="0px"
	 width="140px" height="200px" viewBox="0 0 140 200" enable-background="new 0 0 140 200" xml:space="preserve">
<g>
	<path fill="#DFAD37" d="M19.956,190.511h-0.122c-0.324-0.37-0.718-0.653-1.183-0.848c-0.465-0.195-0.962-0.292-1.49-0.292
		c-1.037,0-1.866,0.326-2.486,0.978c-0.619,0.652-0.928,1.567-0.928,2.743c0,1.197,0.301,2.128,0.905,2.795
		c0.603,0.668,1.486,1.001,2.647,1.001c0.332,0,0.657-0.034,0.978-0.102c0.321-0.067,0.612-0.168,0.875-0.304v-3.032l0.52,0.024
		l0.52-0.024v3.339c-0.52,0.185-1.057,0.327-1.605,0.425c-0.55,0.099-1.089,0.148-1.618,0.148c-1.447,0-2.555-0.399-3.322-1.198
		c-0.709-0.744-1.064-1.751-1.064-3.02c0-1.356,0.438-2.406,1.314-3.154c0.83-0.71,1.933-1.065,3.31-1.065
		c0.613,0,1.183,0.059,1.71,0.176c0.526,0.118,0.967,0.287,1.322,0.507c-0.054,0.128-0.105,0.272-0.154,0.434
		C20.038,190.204,19.994,190.361,19.956,190.511"/>
	<path fill="#DFAD37" d="M23.434,189.515c0,0.158-0.06,0.297-0.179,0.414c-0.12,0.117-0.259,0.176-0.417,0.176
		c-0.166,0-0.309-0.057-0.431-0.17c-0.122-0.114-0.183-0.254-0.183-0.42s0.061-0.31,0.183-0.434
		c0.122-0.123,0.265-0.186,0.431-0.186c0.158,0,0.297,0.061,0.417,0.181C23.374,189.196,23.434,189.343,23.434,189.515
		 M23.312,191.529v5.688l-0.474-0.045c-0.086,0-0.152,0.001-0.2,0.005c-0.049,0.004-0.138,0.018-0.269,0.041v-5.688
		c0.115,0.016,0.198,0.027,0.245,0.035c0.049,0.008,0.123,0.011,0.224,0.011L23.312,191.529z"/>
	<path fill="#DFAD37" d="M29.498,193.451v2.749l-0.024,0.168c0,0.158,0.019,0.273,0.059,0.344c0.038,0.071,0.121,0.106,0.248,0.106
		l0.376-0.074v0.26c-0.1,0.059-0.218,0.098-0.353,0.122l-0.428,0.046c-0.228,0-0.411-0.055-0.55-0.165
		c-0.139-0.109-0.224-0.3-0.254-0.57l-0.094,0.122c-0.509,0.506-1.095,0.758-1.759,0.758c-0.439,0-0.814-0.137-1.122-0.411
		c-0.309-0.273-0.463-0.627-0.463-1.059c0-0.466,0.135-0.829,0.407-1.085c0.272-0.257,0.87-0.464,1.797-0.622
		c0.401-0.066,0.666-0.117,0.792-0.156c0.308-0.105,0.464-0.313,0.464-0.625c0-0.444-0.12-0.788-0.357-1.033
		c-0.237-0.245-0.585-0.368-1.044-0.368c-0.387,0-0.718,0.103-0.996,0.307c-0.22,0.158-0.353,0.332-0.4,0.521h-0.144v-0.66
		c0.308-0.216,0.617-0.38,0.926-0.494c0.309-0.114,0.64-0.171,0.996-0.171C28.857,191.459,29.498,192.123,29.498,193.451
		 M27.496,189.371c0.046-0.046,0.113-0.115,0.2-0.205c0.087-0.091,0.169-0.164,0.246-0.217c0.05-0.024,0.098-0.049,0.145-0.076
		h0.093c0.217,0,0.351,0.079,0.405,0.237v0.144c0,0.097-0.008,0.16-0.024,0.192c-0.096,0.085-0.191,0.171-0.283,0.26l-1.875,1.157
		h-0.398L27.496,189.371z M28.549,195.985v-1.73l-0.428,0.07c-0.702,0.142-1.137,0.254-1.303,0.335
		c-0.474,0.212-0.712,0.552-0.712,1.019c0,0.37,0.102,0.648,0.302,0.832c0.2,0.186,0.488,0.279,0.861,0.279
		c0.166,0,0.338-0.044,0.516-0.131c0.176-0.086,0.319-0.192,0.428-0.315c0.065-0.05,0.138-0.115,0.217-0.194
		C28.509,196.071,28.549,196.016,28.549,195.985"/>
	<path fill="#DFAD37" d="M34.798,190.366l0.949-0.376v1.538h1.255l-0.023,0.261l0.023,0.191h-1.255v2.987l-0.023,0.404
		c0,0.583,0.082,0.99,0.248,1.221c0.142,0.197,0.359,0.295,0.648,0.295c0.105,0,0.205-0.011,0.304-0.034
		c0.099-0.024,0.181-0.044,0.246-0.064v0.29c-0.158,0.061-0.329,0.116-0.513,0.165c-0.183,0.047-0.344,0.072-0.482,0.072
		c-0.467,0-0.809-0.116-1.025-0.348c-0.251-0.267-0.376-0.711-0.376-1.337l0.023-0.191v-3.461h-0.734
		c0.015-0.046,0.023-0.117,0.023-0.213c0-0.112-0.008-0.192-0.023-0.238h0.734V190.366z"/>
	<path fill="#DFAD37" d="M38.3,197.217v-5.688c0.12,0.016,0.202,0.027,0.249,0.035c0.046,0.008,0.121,0.011,0.225,0.011l0.475-0.046
		v1.186l0.046-0.145c0.22-0.332,0.445-0.593,0.676-0.782c0.274-0.219,0.546-0.33,0.817-0.33c0.134,0,0.262,0.024,0.382,0.07
		l-0.168,0.995c-0.189-0.062-0.378-0.126-0.567-0.191c-0.317,0-0.569,0.096-0.759,0.289c-0.185,0.22-0.302,0.431-0.353,0.637
		c-0.05,0.204-0.075,0.498-0.075,0.879v3.078l-0.475-0.046c-0.088,0-0.156,0.002-0.202,0.006
		C38.526,197.181,38.435,197.195,38.3,197.217"/>
	<path fill="#DFAD37" d="M43.109,190.083c-0.143,0-0.27-0.055-0.379-0.166c-0.109-0.109-0.165-0.236-0.165-0.378
		c0-0.143,0.055-0.27,0.165-0.379c0.11-0.111,0.236-0.165,0.379-0.165c0.15,0,0.279,0.053,0.384,0.159
		c0.107,0.106,0.16,0.235,0.16,0.385c0,0.142-0.055,0.269-0.165,0.378C43.378,190.028,43.251,190.083,43.109,190.083
		 M43.109,198.971c-0.143,0-0.27-0.055-0.379-0.166c-0.109-0.109-0.165-0.236-0.165-0.378c0-0.143,0.055-0.269,0.165-0.379
		c0.11-0.109,0.236-0.165,0.379-0.165c0.15,0,0.279,0.053,0.384,0.159c0.107,0.106,0.16,0.235,0.16,0.385
		c0,0.142-0.055,0.269-0.165,0.378C43.378,198.916,43.251,198.971,43.109,198.971 M43.537,191.529v5.688l-0.474-0.045
		c-0.089,0-0.157,0.001-0.203,0.005c-0.046,0.004-0.137,0.018-0.272,0.041v-5.688c0.12,0.016,0.202,0.027,0.249,0.035
		c0.046,0.008,0.121,0.011,0.226,0.011L43.537,191.529z"/>
	<path fill="#DFAD37" d="M53.652,191.957l-0.261,0.781H53.3c-0.012-0.008-0.051-0.059-0.116-0.154
		c-0.065-0.094-0.139-0.178-0.22-0.252c-0.128-0.146-0.298-0.262-0.509-0.346c-0.212-0.085-0.43-0.128-0.654-0.128
		c-0.645,0-1.154,0.251-1.528,0.753c-0.339,0.454-0.509,1.018-0.509,1.689c0,0.768,0.196,1.392,0.588,1.869
		c0.391,0.478,0.914,0.718,1.57,0.718c0.332,0,0.629-0.068,0.892-0.203c0.196-0.104,0.445-0.289,0.746-0.556l0.069,0.024
		l-0.069,0.544c-0.262,0.204-0.545,0.358-0.85,0.462c-0.305,0.105-0.624,0.157-0.956,0.157c-0.964,0-1.718-0.286-2.262-0.857
		c-0.513-0.535-0.77-1.238-0.77-2.105c0-0.903,0.282-1.612,0.848-2.124c0.566-0.513,1.302-0.77,2.208-0.77
		c0.374,0,0.704,0.036,0.992,0.107C53.057,191.638,53.351,191.769,53.652,191.957"/>
	<path fill="#DFAD37" d="M59.428,191.529v5.688l-0.474-0.046c-0.086,0-0.152,0.002-0.201,0.006
		c-0.047,0.005-0.138,0.018-0.269,0.041v-1.041c-0.396,0.76-1.029,1.139-1.898,1.139c-0.656,0-1.145-0.184-1.464-0.552
		c-0.321-0.369-0.48-0.953-0.48-1.751v-3.484c0.119,0.016,0.202,0.027,0.247,0.035c0.047,0.008,0.123,0.011,0.227,0.011l0.474-0.046
		v3.2c0,0.664,0.106,1.162,0.318,1.493c0.212,0.331,0.58,0.497,1.105,0.497c0.544,0,0.937-0.212,1.181-0.637
		c0.193-0.324,0.289-0.752,0.289-1.285v-3.269c0.116,0.016,0.198,0.027,0.246,0.035c0.049,0.008,0.123,0.011,0.224,0.011
		L59.428,191.529z M56.818,190.933v-0.127c0-0.069,0.009-0.154,0.029-0.252c0.019-0.098,0.041-0.168,0.063-0.211l0.474-0.625
		l0.105-0.225c0.038-0.12,0.067-0.244,0.086-0.37c0-0.282-0.191-0.448-0.572-0.498c-0.204,0.034-0.345,0.106-0.422,0.213
		c0.046,0.096,0.077,0.191,0.093,0.285c0,0.119-0.034,0.22-0.102,0.303c-0.068,0.082-0.169,0.132-0.304,0.147
		c-0.115,0-0.22-0.045-0.313-0.136c-0.093-0.09-0.139-0.196-0.139-0.315l0.122-0.319c0.023-0.062,0.071-0.122,0.145-0.179
		c0.061-0.078,0.187-0.152,0.376-0.224c0.19-0.071,0.378-0.107,0.568-0.107c0.142,0,0.242,0.006,0.298,0.018
		c0.055,0.011,0.16,0.043,0.315,0.095c0.155,0.052,0.266,0.125,0.335,0.218c0.19,0.192,0.283,0.422,0.283,0.688
		c0,0.097-0.041,0.213-0.123,0.351c-0.084,0.137-0.191,0.288-0.322,0.454l-0.301,0.226l-0.226,0.156
		c-0.062,0.062-0.098,0.113-0.109,0.154c-0.011,0.041-0.021,0.072-0.029,0.096l-0.011,0.185H56.818z"/>
	<path fill="#DFAD37" d="M65.029,193.451v2.749l-0.024,0.168c0,0.158,0.019,0.273,0.059,0.344c0.038,0.071,0.121,0.106,0.248,0.106
		l0.376-0.074v0.26c-0.1,0.059-0.218,0.098-0.353,0.122l-0.428,0.046c-0.228,0-0.411-0.055-0.55-0.165
		c-0.139-0.109-0.224-0.3-0.254-0.57l-0.094,0.122c-0.509,0.506-1.095,0.758-1.759,0.758c-0.44,0-0.814-0.137-1.123-0.411
		c-0.308-0.273-0.462-0.627-0.462-1.059c0-0.466,0.135-0.829,0.408-1.085c0.272-0.257,0.87-0.464,1.797-0.622
		c0.401-0.066,0.665-0.117,0.792-0.156c0.308-0.105,0.463-0.313,0.463-0.625c0-0.444-0.119-0.788-0.356-1.033
		c-0.238-0.245-0.586-0.368-1.045-0.368c-0.386,0-0.717,0.103-0.995,0.307c-0.22,0.158-0.353,0.332-0.4,0.521h-0.144v-0.66
		c0.308-0.216,0.616-0.38,0.926-0.494c0.308-0.114,0.64-0.171,0.996-0.171C64.388,191.459,65.029,192.123,65.029,193.451
		 M64.08,195.985v-1.73l-0.428,0.07c-0.702,0.142-1.137,0.254-1.303,0.335c-0.474,0.212-0.712,0.552-0.712,1.019
		c0,0.37,0.1,0.648,0.302,0.832c0.2,0.186,0.487,0.279,0.861,0.279c0.166,0,0.338-0.044,0.515-0.131
		c0.177-0.086,0.321-0.192,0.429-0.315c0.065-0.05,0.138-0.115,0.217-0.194C64.041,196.071,64.08,196.016,64.08,195.985"/>
	<path fill="#DFAD37" d="M70.237,196.055h0.093c0.158,0.247,0.358,0.455,0.599,0.624c0.24,0.17,0.492,0.255,0.755,0.255
		c0.316,0,0.589-0.1,0.818-0.301s0.345-0.463,0.345-0.787c0-0.482-0.467-0.858-1.401-1.129c-0.934-0.27-1.401-0.771-1.401-1.504
		c0-0.552,0.184-0.982,0.553-1.291c0.368-0.308,0.832-0.463,1.392-0.463c0.277,0,0.55,0.035,0.815,0.104
		c0.193,0.051,0.365,0.118,0.516,0.203c-0.121,0.286-0.217,0.571-0.29,0.857h-0.093c-0.089-0.216-0.226-0.402-0.411-0.556
		c-0.185-0.155-0.387-0.231-0.607-0.231c-0.317,0-0.573,0.082-0.77,0.248c-0.196,0.166-0.295,0.408-0.295,0.723
		c0,0.474,0.465,0.863,1.397,1.163c0.931,0.301,1.398,0.784,1.398,1.447c0,0.589-0.234,1.065-0.7,1.423
		c-0.418,0.316-0.911,0.474-1.482,0.474c-0.552,0-1.049-0.134-1.492-0.405c0.061-0.189,0.109-0.332,0.143-0.428
		C70.183,196.294,70.222,196.151,70.237,196.055"/>
	<path fill="#DFAD37" d="M79.427,191.79c0.15-0.039,0.255-0.099,0.315-0.182c0.06-0.084,0.09-0.189,0.09-0.316
		c0-0.158-0.032-0.268-0.093-0.33c-0.027-0.038-0.099-0.062-0.218-0.069c-0.117-0.008-0.179-0.026-0.187-0.053v-0.711l0.353,0.052
		h0.787l-0.024,0.185v0.451c0,0.208-0.02,0.388-0.061,0.541c-0.039,0.152-0.124,0.304-0.251,0.455
		c-0.093,0.112-0.194,0.192-0.301,0.239c-0.108,0.048-0.245,0.08-0.411,0.096v5.068l-0.475-0.045c-0.084,0-0.151,0.001-0.199,0.006
		c-0.049,0.003-0.139,0.017-0.27,0.039v-1.041c-0.397,0.76-1.029,1.14-1.898,1.14c-0.656,0-1.145-0.184-1.464-0.553
		c-0.321-0.368-0.481-0.952-0.481-1.751v-3.484c0.12,0.016,0.203,0.027,0.249,0.035c0.046,0.008,0.122,0.011,0.226,0.011
		l0.474-0.046v3.2c0,0.664,0.106,1.162,0.318,1.493c0.212,0.332,0.58,0.498,1.105,0.498c0.544,0,0.938-0.212,1.181-0.637
		c0.193-0.324,0.289-0.753,0.289-1.285v-3.27c0.116,0.016,0.199,0.027,0.246,0.035c0.049,0.008,0.122,0.011,0.222,0.011l0.475-0.046
		V191.79z M77.037,198.971c-0.143,0-0.271-0.055-0.382-0.165c-0.113-0.111-0.168-0.236-0.168-0.379c0-0.142,0.055-0.269,0.168-0.379
		c0.111-0.109,0.238-0.165,0.382-0.165c0.15,0,0.279,0.053,0.385,0.159c0.106,0.106,0.158,0.235,0.158,0.385
		c0,0.143-0.054,0.269-0.165,0.379C77.306,198.916,77.179,198.971,77.037,198.971"/>
	<path fill="#DFAD37" d="M84.449,197.217v-8.912l0.474,0.024l0.475-0.024v4.318c0.204-0.374,0.468-0.661,0.792-0.863
		c0.324-0.2,0.693-0.301,1.105-0.301c0.672,0,1.158,0.194,1.461,0.582c0.304,0.387,0.455,0.967,0.455,1.738v3.437l-0.474-0.046
		c-0.085,0-0.151,0.002-0.2,0.006c-0.049,0.004-0.14,0.018-0.275,0.041v-3.176c0-0.686-0.09-1.176-0.272-1.47
		c-0.204-0.332-0.554-0.498-1.053-0.498c-0.528,0-0.917,0.158-1.166,0.474c-0.248,0.317-0.373,0.792-0.373,1.425v3.245l-0.475-0.046
		c-0.088,0-0.156,0.002-0.202,0.006C84.675,197.181,84.585,197.195,84.449,197.217"/>
	<path fill="#DFAD37" d="M90.612,194.324c0-0.844,0.255-1.533,0.764-2.066c0.509-0.533,1.156-0.798,1.939-0.798
		c0.744,0,1.344,0.264,1.803,0.792c0.456,0.528,0.685,1.229,0.685,2.101c0,0.814-0.226,1.497-0.677,2.048
		c-0.498,0.61-1.165,0.914-2.001,0.914c-0.71,0-1.303-0.244-1.778-0.734c-0.505-0.525-0.757-1.189-0.757-1.991L90.612,194.324z
		 M93.291,191.836c-0.61,0-1.069,0.286-1.377,0.856c-0.251,0.467-0.376,1.068-0.376,1.8c0,0.671,0.125,1.225,0.376,1.661
		c0.301,0.52,0.737,0.781,1.307,0.781c0.552,0,0.979-0.321,1.279-0.961c0.236-0.506,0.353-1.062,0.353-1.672
		c0-0.649-0.106-1.189-0.318-1.62C94.258,192.118,93.843,191.836,93.291,191.836"/>
	<path fill="#DFAD37" d="M101.092,193.451v2.749l-0.024,0.168c0,0.158,0.02,0.273,0.059,0.344c0.038,0.071,0.121,0.106,0.248,0.106
		l0.376-0.074v0.26c-0.1,0.059-0.218,0.098-0.352,0.122l-0.429,0.046c-0.227,0-0.41-0.055-0.55-0.165
		c-0.138-0.109-0.224-0.3-0.254-0.57l-0.093,0.122c-0.509,0.506-1.096,0.758-1.76,0.758c-0.439,0-0.814-0.137-1.122-0.411
		c-0.309-0.273-0.463-0.627-0.463-1.059c0-0.466,0.135-0.829,0.408-1.085c0.272-0.257,0.871-0.464,1.797-0.622
		c0.401-0.066,0.666-0.117,0.792-0.156c0.309-0.105,0.464-0.313,0.464-0.625c0-0.444-0.119-0.788-0.357-1.033
		c-0.237-0.245-0.585-0.368-1.044-0.368c-0.386,0-0.718,0.103-0.996,0.307c-0.22,0.158-0.353,0.332-0.4,0.521H97.25v-0.66
		c0.308-0.216,0.617-0.38,0.926-0.494c0.309-0.114,0.641-0.171,0.996-0.171C100.452,191.459,101.092,192.123,101.092,193.451
		 M100.178,190.863h-0.405l-1.868-1.157c-0.097-0.089-0.192-0.175-0.284-0.26c-0.016-0.031-0.023-0.095-0.023-0.192v-0.144
		c0.053-0.158,0.187-0.237,0.398-0.237h0.099c0.046,0.027,0.093,0.052,0.139,0.076c0.08,0.053,0.165,0.125,0.251,0.217
		c0.087,0.09,0.154,0.159,0.2,0.205L100.178,190.863z M100.143,195.985v-1.73l-0.428,0.07c-0.702,0.142-1.137,0.254-1.302,0.335
		c-0.475,0.212-0.712,0.552-0.712,1.019c0,0.37,0.1,0.648,0.301,0.832c0.2,0.186,0.488,0.279,0.861,0.279
		c0.166,0,0.339-0.044,0.516-0.131c0.177-0.086,0.319-0.192,0.428-0.315c0.065-0.05,0.138-0.115,0.217-0.194
		C100.103,196.071,100.143,196.016,100.143,195.985"/>
	<path fill="#DFAD37" d="M103.054,197.217v-5.688c0.12,0.016,0.203,0.027,0.249,0.035c0.046,0.008,0.121,0.011,0.225,0.011
		l0.475-0.046v1.094c0.204-0.374,0.468-0.661,0.792-0.863c0.325-0.2,0.693-0.301,1.105-0.301c0.68,0,1.168,0.19,1.468,0.568
		c0.299,0.378,0.448,0.962,0.448,1.753v3.437l-0.474-0.046c-0.085,0-0.151,0.002-0.2,0.006c-0.049,0.004-0.14,0.018-0.275,0.041
		v-3.176c0-0.633-0.078-1.094-0.237-1.383c-0.204-0.389-0.567-0.585-1.087-0.585c-0.584,0-0.993,0.214-1.233,0.642
		c-0.205,0.362-0.307,0.939-0.307,1.73v2.771l-0.475-0.046c-0.088,0-0.156,0.002-0.202,0.006
		C103.279,197.181,103.189,197.195,103.054,197.217"/>
	<path fill="#DFAD37" d="M113.1,197.217v-5.688c0.12,0.016,0.202,0.027,0.248,0.035c0.046,0.008,0.122,0.011,0.226,0.011
		l0.475-0.046v1.018c0.204-0.354,0.438-0.618,0.7-0.792c0.297-0.196,0.648-0.296,1.053-0.296c0.386,0,0.738,0.105,1.06,0.313
		c0.319,0.209,0.543,0.5,0.671,0.874c0.235-0.396,0.501-0.694,0.798-0.891c0.297-0.196,0.647-0.296,1.048-0.296
		c0.699,0,1.201,0.201,1.51,0.603c0.274,0.366,0.411,0.939,0.411,1.718v3.437l-0.474-0.046c-0.085,0-0.152,0.002-0.2,0.006
		c-0.049,0.004-0.14,0.018-0.275,0.041v-3.176c0-0.621-0.076-1.078-0.225-1.371c-0.205-0.397-0.571-0.596-1.099-0.596
		c-0.529,0-0.901,0.214-1.118,0.642c-0.155,0.309-0.231,0.735-0.231,1.279v3.223l-0.474-0.046c-0.089,0-0.157,0.002-0.203,0.006
		c-0.046,0.004-0.137,0.018-0.272,0.041v-3.482c0-1.108-0.419-1.662-1.255-1.662c-0.563,0-0.955,0.169-1.175,0.509
		c-0.165,0.255-0.248,0.646-0.248,1.175v3.46l-0.475-0.046c-0.088,0-0.156,0.002-0.202,0.006
		C113.325,197.181,113.235,197.195,113.1,197.217"/>
	<path fill="#DFAD37" d="M124.928,197.148l-2.395-5.619c0.096,0.016,0.187,0.027,0.274,0.035s0.184,0.011,0.292,0.011
		c0.089,0,0.189-0.006,0.298-0.017c0.11-0.011,0.201-0.021,0.274-0.029c0.236,0.745,0.488,1.458,0.756,2.141
		c0.268,0.683,0.599,1.439,0.998,2.269c0.251-0.52,0.552-1.223,0.905-2.104c0.353-0.882,0.643-1.65,0.87-2.306
		c0.062,0.016,0.125,0.027,0.189,0.035s0.135,0.011,0.218,0.011c0.061,0,0.186-0.015,0.376-0.046
		c-0.815,1.81-1.263,2.81-1.349,2.998c-0.633,1.393-1.061,2.346-1.285,2.858c-0.482,1.1-0.884,2.055-1.203,2.865
		c-0.073-0.016-0.14-0.027-0.2-0.035c-0.06-0.008-0.129-0.011-0.205-0.011c-0.112,0-0.195,0.003-0.248,0.011
		c-0.073,0.024-0.125,0.035-0.157,0.035L124.928,197.148z M124.204,190.557h-0.312c0.064-0.316,0.2-0.585,0.404-0.804
		c0.204-0.22,0.441-0.33,0.711-0.33c0.129,0,0.214,0.007,0.261,0.023l0.498,0.261c0.135,0.077,0.271,0.141,0.405,0.191
		c0.03,0.008,0.077,0.021,0.137,0.041s0.1,0.028,0.124,0.028c0.069,0,0.14-0.02,0.211-0.061c0.071-0.039,0.126-0.089,0.168-0.147
		c0.041-0.058,0.079-0.129,0.119-0.211c0.038-0.084,0.069-0.15,0.093-0.2h0.283c-0.062,0.332-0.184,0.61-0.365,0.833
		c-0.204,0.252-0.454,0.376-0.746,0.376c-0.12,0-0.205-0.007-0.257-0.022c-0.053-0.016-0.22-0.095-0.501-0.237
		c-0.15-0.078-0.263-0.133-0.336-0.168c-0.131-0.062-0.24-0.093-0.33-0.093l-0.237,0.046c-0.077,0.031-0.145,0.093-0.205,0.185
		C124.269,190.36,124.228,190.457,124.204,190.557"/>
	<path fill-rule="evenodd" clip-rule="evenodd" fill="#DFAD37" d="M30.128,174.903c1.402,0,2.539,1.137,2.539,2.539
		c0,1.402-1.137,2.539-2.539,2.539c-1.402,0-2.539-1.137-2.539-2.539C27.589,176.04,28.726,174.903,30.128,174.903"/>
	<path fill-rule="evenodd" clip-rule="evenodd" fill="#DFAD37" d="M36.074,153.914v-1.017h9.824v1.017
		c-1.342,0.14-2.01,0.804-2.01,1.979c0,0.524-0.033,1.383-0.095,2.57c-0.067,1.188-0.099,2.96-0.099,5.316
		c3.627,0.337,7.031,0.291,10.66,0v-3.281c0-0.511-0.023-1.279-0.067-2.303c-0.045-1.023-0.061-1.789-0.061-2.302
		c0-1.175-0.719-1.839-2.145-1.979v-1.017h9.824v1.017c-1.447,0.14-2.172,0.804-2.172,1.979c0,1.182-0.023,2.949-0.072,5.299
		c-0.05,2.357-0.072,4.116-0.072,5.285v9.062c0,1.175,0.773,1.839,2.316,1.979v1.017h-9.469v-1.017
		c1.387-0.14,2.077-0.804,2.077-1.979v-4.197l-0.16-5.084c-3.621-0.29-7.011-0.334-10.632,0c0,0.474-0.027,1.254-0.078,2.339
		c-0.044,1.035-0.067,1.814-0.067,2.338v4.605c0,1.175,0.774,1.839,2.322,1.979v1.017H36.43v-1.017
		c1.381-0.14,2.071-0.804,2.071-1.979v-7.332c0-1.372-0.028-3.424-0.078-6.158c-0.055-2.734-0.084-4.786-0.084-6.156
		C38.34,154.718,37.583,154.054,36.074,153.914"/>
	<path fill-rule="evenodd" clip-rule="evenodd" fill="#DFAD37" d="M19.472,177.432c0.383-0.221,0.745-0.466,1.081-0.737
		c1.261-1.013,2.41-2.362,3.04-3.367c1.475-2.344,2.216-4.883,2.216-7.617c0-3.953-1.23-7.156-3.687-9.615
		c-2.383-2.381-5.401-3.57-9.056-3.57c-3.643,0-6.656,1.189-9.04,3.57c-2.456,2.46-3.687,5.662-3.687,9.615
		c0,3.647,1.075,6.693,3.23,9.133c1.229,1.391,2.678,2.433,4.347,3.126c1.961,0.815,4.358,1.145,6.668,0.929
		c3.191,2.435,6.44,2.527,10.318,2.211v-1.62C23.417,179.572,21.333,178.713,19.472,177.432 M15.75,172.528
		c-2.013,0.269-3.058,0.408-5.071,0.675c0.524,1.41,1.527,3.291,2.67,4.522c-0.902,0.018-2.008-0.123-2.827-0.537
		c-2.775-1.34-4.161-5.166-4.161-11.478c0-8.008,2.233-12.009,6.705-12.009c4.483,0,6.722,4.001,6.722,12.009
		c0,4.758-0.79,8.103-2.369,10.036C16.416,174.757,16.08,173.56,15.75,172.528"/>
	<path fill-rule="evenodd" clip-rule="evenodd" fill="#DFAD37" d="M84.751,156.095c-2.383-2.382-5.403-3.57-9.055-3.57
		c-3.643,0-6.656,1.188-9.039,3.57c-2.456,2.459-3.687,5.669-3.687,9.615c0,3.958,1.23,7.173,3.687,9.633
		c2.383,2.381,5.396,3.568,9.039,3.568c3.653,0,6.673-1.188,9.055-3.568c2.456-2.461,3.688-5.676,3.688-9.633
		C88.439,161.764,87.207,158.554,84.751,156.095 M75.695,177.737c-4.471,0-6.705-4.007-6.705-12.026
		c0-8.008,2.234-12.009,6.705-12.009c4.484,0,6.722,4.001,6.722,12.009C82.417,173.73,80.179,177.737,75.695,177.737"/>
	<path fill-rule="evenodd" clip-rule="evenodd" fill="#DFAD37" d="M112.305,152.526h1.031l2.774,20.979
		c0.217,1.621,0.528,2.686,0.946,3.21c0.323,0.42,0.925,0.687,1.794,0.804v1.017h-9.351v-1.017c0.696-0.116,1.159-0.391,1.387-0.822
		c0.167-0.305,0.244-0.859,0.244-1.657c0-0.298-0.088-1.188-0.272-2.673l-1.131-9.457h-0.061l-6.951,15.413h-0.734l-6.857-15.127
		h-0.067l-1.203,9.202c-0.156,1.206-0.228,2.07-0.228,2.607c0,0.87,0.167,1.48,0.501,1.839c0.295,0.305,0.852,0.536,1.665,0.676
		v1.017h-6.656v-1.017c0.835-0.073,1.403-0.323,1.699-0.75c0.261-0.377,0.517-1.431,0.78-3.154l3.218-21.089h0.892l8.393,18.482
		L112.305,152.526z"/>
	<path fill-rule="evenodd" clip-rule="evenodd" fill="#DFAD37" d="M129.134,176.647c0.797,0.14,1.782,0.214,2.969,0.214
		c1.61,0,2.835-0.208,3.675-0.628c1.031-0.524,1.849-1.51,2.445-2.96l1.437,0.554l-1.109,5.085
		c-3.208-0.396-8.788-0.591-16.742-0.591v-0.803c1.487-0.141,2.234-1.316,2.234-3.514v-7.046c0-1.229-0.023-3.069-0.061-5.535
		c-0.045-2.461-0.068-4.306-0.068-5.53c0-1.01-0.68-1.742-2.039-2.192v-0.804c0.836,0,2.094,0.034,3.766,0.104
		c1.676,0.07,2.935,0.136,3.77,0.109l6.561-0.213c1.208-0.039,2.193,0.018,2.952-0.372c-0.076,2.08-0.07,3.812,0,5.882h-1.465
		c-0.456-1.401-1.008-2.332-1.648-2.782c-0.807-0.561-2.295-0.841-4.472-0.841h-1.843c0,0.664-0.045,1.724-0.128,3.179
		c-0.09,1.406-0.135,2.461-0.135,3.18v3.337h3.832c1.766,0,2.785-0.829,3.052-2.484h1.471c-0.07,2.514-0.073,4.57,0,7.081h-1.615
		c-0.123-1.023-0.378-1.717-0.774-2.082c-0.401-0.372-1.075-0.556-2.033-0.556h-3.964c0,0.537-0.012,1.347-0.034,2.437
		c-0.023,1.089-0.034,1.905-0.034,2.454V176.647z"/>
	<path fill-rule="evenodd" clip-rule="evenodd" fill="#DFAD37" d="M105.144,85.204c0.183-0.52,0.426-1.011,0.625-1.524
		c1.845-4.774,2.777-9.892,2.777-15.008c0-5.116-0.932-10.233-2.777-15.007c-1.85-4.784-4.607-9.213-8.105-12.964
		c-3.507-3.762-7.761-6.834-12.461-8.929c-4.713-2.102-9.872-3.197-15.03-3.204c-5.161-0.007-10.325,1.076-15.046,3.164
		c-4.713,2.088-8.98,5.153-12.504,8.911c-3.516,3.751-6.293,8.186-8.159,12.976c-1.864,4.784-2.827,9.919-2.827,15.053
		c0,5.135,0.963,10.268,2.827,15.053c1.866,4.79,4.643,9.224,8.159,12.975c3.524,3.76,7.791,6.825,12.504,8.911
		c4.721,2.091,9.885,3.172,15.046,3.165c5.159-0.007,10.318-1.101,15.03-3.202c4.7-2.096,8.954-5.168,12.461-8.93
		c2.38-2.551,4.337-5.462,6.055-8.489c0.501-0.881,0.967-1.784,1.348-2.725C105.097,85.355,105.118,85.278,105.144,85.204
		 M85.129,91.952c-1.141-1.016-2.22-2.069-3.263-3.186c-1.133,1.555-2.511,2.996-4.045,4.149c-2.996,2.245-6.557,3.348-10.22,2.093
		c-3.35-1.149-6.005-4.274-5.457-7.961c0.343-2.311,1.973-4.304,3.984-5.416c2.194-1.215,4.807-1.541,7.26-1.092
		c2.614,0.48,5.026,1.812,7.087,3.454c1.102,0.876,2.134,1.839,3.098,2.863c1.912,2.034,6.706,7.23,9.532,7.396l0.708,0.043
		l-0.508,0.493c-2.876,2.793-6.238,5.091-9.904,6.713c-4.152,1.838-8.685,2.787-13.225,2.78c-4.536-0.006-9.063-0.967-13.207-2.815
		c-4.151-1.851-7.905-4.568-11.003-7.891c-3.107-3.332-5.556-7.272-7.196-11.52c-1.646-4.258-2.476-8.822-2.476-13.385
		c0-4.561,0.83-9.125,2.476-13.383c1.64-4.249,4.09-8.187,7.196-11.52c3.098-3.322,6.852-6.04,11.003-7.893
		c4.144-1.847,8.673-2.807,13.207-2.813c4.54-0.008,9.074,0.943,13.225,2.779c4.162,1.841,7.932,4.553,11.043,7.874
		c3.125,3.332,5.592,7.277,7.251,11.531c1.663,4.268,2.522,8.845,2.522,13.425c0,4.58-0.859,9.158-2.522,13.426
		c-0.683,1.754-1.462,3.482-2.706,4.92c-0.865,1-1.946,1.676-3.284,1.782c-0.983,0.079-1.963-0.166-2.862-0.553
		c-0.956-0.412-1.857-0.995-2.681-1.631c-1.148-0.882-2.203-1.902-3.192-2.957c-1.116-1.19-2.313-2.305-3.587-3.322
		c-1.314-1.048-2.725-1.979-4.23-2.731c-1.553-0.776-3.21-1.355-4.919-1.671c-3.507-0.647-7.272-0.152-10.397,1.603
		c-1.612,0.905-3.05,2.12-4.151,3.608c-1.13,1.527-1.905,3.328-2.192,5.207c-0.288,1.903-0.074,3.894,0.641,5.684
		c0.698,1.745,1.813,3.311,3.205,4.572c0.831,0.751,1.752,1.396,2.739,1.925c1.82,0.976,3.812,1.594,5.885,1.636
		c3.162,0.062,6.201-0.885,8.894-2.507C81.271,96.209,83.432,94.208,85.129,91.952 M89.921,83.135
		c0.861-2.369,1.492-4.778,1.93-7.265c0.45-2.565,0.684-5.116,0.632-7.72c-0.164-7.958-1.772-14.896-6.071-21.664
		c-3.594-5.659-9.298-10.02-16.241-10.02c-6.941,0-12.659,4.395-16.259,10.05c-4.27,6.709-6.043,13.713-6.052,21.628
		c-0.007,8.709,2.31,17.386,7.757,24.305c-0.02-0.056-0.041-0.114-0.061-0.17c-0.989-2.921-1.191-5.914-0.098-8.83
		c-1.032-2.497-1.821-5.055-2.315-7.713c-0.466-2.509-0.661-5.04-0.661-7.591c0-3.059,0.35-6.052,1.034-9.034
		c0.707-3.077,1.772-5.943,3.321-8.702c2.739-4.874,7.415-9.299,13.334-9.322c5.959-0.023,10.599,4.451,13.346,9.343
		c1.51,2.689,2.556,5.486,3.263,8.484c0.719,3.049,1.097,6.098,1.08,9.232c-0.011,2.111-0.13,4.208-0.439,6.298
		c-0.256,1.726-0.639,3.418-1.124,5.092c0.692,0.594,1.341,1.224,1.979,1.876C88.832,81.98,89.367,82.567,89.921,83.135"/>
	<path fill-rule="evenodd" clip-rule="evenodd" fill="#DFAD37" d="M127.931,103.366l-10.02,10.018
		c-0.542,0.57-1.444,0.593-2.013,0.049c-0.009-0.007-0.021-0.019-0.03-0.028l-9.193-9.194l-0.164-0.165
		c-0.47-0.475-0.466-1.242,0.009-1.711c0.049-0.049,0.107-0.096,0.165-0.137l6.635-4.599l-3.794,5.426l7.342,7.343l8.983-8.985
		c0.56-0.551,1.462-0.572,2.031-0.03C128.453,101.895,128.473,102.797,127.931,103.366 M104.789,126.51l10.018-10.02
		c0.57-0.543,0.59-1.444,0.049-2.013c-0.009-0.009-0.02-0.023-0.029-0.029l-9.192-9.195l-0.166-0.163
		c-0.475-0.471-1.241-0.468-1.711,0.008c-0.049,0.049-0.095,0.107-0.138,0.165l-4.597,6.635l5.425-3.794l7.343,7.343l-8.984,8.984
		c-0.552,0.56-0.575,1.462-0.03,2.03C103.318,127.031,104.219,127.054,104.789,126.51 M12.253,103.366l10.02,10.018
		c0.542,0.57,1.444,0.593,2.013,0.049c0.009-0.007,0.021-0.019,0.03-0.028l9.193-9.194l0.164-0.165
		c0.471-0.475,0.466-1.242-0.009-1.711c-0.049-0.049-0.107-0.096-0.165-0.137l-6.635-4.599l3.794,5.426l-7.343,7.343l-8.983-8.985
		c-0.559-0.551-1.461-0.572-2.03-0.03C11.733,101.895,11.711,102.797,12.253,103.366 M70.092,120.93H58.716
		c-0.007,0.16-0.018,0.32-0.036,0.48c-0.187,1.744-1.042,3.311-2.407,4.411c-1.365,1.101-3.076,1.601-4.821,1.418
		c-1.421-0.152-2.698-0.849-3.595-1.963c-0.899-1.112-1.308-2.508-1.157-3.931c0.084-0.781,0.785-1.348,1.567-1.264
		c0.782,0.085,1.349,0.786,1.265,1.568c-0.071,0.666,0.121,1.318,0.541,1.839c0.42,0.521,1.017,0.849,1.682,0.92
		c0.992,0.105,1.959-0.182,2.732-0.804c0.773-0.622,1.257-1.511,1.363-2.498c0.308-2.868-1.777-5.456-4.646-5.762
		c-1.894-0.204-3.753,0.344-5.236,1.539c-1.482,1.196-2.41,2.898-2.613,4.791c-0.038,0.361-0.055,0.746-0.05,1.146
		c0,0.025,0,0.05-0.001,0.073c0.046,2.137-0.397,4.258-1.276,6.19l2.702,2.701c2.062,1.752,4.697,2.712,7.463,2.712
		c0,0,8.97,0,17.925-0.025c8.956,0.025,17.875,0.025,17.875,0.025c2.767,0,5.399-0.961,7.464-2.712l2.7-2.701
		c-0.877-1.931-1.321-4.053-1.274-6.19c-0.001-0.024-0.001-0.049-0.001-0.073c0.007-0.4-0.011-0.785-0.05-1.146
		c-0.204-1.893-1.132-3.595-2.614-4.791c-1.481-1.194-3.34-1.743-5.234-1.539c-2.869,0.306-4.953,2.893-4.646,5.762
		c0.106,0.988,0.59,1.876,1.364,2.498c0.772,0.622,1.74,0.909,2.731,0.804c0.664-0.071,1.262-0.399,1.683-0.92
		c0.42-0.52,0.612-1.173,0.54-1.839c-0.085-0.782,0.483-1.484,1.264-1.568c0.783-0.084,1.483,0.483,1.567,1.264
		c0.152,1.422-0.259,2.819-1.155,3.931c-0.899,1.114-2.176,1.811-3.596,1.963c-1.744,0.183-3.457-0.317-4.821-1.418
		c-1.365-1.1-2.218-2.667-2.407-4.411c-0.017-0.16-0.029-0.319-0.037-0.48H70.092z M35.395,126.51l-10.018-10.02
		c-0.57-0.543-0.59-1.444-0.049-2.013c0.008-0.009,0.021-0.023,0.029-0.029l9.193-9.195l0.165-0.163
		c0.474-0.471,1.241-0.468,1.711,0.008c0.049,0.049,0.096,0.107,0.137,0.165l4.598,6.635l-5.425-3.794l-7.343,7.343l8.983,8.984
		c0.552,0.56,0.575,1.462,0.033,2.03C36.866,127.031,35.964,127.054,35.395,126.51 M123.492,68.671v11.626
		c1.293,0.368,2.437,1.123,3.297,2.191c1.101,1.365,1.604,3.077,1.417,4.821c-0.152,1.419-0.849,2.697-1.963,3.595
		c-1.114,0.898-2.511,1.308-3.928,1.157c-0.782-0.085-1.348-0.785-1.264-1.568c0.085-0.781,0.786-1.348,1.568-1.263
		c0.664,0.07,1.316-0.122,1.838-0.543c0.522-0.421,0.848-1.018,0.919-1.682c0.106-0.988-0.178-1.956-0.801-2.729
		c-0.623-0.774-1.512-1.258-2.498-1.364c-2.874-0.307-5.455,1.778-5.762,4.648c-0.204,1.893,0.343,3.752,1.539,5.234
		c1.195,1.483,2.897,2.411,4.79,2.613c0.476,0.051,0.971,0.064,1.465,0.042c0.06-0.002,0.12-0.002,0.178,0.002
		c0.717-0.011,1.438,0.033,2.152,0.128c0.001,0,0.003,0.002,0.003,0.002c0.008,0,0.015,0.001,0.02,0.002
		c0.172,0.023,0.339,0.049,0.501,0.076c0.099,0.018,0.199,0.035,0.3,0.055c0.109,0.019,0.219,0.042,0.326,0.064
		c0.093,0.02,0.187,0.042,0.282,0.064c0.169,0.039,0.335,0.081,0.496,0.124c0.009,0.002,0.033,0.009,0.042,0.014
		c0.319,0.086,0.634,0.183,0.936,0.289c0.055,0.019,0.106,0.041,0.156,0.066c0.338,0.123,0.668,0.26,0.993,0.408l2.711-2.712
		c1.752-2.064,2.714-4.698,2.714-7.464c0,0,0-8.92-0.027-17.876c0.027-8.956,0.027-17.915,0.027-17.915
		c0-2.767-0.962-5.401-2.714-7.466l-2.711-2.712 M127.931,33.978l-10.02-10.02c-0.542-0.569-1.444-0.591-2.013-0.049
		c-0.009,0.008-0.021,0.021-0.03,0.028l-9.193,9.195l-0.164,0.165c-0.47,0.474-0.466,1.24,0.009,1.71
		c0.049,0.049,0.107,0.096,0.165,0.139l6.635,4.597l-3.794-5.426l7.342-7.343l8.983,8.985c0.56,0.552,1.462,0.574,2.031,0.032
		C128.453,35.45,128.473,34.548,127.931,33.978 M123.492,68.671V57.046c1.293-0.368,2.437-1.123,3.297-2.191
		c1.101-1.365,1.604-3.076,1.417-4.82c-0.152-1.42-0.849-2.698-1.963-3.595c-1.114-0.899-2.511-1.309-3.928-1.157
		c-0.782,0.084-1.348,0.786-1.264,1.568c0.085,0.782,0.786,1.348,1.568,1.262c0.664-0.07,1.316,0.123,1.838,0.543
		c0.522,0.421,0.848,1.019,0.919,1.683c0.106,0.988-0.178,1.956-0.801,2.731c-0.623,0.772-1.512,1.256-2.498,1.361
		c-2.874,0.307-5.455-1.778-5.762-4.646c-0.204-1.893,0.343-3.752,1.539-5.234c1.195-1.482,2.897-2.411,4.79-2.613
		c0.476-0.052,0.971-0.066,1.465-0.043c0.06,0.004,0.12,0.002,0.178-0.002c0.717,0.012,1.438-0.033,2.152-0.128
		c0.001,0,0.003-0.001,0.003-0.001c0.008,0,0.015-0.001,0.02-0.003c0.172-0.021,0.339-0.048,0.501-0.076
		c0.099-0.018,0.199-0.035,0.3-0.053c0.109-0.021,0.219-0.044,0.326-0.067c0.093-0.02,0.187-0.041,0.282-0.063
		c0.169-0.041,0.335-0.081,0.496-0.124c0.009-0.002,0.033-0.01,0.042-0.012c0.319-0.087,0.634-0.185,0.936-0.291
		c0.055-0.018,0.106-0.039,0.156-0.064c0.338-0.124,0.668-0.26,0.993-0.409 M104.789,10.833l10.018,10.02
		c0.57,0.543,0.59,1.445,0.049,2.015c-0.009,0.007-0.02,0.02-0.029,0.028l-9.192,9.194l-0.166,0.164
		c-0.475,0.471-1.241,0.467-1.711-0.009c-0.049-0.049-0.095-0.105-0.138-0.165l-4.597-6.635l5.425,3.795l7.343-7.343l-8.984-8.984
		c-0.552-0.56-0.575-1.462-0.03-2.031C103.318,10.313,104.219,10.29,104.789,10.833 M133.048,39.094
		c0.035-0.026,0.071-0.052,0.107-0.08c3.488-2.636,5.573-6.889,5.573-11.381V1.449c0-0.787-0.639-1.425-1.426-1.425h-26.181
		c-4.49,0-8.745,2.084-11.381,5.573c-0.026,0.035-0.053,0.071-0.08,0.108L97.716,3.76c-0.019-0.019,0,0,0,0
		C95.086,1.358,91.608,0,87.992,0c0,0-8.971,0.025-17.925,0.025C61.112,0.025,52.192,0,52.192,0c-3.615,0-7.056,1.322-9.685,3.724
		c-0.02,0.017-0.02,0.017-0.038,0.036l-1.946,1.946c-0.025-0.037-0.052-0.073-0.079-0.108c-2.636-3.489-6.889-5.573-11.381-5.573
		H2.88c-0.786,0-1.422,0.638-1.422,1.425v26.183c0,4.492,2.082,8.745,5.571,11.381c0.036,0.028,0.068,0.051,0.103,0.078L5.18,41.052
		c-0.019,0.018,0.019-0.02,0,0c-2.402,2.63-3.76,6.109-3.76,9.725c0,0,0.025,8.92,0.025,17.875c0,8.955-0.025,17.916-0.025,17.916
		c0,3.616,1.323,7.055,3.724,9.687c0.018,0.019,0.017,0.019,0.036,0.038l1.957,1.956c-0.036,0.026-0.072,0.054-0.108,0.08
		c-3.489,2.636-5.571,6.89-5.571,11.381v26.186c0,0.785,0.637,1.423,1.422,1.423h26.182c4.492,0,8.745-2.084,11.381-5.574
		c0.027-0.035,0.054-0.071,0.079-0.106l1.984,1.981c0.019,0.019-0.02-0.018,0,0c2.629,2.401,6.071,3.724,9.685,3.724
		c0,0,8.97-0.025,17.925-0.025c8.956,0,17.875,0.025,17.875,0.025c3.616,0,7.085-1.35,9.715-3.751c0.02-0.019-0.01,0.01,0.009-0.01
		l1.945-1.944c0.027,0.035,0.054,0.071,0.08,0.106c2.636,3.49,6.89,5.574,11.381,5.574h26.181c0.787,0,1.426-0.639,1.426-1.423
		V109.71c0-4.491-2.085-8.745-5.573-11.381c-0.036-0.026-0.072-0.054-0.107-0.08l1.956-1.956c0.019-0.019,0.017-0.019,0.036-0.038
		c2.401-2.631,3.723-6.071,3.723-9.687c0,0-0.025-8.961-0.025-17.916c0-8.955,0.025-17.875,0.025-17.875
		c0-3.616-1.349-7.086-3.75-9.717c-0.018-0.019-0.009-0.009-0.027-0.028L133.048,39.094z M12.253,33.978l10.02-10.02
		c0.542-0.569,1.444-0.591,2.013-0.049c0.009,0.008,0.021,0.021,0.03,0.028l9.193,9.195l0.164,0.165
		c0.471,0.474,0.466,1.24-0.009,1.71c-0.049,0.049-0.107,0.096-0.165,0.139l-6.635,4.597l3.794-5.426l-7.343-7.343l-8.983,8.985
		c-0.559,0.552-1.461,0.574-2.03,0.032C11.733,35.45,11.711,34.548,12.253,33.978 M9.692,96.743
		c0.325-0.148,0.656-0.285,0.992-0.408c0.051-0.025,0.103-0.046,0.157-0.066c0.3-0.106,0.616-0.203,0.936-0.289
		c0.009-0.005,0.033-0.011,0.043-0.014c0.158-0.043,0.324-0.085,0.494-0.124c0.095-0.023,0.191-0.044,0.282-0.064
		c0.107-0.023,0.217-0.045,0.327-0.064c0.099-0.02,0.2-0.037,0.299-0.055c0.164-0.027,0.33-0.053,0.501-0.076
		c0.006-0.001,0.014-0.002,0.019-0.002c0.001,0,0.002-0.002,0.005-0.002c0.713-0.095,1.436-0.139,2.152-0.128
		c0.058-0.005,0.117-0.005,0.178-0.002c0.494,0.022,0.989,0.009,1.465-0.042c1.893-0.202,3.595-1.13,4.79-2.613
		c1.197-1.482,1.742-3.341,1.54-5.234c-0.308-2.869-2.89-4.955-5.763-4.648c-0.987,0.106-1.874,0.589-2.498,1.364
		c-0.623,0.773-0.908,1.742-0.801,2.729c0.071,0.664,0.397,1.261,0.919,1.682c0.523,0.421,1.174,0.613,1.838,0.543
		c0.782-0.085,1.483,0.482,1.568,1.263c0.084,0.782-0.483,1.483-1.264,1.568c-1.419,0.151-2.814-0.259-3.928-1.157
		c-1.113-0.898-1.812-2.176-1.964-3.595c-0.187-1.744,0.316-3.457,1.418-4.821c0.86-1.068,2.005-1.823,3.297-2.191V68.803V57.046
		c-1.293-0.368-2.437-1.123-3.297-2.191c-1.102-1.365-1.605-3.076-1.418-4.82c0.152-1.42,0.851-2.698,1.964-3.595
		c1.114-0.899,2.509-1.309,3.928-1.157c0.781,0.084,1.348,0.786,1.264,1.568c-0.085,0.782-0.786,1.348-1.568,1.262
		c-0.664-0.07-1.315,0.123-1.838,0.543c-0.521,0.421-0.848,1.019-0.919,1.683c-0.106,0.988,0.178,1.956,0.801,2.731
		c0.624,0.772,1.511,1.256,2.498,1.361c2.873,0.307,5.455-1.778,5.763-4.646c0.202-1.893-0.343-3.752-1.54-5.234
		c-1.194-1.482-2.897-2.411-4.79-2.613c-0.476-0.052-0.971-0.066-1.465-0.043c-0.061,0.004-0.121,0.002-0.178-0.002
		c-0.716,0.012-1.438-0.033-2.152-0.128c-0.002,0-0.003-0.001-0.005-0.001c-0.006,0-0.014-0.001-0.019-0.003
		c-0.172-0.021-0.337-0.048-0.501-0.076c-0.099-0.018-0.2-0.035-0.299-0.053c-0.111-0.021-0.22-0.044-0.327-0.067
		c-0.091-0.02-0.187-0.041-0.282-0.063c-0.17-0.041-0.336-0.081-0.494-0.124c-0.01-0.002-0.034-0.01-0.043-0.012
		c-0.319-0.087-0.636-0.185-0.936-0.291c-0.054-0.018-0.106-0.039-0.157-0.064c-0.336-0.124-0.667-0.26-0.992-0.409l-2.798,2.815
		c-1.751,2.063-2.626,4.596-2.626,7.362c0,0,0,8.958,0.025,17.915c-0.025,8.956-0.025,17.876-0.025,17.876
		c0,2.766,0.961,5.4,2.713,7.464L9.692,96.743z M58.716,16.413h22.752c0.008-0.158,0.02-0.319,0.037-0.479
		c0.188-1.745,1.042-3.312,2.407-4.411c1.365-1.1,3.077-1.601,4.821-1.418c1.42,0.151,2.698,0.849,3.596,1.962
		c0.896,1.114,1.307,2.51,1.155,3.931c-0.084,0.781-0.783,1.349-1.567,1.264c-0.781-0.084-1.349-0.785-1.264-1.567
		c0.072-0.667-0.12-1.32-0.54-1.84c-0.421-0.521-1.019-0.848-1.683-0.918c-0.991-0.106-1.959,0.18-2.731,0.802
		c-0.773,0.623-1.258,1.51-1.364,2.498c-0.307,2.871,1.777,5.456,4.646,5.763c1.894,0.203,3.753-0.345,5.234-1.54
		c1.482-1.195,2.41-2.895,2.614-4.79c0.038-0.361,0.056-0.746,0.05-1.146c0-0.025,0-0.049,0.001-0.073
		c-0.046-2.137,0.397-4.258,1.274-6.189l-2.7-2.702c-2.065-1.752-4.697-2.712-7.464-2.712c0,0-8.971,0-17.925,0.025
		c-8.955-0.025-17.875-0.025-17.875-0.025c-2.766,0-5.4,0.96-7.463,2.712l-2.702,2.702c0.878,1.931,1.322,4.052,1.276,6.189
		c0.001,0.025,0.001,0.049,0.001,0.073c-0.006,0.4,0.011,0.785,0.05,1.146c0.203,1.894,1.131,3.594,2.613,4.79
		c1.482,1.194,3.341,1.743,5.236,1.54c2.869-0.307,4.954-2.892,4.646-5.763c-0.105-0.988-0.589-1.875-1.363-2.498
		c-0.773-0.622-1.74-0.908-2.732-0.802c-0.665,0.07-1.262,0.396-1.682,0.918c-0.42,0.521-0.612,1.173-0.541,1.84
		c0.084,0.782-0.483,1.483-1.265,1.567c-0.782,0.085-1.483-0.483-1.567-1.264c-0.151-1.421,0.259-2.817,1.157-3.931
		c0.897-1.113,2.174-1.811,3.595-1.962c1.745-0.183,3.456,0.317,4.821,1.418c1.365,1.1,2.219,2.666,2.407,4.411
		C58.698,16.094,58.709,16.255,58.716,16.413 M19.541,68.671v-11.41c3.694-0.403,6.75-3.332,7.161-7.174
		c0.286-2.651-0.48-5.251-2.153-7.326c-1.673-2.074-4.054-3.374-6.703-3.657c-0.575-0.061-1.164-0.082-1.755-0.061
		c-0.04-0.002-0.079-0.005-0.117-0.001c-0.614,0.016-1.237-0.019-1.855-0.101c-0.005-0.001-0.011-0.001-0.017-0.002h-0.005
		c-0.137-0.019-0.27-0.041-0.403-0.062c-0.079-0.014-0.158-0.028-0.239-0.044c-0.09-0.016-0.177-0.035-0.268-0.054
		c-0.073-0.016-0.147-0.032-0.222-0.05c-0.141-0.033-0.275-0.068-0.394-0.098c-0.007-0.002-0.034-0.01-0.042-0.012
		c-0.207-0.056-0.412-0.117-0.607-0.184c-0.042-0.018-0.084-0.036-0.126-0.051c-1.097-0.389-2.126-0.941-3.05-1.641
		c-2.781-2.1-4.441-5.506-4.441-9.109V2.873h24.758c3.603,0,7.008,1.66,9.107,4.441c1.566,2.072,2.356,4.539,2.283,7.173
		c0,0.018,0.002,0.051,0.003,0.076c-0.005,0.486,0.019,0.96,0.067,1.412c0.283,2.649,1.584,5.03,3.657,6.703
		c2.075,1.673,4.679,2.438,7.325,2.154c3.275-0.351,5.886-2.62,6.834-5.57h11.753h11.752c0.949,2.95,3.56,5.219,6.834,5.57
		c2.648,0.284,5.252-0.481,7.325-2.154c2.076-1.673,3.374-4.054,3.657-6.703c0.049-0.452,0.071-0.926,0.069-1.412
		c0-0.025,0.001-0.058,0.001-0.076c-0.071-2.634,0.718-5.1,2.283-7.173c2.1-2.78,5.506-4.441,9.109-4.441h24.759v24.76
		c0,3.602-1.661,7.009-4.442,9.109c-0.926,0.7-1.952,1.252-3.05,1.641c-0.044,0.015-0.085,0.033-0.126,0.051
		c-0.195,0.066-0.4,0.128-0.608,0.184c-0.006,0.002-0.033,0.01-0.041,0.012c-0.117,0.031-0.254,0.066-0.395,0.098
		c-0.075,0.018-0.148,0.034-0.222,0.05c-0.089,0.019-0.176,0.038-0.266,0.054c-0.081,0.016-0.159,0.03-0.238,0.044
		c-0.134,0.021-0.268,0.043-0.405,0.062h-0.003c-0.006,0.001-0.011,0.001-0.018,0.002c-0.616,0.082-1.241,0.117-1.854,0.101
		c-0.038-0.003-0.078-0.001-0.117,0.001c-0.591-0.021-1.181,0-1.755,0.061c-2.649,0.283-5.03,1.584-6.702,3.657
		c-1.674,2.075-2.438,4.675-2.155,7.326c0.413,3.841,3.469,6.771,7.162,7.174v11.41v11.412c-3.694,0.402-6.749,3.332-7.162,7.173
		c-0.283,2.65,0.481,5.253,2.155,7.326c1.672,2.075,4.053,3.374,6.702,3.657c0.575,0.061,1.164,0.082,1.755,0.061
		c0.04,0.003,0.079,0.004,0.117,0.003c0.613-0.018,1.237,0.018,1.854,0.099c0.007,0.001,0.012,0.003,0.018,0.003
		c0.001,0,0.002,0.001,0.003,0.001c0.138,0.017,0.271,0.039,0.405,0.062c0.079,0.012,0.157,0.027,0.238,0.042
		c0.09,0.018,0.177,0.036,0.266,0.054c0.074,0.016,0.148,0.033,0.222,0.05c0.141,0.033,0.278,0.068,0.395,0.099
		c0.008,0.002,0.035,0.009,0.041,0.012c0.209,0.056,0.413,0.118,0.608,0.183c0.042,0.019,0.082,0.037,0.126,0.052
		c1.098,0.389,2.124,0.941,3.05,1.64c2.781,2.099,4.442,5.506,4.442,9.108v24.761h-24.759c-3.602,0-7.009-1.66-9.109-4.442
		c-1.565-2.072-2.354-4.538-2.283-7.173c0-0.017-0.001-0.05-0.001-0.076c0.002-0.486-0.02-0.961-0.069-1.412
		c-0.283-2.65-1.581-5.03-3.657-6.703c-2.073-1.672-4.677-2.438-7.325-2.154c-3.274,0.351-5.885,2.622-6.834,5.569H70.092H58.339
		c-0.948-2.947-3.559-5.219-6.834-5.569c-2.646-0.285-5.25,0.482-7.325,2.154c-2.074,1.673-3.374,4.053-3.657,6.703
		c-0.047,0.451-0.071,0.926-0.067,1.412c-0.001,0.026-0.003,0.059-0.003,0.076c0.073,2.635-0.717,5.1-2.283,7.173
		c-2.1,2.782-5.504,4.442-9.107,4.442H4.305V109.71c0-3.602,1.659-7.009,4.441-9.108c0.925-0.699,1.953-1.251,3.05-1.64
		c0.043-0.015,0.085-0.033,0.126-0.052c0.195-0.064,0.401-0.126,0.607-0.183c0.008-0.003,0.035-0.01,0.042-0.012
		c0.119-0.032,0.253-0.066,0.394-0.099c0.076-0.017,0.149-0.034,0.222-0.05c0.09-0.018,0.177-0.036,0.268-0.054
		c0.081-0.015,0.16-0.029,0.239-0.042c0.133-0.023,0.266-0.045,0.403-0.062c0.002,0,0.003-0.001,0.005-0.001
		c0.006,0,0.012-0.002,0.017-0.003c0.617-0.081,1.241-0.117,1.855-0.099c0.038,0.001,0.078,0,0.117-0.003
		c0.591,0.021,1.181,0,1.755-0.061c2.649-0.283,5.03-1.583,6.703-3.657c1.673-2.073,2.438-4.676,2.153-7.326
		c-0.411-3.84-3.468-6.771-7.161-7.173V68.671z M35.395,10.833l-10.018,10.02c-0.57,0.543-0.59,1.445-0.049,2.015
		c0.008,0.007,0.021,0.02,0.029,0.028l9.193,9.194l0.165,0.164c0.474,0.471,1.241,0.467,1.711-0.009
		c0.049-0.049,0.096-0.105,0.137-0.165l4.598-6.635l-5.425,3.795l-7.343-7.343l8.983-8.984c0.552-0.56,0.575-1.462,0.033-2.031
		C36.866,10.313,35.964,10.29,35.395,10.833"/>
</g>
</svg>
