<?xml version="1.0" encoding="utf-8"?>
<!-- Generator: Adobe Illustrator 23.0.0, SVG Export Plug-In . SVG Version: 6.00 Build 0)  -->
<svg version="1.1" id="Layer_1" xmlns="http://www.w3.org/2000/svg" xmlns:xlink="http://www.w3.org/1999/xlink" x="0px" y="0px"
	 viewBox="0 0 140 200" style="enable-background:new 0 0 140 200;" xml:space="preserve">
<style type="text/css">
	.st0{fill:#FFCC00;}
	.st1{fill-rule:evenodd;clip-rule:evenodd;fill:#FFCC00;}
</style>
<g>
	<path class="st0" d="M34.83,152.41h-0.09c-0.23-0.26-0.5-0.46-0.83-0.59c-0.33-0.14-0.67-0.2-1.04-0.2c-0.73,0-1.31,0.23-1.74,0.68
		c-0.43,0.46-0.65,1.1-0.65,1.92c0,0.84,0.21,1.49,0.63,1.96c0.42,0.47,1.04,0.7,1.85,0.7c0.23,0,0.46-0.02,0.68-0.07
		c0.22-0.05,0.43-0.12,0.61-0.21v-2.12l0.36,0.02l0.36-0.02v2.34c-0.36,0.13-0.74,0.23-1.12,0.3c-0.38,0.07-0.76,0.1-1.13,0.1
		c-1.01,0-1.79-0.28-2.33-0.84c-0.5-0.52-0.75-1.23-0.75-2.11c0-0.95,0.31-1.68,0.92-2.21c0.58-0.5,1.35-0.75,2.32-0.75
		c0.43,0,0.83,0.04,1.2,0.12c0.37,0.08,0.68,0.2,0.93,0.35c-0.04,0.09-0.07,0.19-0.11,0.3C34.89,152.2,34.86,152.31,34.83,152.41"/>
	<path class="st0" d="M37.27,151.72c0,0.11-0.04,0.21-0.13,0.29c-0.08,0.08-0.18,0.12-0.29,0.12c-0.12,0-0.22-0.04-0.3-0.12
		c-0.09-0.08-0.13-0.18-0.13-0.29s0.04-0.22,0.13-0.3c0.09-0.09,0.19-0.13,0.3-0.13c0.11,0,0.21,0.04,0.29,0.13
		C37.23,151.49,37.27,151.6,37.27,151.72 M37.18,153.13v3.98l-0.33-0.03c-0.06,0-0.11,0-0.14,0c-0.03,0-0.1,0.01-0.19,0.03v-3.98
		c0.08,0.01,0.14,0.02,0.17,0.02c0.03,0.01,0.09,0.01,0.16,0.01L37.18,153.13z"/>
	<path class="st0" d="M41.51,154.47v1.92l-0.02,0.12c0,0.11,0.01,0.19,0.04,0.24c0.03,0.05,0.08,0.07,0.17,0.07l0.26-0.05v0.18
		c-0.07,0.04-0.15,0.07-0.25,0.09l-0.3,0.03c-0.16,0-0.29-0.04-0.38-0.12c-0.1-0.08-0.16-0.21-0.18-0.4l-0.07,0.09
		c-0.36,0.35-0.77,0.53-1.23,0.53c-0.31,0-0.57-0.1-0.79-0.29c-0.22-0.19-0.32-0.44-0.32-0.74c0-0.33,0.09-0.58,0.29-0.76
		c0.19-0.18,0.61-0.32,1.26-0.44c0.28-0.05,0.47-0.08,0.55-0.11c0.22-0.07,0.32-0.22,0.32-0.44c0-0.31-0.08-0.55-0.25-0.72
		s-0.41-0.26-0.73-0.26c-0.27,0-0.5,0.07-0.7,0.21c-0.15,0.11-0.25,0.23-0.28,0.36h-0.1v-0.46c0.22-0.15,0.43-0.27,0.65-0.35
		c0.22-0.08,0.45-0.12,0.7-0.12C41.06,153.08,41.51,153.54,41.51,154.47 M40.11,151.62c0.03-0.03,0.08-0.08,0.14-0.14
		c0.06-0.06,0.12-0.11,0.17-0.15c0.03-0.02,0.07-0.03,0.1-0.05h0.06c0.15,0,0.25,0.06,0.28,0.17v0.1c0,0.07-0.01,0.11-0.02,0.13
		c-0.07,0.06-0.13,0.12-0.2,0.18l-1.31,0.81h-0.28L40.11,151.62z M40.85,156.25v-1.21l-0.3,0.05c-0.49,0.1-0.8,0.18-0.91,0.23
		c-0.33,0.15-0.5,0.39-0.5,0.71c0,0.26,0.07,0.45,0.21,0.58c0.14,0.13,0.34,0.2,0.6,0.2c0.12,0,0.24-0.03,0.36-0.09
		c0.12-0.06,0.22-0.13,0.3-0.22c0.05-0.03,0.1-0.08,0.15-0.14C40.82,156.31,40.85,156.27,40.85,156.25"/>
	<path class="st0" d="M45.22,152.31l0.66-0.26v1.08h0.88l-0.02,0.18l0.02,0.13h-0.88v2.09l-0.02,0.28c0,0.41,0.06,0.69,0.17,0.85
		c0.1,0.14,0.25,0.21,0.45,0.21c0.07,0,0.14-0.01,0.21-0.02c0.07-0.02,0.13-0.03,0.17-0.04v0.2c-0.11,0.04-0.23,0.08-0.36,0.12
		c-0.13,0.03-0.24,0.05-0.34,0.05c-0.33,0-0.57-0.08-0.72-0.24c-0.18-0.19-0.26-0.5-0.26-0.94l0.02-0.13v-2.42h-0.51
		c0.01-0.03,0.02-0.08,0.02-0.15c0-0.08-0.01-0.13-0.02-0.17h0.51V152.31z"/>
	<path class="st0" d="M47.67,157.11v-3.98c0.08,0.01,0.14,0.02,0.17,0.02c0.03,0.01,0.08,0.01,0.16,0.01l0.33-0.03v0.83l0.03-0.1
		c0.15-0.23,0.31-0.41,0.47-0.55c0.19-0.15,0.38-0.23,0.57-0.23c0.09,0,0.18,0.02,0.27,0.05l-0.12,0.7
		c-0.13-0.04-0.26-0.09-0.4-0.13c-0.22,0-0.4,0.07-0.53,0.2c-0.13,0.15-0.21,0.3-0.25,0.45c-0.03,0.14-0.05,0.35-0.05,0.62v2.15
		L48,157.08c-0.06,0-0.11,0-0.14,0C47.83,157.08,47.77,157.09,47.67,157.11"/>
	<path class="st0" d="M51.04,152.12c-0.1,0-0.19-0.04-0.27-0.12c-0.08-0.08-0.12-0.17-0.12-0.26c0-0.1,0.04-0.19,0.12-0.27
		c0.08-0.08,0.17-0.12,0.27-0.12c0.11,0,0.2,0.04,0.27,0.11c0.08,0.07,0.11,0.16,0.11,0.27c0,0.1-0.04,0.19-0.12,0.26
		C51.23,152.08,51.14,152.12,51.04,152.12 M51.04,158.34c-0.1,0-0.19-0.04-0.27-0.12c-0.08-0.08-0.12-0.17-0.12-0.26
		c0-0.1,0.04-0.19,0.12-0.27c0.08-0.08,0.17-0.12,0.27-0.12c0.11,0,0.2,0.04,0.27,0.11c0.08,0.07,0.11,0.16,0.11,0.27
		c0,0.1-0.04,0.19-0.12,0.26C51.23,158.3,51.14,158.34,51.04,158.34 M51.34,153.13v3.98l-0.33-0.03c-0.06,0-0.11,0-0.14,0
		c-0.03,0-0.1,0.01-0.19,0.03v-3.98c0.08,0.01,0.14,0.02,0.17,0.02c0.03,0.01,0.08,0.01,0.16,0.01L51.34,153.13z"/>
	<path class="st0" d="M58.42,153.43l-0.18,0.55h-0.06c-0.01-0.01-0.04-0.04-0.08-0.11c-0.05-0.07-0.1-0.12-0.15-0.18
		c-0.09-0.1-0.21-0.18-0.36-0.24c-0.15-0.06-0.3-0.09-0.46-0.09c-0.45,0-0.81,0.18-1.07,0.53c-0.24,0.32-0.36,0.71-0.36,1.18
		c0,0.54,0.14,0.97,0.41,1.31c0.27,0.33,0.64,0.5,1.1,0.5c0.23,0,0.44-0.05,0.62-0.14c0.14-0.07,0.31-0.2,0.52-0.39l0.05,0.02
		l-0.05,0.38c-0.18,0.14-0.38,0.25-0.6,0.32c-0.21,0.07-0.44,0.11-0.67,0.11c-0.67,0-1.2-0.2-1.58-0.6
		c-0.36-0.37-0.54-0.87-0.54-1.47c0-0.63,0.2-1.13,0.59-1.49c0.4-0.36,0.91-0.54,1.55-0.54c0.26,0,0.49,0.03,0.69,0.08
		C58,153.2,58.21,153.3,58.42,153.43"/>
	<path class="st0" d="M62.46,153.13v3.98l-0.33-0.03c-0.06,0-0.11,0-0.14,0c-0.03,0-0.1,0.01-0.19,0.03v-0.73
		c-0.28,0.53-0.72,0.8-1.33,0.8c-0.46,0-0.8-0.13-1.02-0.39c-0.22-0.26-0.34-0.67-0.34-1.23v-2.44c0.08,0.01,0.14,0.02,0.17,0.02
		c0.03,0.01,0.09,0.01,0.16,0.01l0.33-0.03v2.24c0,0.46,0.07,0.81,0.22,1.05c0.15,0.23,0.41,0.35,0.77,0.35
		c0.38,0,0.66-0.15,0.83-0.45c0.14-0.23,0.2-0.53,0.2-0.9v-2.29c0.08,0.01,0.14,0.02,0.17,0.02c0.03,0.01,0.09,0.01,0.16,0.01
		L62.46,153.13z M60.64,152.71v-0.09c0-0.05,0.01-0.11,0.02-0.18c0.01-0.07,0.03-0.12,0.04-0.15l0.33-0.44l0.07-0.16
		c0.03-0.08,0.05-0.17,0.06-0.26c0-0.2-0.13-0.31-0.4-0.35c-0.14,0.02-0.24,0.07-0.3,0.15c0.03,0.07,0.05,0.13,0.06,0.2
		c0,0.08-0.02,0.15-0.07,0.21c-0.05,0.06-0.12,0.09-0.21,0.1c-0.08,0-0.15-0.03-0.22-0.09c-0.06-0.06-0.1-0.14-0.1-0.22l0.09-0.22
		c0.02-0.04,0.05-0.09,0.1-0.13c0.04-0.05,0.13-0.11,0.26-0.16c0.13-0.05,0.26-0.08,0.4-0.08c0.1,0,0.17,0,0.21,0.01
		c0.04,0.01,0.11,0.03,0.22,0.07c0.11,0.04,0.19,0.09,0.23,0.15c0.13,0.13,0.2,0.3,0.2,0.48c0,0.07-0.03,0.15-0.09,0.25
		c-0.06,0.1-0.13,0.2-0.23,0.32l-0.21,0.16l-0.16,0.11c-0.04,0.04-0.07,0.08-0.08,0.11c-0.01,0.03-0.02,0.05-0.02,0.07l-0.01,0.13
		H60.64z"/>
	<path class="st0" d="M66.38,154.47v1.92l-0.02,0.12c0,0.11,0.01,0.19,0.04,0.24c0.03,0.05,0.08,0.07,0.17,0.07l0.26-0.05v0.18
		c-0.07,0.04-0.15,0.07-0.25,0.09l-0.3,0.03c-0.16,0-0.29-0.04-0.38-0.12c-0.1-0.08-0.16-0.21-0.18-0.4l-0.07,0.09
		c-0.36,0.35-0.77,0.53-1.23,0.53c-0.31,0-0.57-0.1-0.79-0.29c-0.22-0.19-0.32-0.44-0.32-0.74c0-0.33,0.09-0.58,0.29-0.76
		c0.19-0.18,0.61-0.32,1.26-0.44c0.28-0.05,0.47-0.08,0.55-0.11c0.22-0.07,0.32-0.22,0.32-0.44c0-0.31-0.08-0.55-0.25-0.72
		c-0.17-0.17-0.41-0.26-0.73-0.26c-0.27,0-0.5,0.07-0.7,0.21c-0.15,0.11-0.25,0.23-0.28,0.36h-0.1v-0.46
		c0.22-0.15,0.43-0.27,0.65-0.35c0.22-0.08,0.45-0.12,0.7-0.12C65.93,153.08,66.38,153.54,66.38,154.47 M65.72,156.25v-1.21
		l-0.3,0.05c-0.49,0.1-0.8,0.18-0.91,0.23c-0.33,0.15-0.5,0.39-0.5,0.71c0,0.26,0.07,0.45,0.21,0.58c0.14,0.13,0.34,0.2,0.6,0.2
		c0.12,0,0.24-0.03,0.36-0.09c0.12-0.06,0.22-0.13,0.3-0.22c0.05-0.03,0.1-0.08,0.15-0.14C65.69,156.31,65.72,156.27,65.72,156.25"
		/>
	<path class="st0" d="M70.03,156.3h0.06c0.11,0.17,0.25,0.32,0.42,0.44c0.17,0.12,0.34,0.18,0.53,0.18c0.22,0,0.41-0.07,0.57-0.21
		c0.16-0.14,0.24-0.32,0.24-0.55c0-0.34-0.33-0.6-0.98-0.79c-0.65-0.19-0.98-0.54-0.98-1.05c0-0.39,0.13-0.69,0.39-0.9
		c0.26-0.22,0.58-0.32,0.97-0.32c0.19,0,0.38,0.02,0.57,0.07c0.14,0.04,0.26,0.08,0.36,0.14c-0.08,0.2-0.15,0.4-0.2,0.6h-0.06
		c-0.06-0.15-0.16-0.28-0.29-0.39c-0.13-0.11-0.27-0.16-0.43-0.16c-0.22,0-0.4,0.06-0.54,0.17c-0.14,0.12-0.21,0.29-0.21,0.51
		c0,0.33,0.33,0.6,0.98,0.81c0.65,0.21,0.98,0.55,0.98,1.01c0,0.41-0.16,0.75-0.49,1c-0.29,0.22-0.64,0.33-1.04,0.33
		c-0.39,0-0.73-0.09-1.04-0.28c0.04-0.13,0.08-0.23,0.1-0.3C69.99,156.46,70.02,156.36,70.03,156.3"/>
	<path class="st0" d="M76.46,153.31c0.11-0.03,0.18-0.07,0.22-0.13c0.04-0.06,0.06-0.13,0.06-0.22c0-0.11-0.02-0.19-0.06-0.23
		c-0.02-0.03-0.07-0.04-0.15-0.05c-0.08-0.01-0.13-0.02-0.13-0.04v-0.5l0.25,0.04h0.55l-0.02,0.13v0.32c0,0.15-0.01,0.27-0.04,0.38
		c-0.03,0.11-0.09,0.21-0.18,0.32c-0.06,0.08-0.14,0.13-0.21,0.17c-0.08,0.03-0.17,0.06-0.29,0.07v3.55l-0.33-0.03
		c-0.06,0-0.11,0-0.14,0c-0.03,0-0.1,0.01-0.19,0.03v-0.73c-0.28,0.53-0.72,0.8-1.33,0.8c-0.46,0-0.8-0.13-1.02-0.39
		c-0.22-0.26-0.34-0.67-0.34-1.23v-2.44c0.08,0.01,0.14,0.02,0.17,0.02c0.03,0.01,0.09,0.01,0.16,0.01l0.33-0.03v2.24
		c0,0.46,0.07,0.81,0.22,1.05c0.15,0.23,0.41,0.35,0.77,0.35c0.38,0,0.66-0.15,0.83-0.45c0.14-0.23,0.2-0.53,0.2-0.9v-2.29
		c0.08,0.01,0.14,0.02,0.17,0.02c0.03,0.01,0.09,0.01,0.16,0.01l0.33-0.03V153.31z M74.79,158.34c-0.1,0-0.19-0.04-0.27-0.12
		c-0.08-0.08-0.12-0.17-0.12-0.27c0-0.1,0.04-0.19,0.12-0.27c0.08-0.08,0.17-0.12,0.27-0.12c0.11,0,0.2,0.04,0.27,0.11
		c0.07,0.07,0.11,0.16,0.11,0.27c0,0.1-0.04,0.19-0.12,0.27C74.98,158.3,74.89,158.34,74.79,158.34"/>
	<path class="st0" d="M79.98,157.11v-6.24l0.33,0.02l0.33-0.02v3.02c0.14-0.26,0.33-0.46,0.55-0.6c0.23-0.14,0.49-0.21,0.77-0.21
		c0.47,0,0.81,0.14,1.02,0.41c0.21,0.27,0.32,0.68,0.32,1.22v2.41l-0.33-0.03c-0.06,0-0.11,0-0.14,0c-0.03,0-0.1,0.01-0.19,0.03
		v-2.22c0-0.48-0.06-0.82-0.19-1.03c-0.14-0.23-0.39-0.35-0.74-0.35c-0.37,0-0.64,0.11-0.82,0.33c-0.17,0.22-0.26,0.55-0.26,1v2.27
		l-0.33-0.03c-0.06,0-0.11,0-0.14,0C80.13,157.08,80.07,157.09,79.98,157.11"/>
	<path class="st0" d="M84.29,155.08c0-0.59,0.18-1.07,0.53-1.45c0.36-0.37,0.81-0.56,1.36-0.56c0.52,0,0.94,0.18,1.26,0.55
		c0.32,0.37,0.48,0.86,0.48,1.47c0,0.57-0.16,1.05-0.47,1.43c-0.35,0.43-0.82,0.64-1.4,0.64c-0.5,0-0.91-0.17-1.24-0.51
		c-0.35-0.37-0.53-0.83-0.53-1.39L84.29,155.08z M86.17,153.34c-0.43,0-0.75,0.2-0.96,0.6c-0.18,0.33-0.26,0.75-0.26,1.26
		c0,0.47,0.09,0.86,0.26,1.16c0.21,0.36,0.52,0.55,0.91,0.55c0.39,0,0.69-0.22,0.9-0.67c0.17-0.35,0.25-0.74,0.25-1.17
		c0-0.45-0.07-0.83-0.22-1.13C86.84,153.54,86.55,153.34,86.17,153.34"/>
	<path class="st0" d="M91.63,154.47v1.92l-0.02,0.12c0,0.11,0.01,0.19,0.04,0.24c0.03,0.05,0.08,0.07,0.17,0.07l0.26-0.05v0.18
		c-0.07,0.04-0.15,0.07-0.25,0.09l-0.3,0.03c-0.16,0-0.29-0.04-0.38-0.12c-0.1-0.08-0.16-0.21-0.18-0.4l-0.06,0.09
		c-0.36,0.35-0.77,0.53-1.23,0.53c-0.31,0-0.57-0.1-0.79-0.29c-0.22-0.19-0.32-0.44-0.32-0.74c0-0.33,0.09-0.58,0.29-0.76
		c0.19-0.18,0.61-0.32,1.26-0.44c0.28-0.05,0.47-0.08,0.55-0.11c0.22-0.07,0.32-0.22,0.32-0.44c0-0.31-0.08-0.55-0.25-0.72
		c-0.17-0.17-0.41-0.26-0.73-0.26c-0.27,0-0.5,0.07-0.7,0.21c-0.15,0.11-0.25,0.23-0.28,0.36h-0.1v-0.46
		c0.22-0.15,0.43-0.27,0.65-0.35c0.22-0.08,0.45-0.12,0.7-0.12C91.18,153.08,91.63,153.54,91.63,154.47 M90.99,152.66H90.7
		l-1.31-0.81c-0.07-0.06-0.13-0.12-0.2-0.18c-0.01-0.02-0.02-0.07-0.02-0.13v-0.1c0.04-0.11,0.13-0.17,0.28-0.17h0.07
		c0.03,0.02,0.06,0.04,0.1,0.05c0.06,0.04,0.12,0.09,0.18,0.15c0.06,0.06,0.11,0.11,0.14,0.14L90.99,152.66z M90.96,156.25v-1.21
		l-0.3,0.05c-0.49,0.1-0.8,0.18-0.91,0.23c-0.33,0.15-0.5,0.39-0.5,0.71c0,0.26,0.07,0.45,0.21,0.58c0.14,0.13,0.34,0.2,0.6,0.2
		c0.12,0,0.24-0.03,0.36-0.09c0.12-0.06,0.22-0.13,0.3-0.22c0.05-0.03,0.1-0.08,0.15-0.14C90.93,156.31,90.96,156.27,90.96,156.25"
		/>
	<path class="st0" d="M93,157.11v-3.98c0.08,0.01,0.14,0.02,0.17,0.02c0.03,0.01,0.08,0.01,0.16,0.01l0.33-0.03v0.77
		c0.14-0.26,0.33-0.46,0.55-0.6c0.23-0.14,0.49-0.21,0.77-0.21c0.48,0,0.82,0.13,1.03,0.4c0.21,0.26,0.31,0.67,0.31,1.23v2.41
		L96,157.08c-0.06,0-0.11,0-0.14,0c-0.03,0-0.1,0.01-0.19,0.03v-2.22c0-0.44-0.05-0.77-0.17-0.97c-0.14-0.27-0.4-0.41-0.76-0.41
		c-0.41,0-0.7,0.15-0.86,0.45c-0.14,0.25-0.21,0.66-0.21,1.21v1.94l-0.33-0.03c-0.06,0-0.11,0-0.14,0
		C93.16,157.08,93.09,157.09,93,157.11"/>
	<path class="st0" d="M100.03,157.11v-3.98c0.08,0.01,0.14,0.02,0.17,0.02c0.03,0.01,0.09,0.01,0.16,0.01l0.33-0.03v0.71
		c0.14-0.25,0.31-0.43,0.49-0.55c0.21-0.14,0.45-0.21,0.74-0.21c0.27,0,0.52,0.07,0.74,0.22c0.22,0.15,0.38,0.35,0.47,0.61
		c0.16-0.28,0.35-0.49,0.56-0.62c0.21-0.14,0.45-0.21,0.73-0.21c0.49,0,0.84,0.14,1.06,0.42c0.19,0.26,0.29,0.66,0.29,1.2v2.41
		l-0.33-0.03c-0.06,0-0.11,0-0.14,0c-0.03,0-0.1,0.01-0.19,0.03v-2.22c0-0.43-0.05-0.75-0.16-0.96c-0.14-0.28-0.4-0.42-0.77-0.42
		c-0.37,0-0.63,0.15-0.78,0.45c-0.11,0.22-0.16,0.51-0.16,0.9v2.26l-0.33-0.03c-0.06,0-0.11,0-0.14,0c-0.03,0-0.1,0.01-0.19,0.03
		v-2.44c0-0.78-0.29-1.16-0.88-1.16c-0.39,0-0.67,0.12-0.82,0.36c-0.12,0.18-0.17,0.45-0.17,0.82v2.42l-0.33-0.03
		c-0.06,0-0.11,0-0.14,0C100.19,157.08,100.13,157.09,100.03,157.11"/>
	<path class="st0" d="M108.31,157.06l-1.68-3.93c0.07,0.01,0.13,0.02,0.19,0.02c0.06,0.01,0.13,0.01,0.2,0.01
		c0.06,0,0.13,0,0.21-0.01c0.08-0.01,0.14-0.02,0.19-0.02c0.17,0.52,0.34,1.02,0.53,1.5c0.19,0.48,0.42,1.01,0.7,1.59
		c0.18-0.36,0.39-0.86,0.63-1.47c0.25-0.62,0.45-1.16,0.61-1.61c0.04,0.01,0.09,0.02,0.13,0.02c0.04,0.01,0.09,0.01,0.15,0.01
		c0.04,0,0.13-0.01,0.26-0.03c-0.57,1.27-0.88,1.97-0.94,2.1c-0.44,0.98-0.74,1.64-0.9,2c-0.34,0.77-0.62,1.44-0.84,2.01
		c-0.05-0.01-0.1-0.02-0.14-0.02c-0.04-0.01-0.09-0.01-0.14-0.01c-0.08,0-0.14,0-0.17,0.01c-0.05,0.02-0.09,0.02-0.11,0.02
		L108.31,157.06z M107.8,152.45h-0.22c0.05-0.22,0.14-0.41,0.28-0.56c0.14-0.15,0.31-0.23,0.5-0.23c0.09,0,0.15,0,0.18,0.02
		l0.35,0.18c0.09,0.05,0.19,0.1,0.28,0.13c0.02,0.01,0.05,0.02,0.1,0.03s0.07,0.02,0.09,0.02c0.05,0,0.1-0.01,0.15-0.04
		c0.05-0.03,0.09-0.06,0.12-0.1c0.03-0.04,0.06-0.09,0.08-0.15c0.03-0.06,0.05-0.11,0.06-0.14h0.2c-0.04,0.23-0.13,0.43-0.26,0.58
		c-0.14,0.18-0.32,0.26-0.52,0.26c-0.08,0-0.14,0-0.18-0.02c-0.04-0.01-0.15-0.07-0.35-0.17c-0.11-0.05-0.18-0.09-0.24-0.12
		c-0.09-0.04-0.17-0.06-0.23-0.06l-0.17,0.03c-0.05,0.02-0.1,0.06-0.14,0.13C107.85,152.31,107.82,152.38,107.8,152.45"/>
	<path class="st1" d="M46.56,142.85c0.82,0,1.49,0.67,1.49,1.49c0,0.82-0.67,1.49-1.49,1.49c-0.82,0-1.49-0.67-1.49-1.49
		C45.07,143.52,45.74,142.85,46.56,142.85"/>
	<path class="st1" d="M50.06,130.52v-0.6h5.78v0.6c-0.79,0.08-1.18,0.47-1.18,1.16c0,0.31-0.02,0.81-0.06,1.51
		c-0.04,0.7-0.06,1.74-0.06,3.12c2.13,0.2,4.13,0.17,6.27,0v-1.93c0-0.3-0.01-0.75-0.04-1.35c-0.03-0.6-0.04-1.05-0.04-1.35
		c0-0.69-0.42-1.08-1.26-1.16v-0.6h5.78v0.6c-0.85,0.08-1.28,0.47-1.28,1.16c0,0.69-0.01,1.73-0.04,3.11
		c-0.03,1.39-0.04,2.42-0.04,3.11v5.33c0,0.69,0.45,1.08,1.36,1.16v0.6h-5.57v-0.6c0.82-0.08,1.22-0.47,1.22-1.16v-2.47l-0.09-2.99
		c-2.13-0.17-4.12-0.2-6.25,0c0,0.28-0.02,0.74-0.05,1.37c-0.03,0.61-0.04,1.07-0.04,1.37v2.71c0,0.69,0.46,1.08,1.36,1.16v0.6
		h-5.57v-0.6c0.81-0.08,1.22-0.47,1.22-1.16v-4.31c0-0.81-0.02-2.01-0.05-3.62c-0.03-1.61-0.05-2.81-0.05-3.62
		C51.39,130.99,50.94,130.6,50.06,130.52"/>
	<path class="st1" d="M40.3,144.34c0.22-0.13,0.44-0.27,0.64-0.43c0.74-0.6,1.42-1.39,1.79-1.98c0.87-1.38,1.3-2.87,1.3-4.48
		c0-2.32-0.72-4.21-2.17-5.65c-1.4-1.4-3.18-2.1-5.32-2.1c-2.14,0-3.91,0.7-5.31,2.1c-1.44,1.45-2.17,3.33-2.17,5.65
		c0,2.14,0.63,3.93,1.9,5.37c0.72,0.82,1.57,1.43,2.56,1.84c1.15,0.48,2.56,0.67,3.92,0.55c1.88,1.43,3.79,1.49,6.06,1.3v-0.95
		C42.62,145.6,41.39,145.09,40.3,144.34 M38.11,141.46c-1.18,0.16-1.8,0.24-2.98,0.4c0.31,0.83,0.9,1.93,1.57,2.66
		c-0.53,0.01-1.18-0.07-1.66-0.32c-1.63-0.79-2.45-3.04-2.45-6.75c0-4.71,1.31-7.06,3.94-7.06c2.64,0,3.95,2.35,3.95,7.06
		c0,2.8-0.46,4.76-1.39,5.9C38.5,142.77,38.3,142.06,38.11,141.46"/>
	<path class="st1" d="M78.67,131.8c-1.4-1.4-3.18-2.1-5.32-2.1c-2.14,0-3.91,0.7-5.31,2.1c-1.44,1.45-2.17,3.33-2.17,5.65
		c0,2.33,0.72,4.22,2.17,5.66c1.4,1.4,3.17,2.1,5.31,2.1c2.15,0,3.92-0.7,5.32-2.1c1.44-1.45,2.17-3.34,2.17-5.66
		C80.84,135.13,80.11,133.24,78.67,131.8 M73.35,144.52c-2.63,0-3.94-2.36-3.94-7.07c0-4.71,1.31-7.06,3.94-7.06
		c2.64,0,3.95,2.35,3.95,7.06C77.3,142.16,75.98,144.52,73.35,144.52"/>
	<path class="st1" d="M94.87,129.7h0.61l1.63,12.33c0.13,0.95,0.31,1.58,0.56,1.89c0.19,0.25,0.54,0.4,1.05,0.47v0.6h-5.5v-0.6
		c0.41-0.07,0.68-0.23,0.82-0.48c0.1-0.18,0.14-0.5,0.14-0.97c0-0.18-0.05-0.7-0.16-1.57l-0.66-5.56h-0.04l-4.09,9.06H88.8
		l-4.03-8.89h-0.04l-0.71,5.41c-0.09,0.71-0.13,1.22-0.13,1.53c0,0.51,0.1,0.87,0.29,1.08c0.17,0.18,0.5,0.32,0.98,0.4v0.6h-3.91
		v-0.6c0.49-0.04,0.82-0.19,1-0.44c0.15-0.22,0.3-0.84,0.46-1.85l1.89-12.4h0.52l4.93,10.86L94.87,129.7z"/>
	<path class="st1" d="M104.76,143.88c0.47,0.08,1.05,0.13,1.75,0.13c0.95,0,1.67-0.12,2.16-0.37c0.61-0.31,1.09-0.89,1.44-1.74
		l0.84,0.33l-0.65,2.99c-1.89-0.23-5.17-0.35-9.84-0.35v-0.47c0.87-0.08,1.31-0.77,1.31-2.07v-4.14c0-0.72-0.01-1.8-0.04-3.25
		c-0.03-1.45-0.04-2.53-0.04-3.25c0-0.59-0.4-1.02-1.2-1.29v-0.47c0.49,0,1.23,0.02,2.21,0.06c0.99,0.04,1.73,0.08,2.22,0.06
		l3.86-0.13c0.71-0.02,1.29,0.01,1.74-0.22c-0.04,1.22-0.04,2.24,0,3.46h-0.86c-0.27-0.82-0.59-1.37-0.97-1.64
		c-0.47-0.33-1.35-0.49-2.63-0.49h-1.08c0,0.39-0.03,1.01-0.07,1.87c-0.05,0.83-0.08,1.45-0.08,1.87v1.96h2.25
		c1.04,0,1.64-0.49,1.79-1.46h0.86c-0.04,1.48-0.04,2.69,0,4.16h-0.95c-0.07-0.6-0.22-1.01-0.46-1.22c-0.24-0.22-0.63-0.33-1.2-0.33
		h-2.33c0,0.32-0.01,0.79-0.02,1.43c-0.01,0.64-0.02,1.12-0.02,1.44V143.88z"/>
	<path class="st1" d="M90.66,90.13c0.11-0.31,0.25-0.59,0.37-0.9c1.08-2.81,1.63-5.81,1.63-8.82c0-3.01-0.55-6.02-1.63-8.82
		c-1.09-2.81-2.71-5.42-4.76-7.62c-2.06-2.21-4.56-4.02-7.33-5.25c-2.77-1.24-5.8-1.88-8.84-1.88c-3.03,0-6.07,0.63-8.84,1.86
		c-2.77,1.23-5.28,3.03-7.35,5.24c-2.07,2.21-3.7,4.81-4.8,7.63c-1.1,2.81-1.66,5.83-1.66,8.85c0,3.02,0.57,6.04,1.66,8.85
		c1.1,2.82,2.73,5.42,4.8,7.63c2.07,2.21,4.58,4.01,7.35,5.24c2.78,1.23,5.81,1.86,8.84,1.86c3.03,0,6.07-0.65,8.84-1.88
		c2.76-1.23,5.26-3.04,7.33-5.25c1.4-1.5,2.55-3.21,3.56-4.99c0.29-0.52,0.57-1.05,0.79-1.6C90.63,90.21,90.64,90.17,90.66,90.13
		 M78.89,94.09c-0.67-0.6-1.31-1.22-1.92-1.87c-0.67,0.91-1.48,1.76-2.38,2.44c-1.76,1.32-3.85,1.97-6.01,1.23
		c-1.97-0.68-3.53-2.51-3.21-4.68c0.2-1.36,1.16-2.53,2.34-3.18c1.29-0.71,2.83-0.91,4.27-0.64c1.54,0.28,2.95,1.07,4.17,2.03
		c0.65,0.52,1.25,1.08,1.82,1.68c1.12,1.2,3.94,4.25,5.6,4.35L84,95.47l-0.3,0.29c-1.69,1.64-3.67,2.99-5.82,3.95
		c-2.44,1.08-5.11,1.64-7.77,1.63c-2.67,0-5.33-0.57-7.76-1.66c-2.44-1.09-4.65-2.69-6.47-4.64c-1.83-1.96-3.27-4.27-4.23-6.77
		c-0.97-2.5-1.46-5.19-1.46-7.87c0-2.68,0.49-5.36,1.46-7.87c0.96-2.5,2.4-4.81,4.23-6.77c1.82-1.95,4.03-3.55,6.47-4.64
		c2.44-1.09,5.1-1.65,7.76-1.65c2.67,0,5.33,0.55,7.77,1.63c2.45,1.08,4.66,2.68,6.49,4.63c1.84,1.96,3.29,4.28,4.26,6.78
		c0.98,2.51,1.48,5.2,1.48,7.89c0,2.69-0.5,5.38-1.48,7.89c-0.4,1.03-0.86,2.05-1.59,2.89c-0.51,0.59-1.14,0.99-1.93,1.05
		c-0.58,0.05-1.15-0.1-1.68-0.33c-0.56-0.24-1.09-0.59-1.58-0.96c-0.67-0.52-1.3-1.12-1.88-1.74c-0.66-0.7-1.36-1.36-2.11-1.95
		c-0.77-0.62-1.6-1.16-2.49-1.61c-0.91-0.46-1.89-0.8-2.89-0.98c-2.06-0.38-4.27-0.09-6.11,0.94c-0.95,0.53-1.79,1.25-2.44,2.12
		c-0.66,0.9-1.12,1.96-1.29,3.06c-0.17,1.12-0.04,2.29,0.38,3.34c0.41,1.03,1.07,1.95,1.88,2.69c0.49,0.44,1.03,0.82,1.61,1.13
		c1.07,0.57,2.24,0.94,3.46,0.96c1.86,0.04,3.64-0.52,5.23-1.47C76.63,96.59,77.9,95.42,78.89,94.09 M81.71,88.91
		c0.51-1.39,0.88-2.81,1.13-4.27c0.26-1.51,0.4-3.01,0.37-4.54c-0.1-4.68-1.04-8.76-3.57-12.74c-2.11-3.33-5.47-5.89-9.55-5.89
		c-4.08,0-7.44,2.58-9.56,5.91c-2.51,3.94-3.55,8.06-3.56,12.71c0,5.12,1.36,10.22,4.56,14.29c-0.01-0.03-0.02-0.07-0.04-0.1
		c-0.58-1.72-0.7-3.48-0.06-5.19c-0.61-1.47-1.07-2.97-1.36-4.53c-0.27-1.48-0.39-2.96-0.39-4.46c0-1.8,0.21-3.56,0.61-5.31
		c0.42-1.81,1.04-3.49,1.95-5.12c1.61-2.87,4.36-5.47,7.84-5.48c3.5-0.01,6.23,2.62,7.85,5.49c0.89,1.58,1.5,3.23,1.92,4.99
		c0.42,1.79,0.64,3.58,0.64,5.43c-0.01,1.24-0.08,2.47-0.26,3.7c-0.15,1.01-0.38,2.01-0.66,2.99c0.41,0.35,0.79,0.72,1.16,1.1
		C81.07,88.23,81.38,88.58,81.71,88.91"/>
	<path class="st1" d="M104.05,100.8l-5.89,5.89c-0.32,0.34-0.85,0.35-1.18,0.03c-0.01,0-0.01-0.01-0.02-0.02l-5.4-5.4l-0.1-0.1
		c-0.28-0.28-0.27-0.73,0.01-1.01c0.03-0.03,0.06-0.06,0.1-0.08l3.9-2.7l-2.23,3.19l4.32,4.32l5.28-5.28
		c0.33-0.32,0.86-0.34,1.19-0.02C104.36,99.94,104.37,100.47,104.05,100.8 M90.45,114.41l5.89-5.89c0.34-0.32,0.35-0.85,0.03-1.18
		c-0.01-0.01-0.01-0.01-0.02-0.02l-5.4-5.41l-0.1-0.1c-0.28-0.28-0.73-0.28-1.01,0c-0.03,0.03-0.06,0.06-0.08,0.1l-2.7,3.9
		l3.19-2.23l4.32,4.32l-5.28,5.28c-0.32,0.33-0.34,0.86-0.02,1.19C89.59,114.71,90.12,114.73,90.45,114.41 M36.05,100.8l5.89,5.89
		c0.32,0.34,0.85,0.35,1.18,0.03c0.01,0,0.01-0.01,0.02-0.02l5.4-5.4l0.1-0.1c0.28-0.28,0.27-0.73-0.01-1.01
		c-0.03-0.03-0.06-0.06-0.1-0.08l-3.9-2.7l2.23,3.19l-4.32,4.32l-5.28-5.28c-0.33-0.32-0.86-0.34-1.19-0.02
		C35.75,99.94,35.74,100.47,36.05,100.8 M70.05,111.13h-6.69c0,0.09-0.01,0.19-0.02,0.28c-0.11,1.03-0.61,1.95-1.41,2.59
		c-0.8,0.65-1.81,0.94-2.83,0.83c-0.84-0.09-1.59-0.5-2.11-1.15c-0.53-0.65-0.77-1.47-0.68-2.31c0.05-0.46,0.46-0.79,0.92-0.74
		c0.46,0.05,0.79,0.46,0.74,0.92c-0.04,0.39,0.07,0.78,0.32,1.08c0.25,0.31,0.6,0.5,0.99,0.54c0.58,0.06,1.15-0.11,1.61-0.47
		c0.45-0.37,0.74-0.89,0.8-1.47c0.18-1.69-1.04-3.21-2.73-3.39c-1.11-0.12-2.21,0.2-3.08,0.9c-0.87,0.7-1.42,1.7-1.54,2.82
		c-0.02,0.21-0.03,0.44-0.03,0.67c0,0.01,0,0.03,0,0.04c0.03,1.26-0.23,2.5-0.75,3.64l1.59,1.59c1.21,1.03,2.76,1.59,4.39,1.59
		c0,0,5.27,0,10.54-0.01c5.26,0.01,10.51,0.01,10.51,0.01c1.63,0,3.17-0.56,4.39-1.59l1.59-1.59c-0.52-1.14-0.78-2.38-0.75-3.64
		c0-0.01,0-0.03,0-0.04c0-0.23-0.01-0.46-0.03-0.67c-0.12-1.11-0.67-2.11-1.54-2.82c-0.87-0.7-1.96-1.02-3.08-0.9
		c-1.69,0.18-2.91,1.7-2.73,3.39c0.06,0.58,0.35,1.1,0.8,1.47c0.45,0.37,1.02,0.53,1.61,0.47c0.39-0.04,0.74-0.23,0.99-0.54
		c0.25-0.31,0.36-0.69,0.32-1.08c-0.05-0.46,0.28-0.87,0.74-0.92c0.46-0.05,0.87,0.28,0.92,0.74c0.09,0.84-0.15,1.66-0.68,2.31
		c-0.53,0.65-1.28,1.06-2.11,1.15c-1.03,0.11-2.03-0.19-2.83-0.83c-0.8-0.65-1.3-1.57-1.41-2.59c-0.01-0.09-0.02-0.19-0.02-0.28
		H70.05z M49.66,114.41l-5.89-5.89c-0.34-0.32-0.35-0.85-0.03-1.18c0-0.01,0.01-0.01,0.02-0.02l5.4-5.41l0.1-0.1
		c0.28-0.28,0.73-0.28,1.01,0c0.03,0.03,0.06,0.06,0.08,0.1l2.7,3.9l-3.19-2.23l-4.32,4.32l5.28,5.28c0.32,0.33,0.34,0.86,0.02,1.19
		C50.52,114.71,49.99,114.73,49.66,114.41 M101.44,80.41v6.83c0.76,0.22,1.43,0.66,1.94,1.29c0.65,0.8,0.94,1.81,0.83,2.83
		c-0.09,0.83-0.5,1.59-1.15,2.11c-0.65,0.53-1.48,0.77-2.31,0.68c-0.46-0.05-0.79-0.46-0.74-0.92c0.05-0.46,0.46-0.79,0.92-0.74
		c0.39,0.04,0.77-0.07,1.08-0.32c0.31-0.25,0.5-0.6,0.54-0.99c0.06-0.58-0.1-1.15-0.47-1.6c-0.37-0.46-0.89-0.74-1.47-0.8
		c-1.69-0.18-3.21,1.05-3.39,2.73c-0.12,1.11,0.2,2.21,0.9,3.08c0.7,0.87,1.7,1.42,2.82,1.54c0.28,0.03,0.57,0.04,0.86,0.02
		c0.04,0,0.07,0,0.1,0c0.42-0.01,0.85,0.02,1.26,0.08c0,0,0,0,0,0c0,0,0.01,0,0.01,0c0.1,0.01,0.2,0.03,0.29,0.04
		c0.06,0.01,0.12,0.02,0.18,0.03c0.06,0.01,0.13,0.02,0.19,0.04c0.05,0.01,0.11,0.02,0.17,0.04c0.1,0.02,0.2,0.05,0.29,0.07
		c0.01,0,0.02,0.01,0.02,0.01c0.19,0.05,0.37,0.11,0.55,0.17c0.03,0.01,0.06,0.02,0.09,0.04c0.2,0.07,0.39,0.15,0.58,0.24l1.59-1.59
		c1.03-1.21,1.6-2.76,1.6-4.39c0,0,0-5.24-0.02-10.51c0.02-5.26,0.02-10.53,0.02-10.53c0-1.63-0.57-3.18-1.6-4.39l-1.59-1.59
		 M104.05,60.01l-5.89-5.89c-0.32-0.33-0.85-0.35-1.18-0.03c-0.01,0-0.01,0.01-0.02,0.02l-5.4,5.41l-0.1,0.1
		c-0.28,0.28-0.27,0.73,0.01,1.01c0.03,0.03,0.06,0.06,0.1,0.08l3.9,2.7l-2.23-3.19l4.32-4.32l5.28,5.28
		c0.33,0.32,0.86,0.34,1.19,0.02C104.36,60.88,104.37,60.35,104.05,60.01 M101.44,80.41v-6.83c0.76-0.22,1.43-0.66,1.94-1.29
		c0.65-0.8,0.94-1.81,0.83-2.83c-0.09-0.83-0.5-1.59-1.15-2.11c-0.65-0.53-1.48-0.77-2.31-0.68c-0.46,0.05-0.79,0.46-0.74,0.92
		c0.05,0.46,0.46,0.79,0.92,0.74c0.39-0.04,0.77,0.07,1.08,0.32c0.31,0.25,0.5,0.6,0.54,0.99c0.06,0.58-0.1,1.15-0.47,1.61
		c-0.37,0.45-0.89,0.74-1.47,0.8c-1.69,0.18-3.21-1.05-3.39-2.73c-0.12-1.11,0.2-2.21,0.9-3.08c0.7-0.87,1.7-1.42,2.82-1.54
		c0.28-0.03,0.57-0.04,0.86-0.03c0.04,0,0.07,0,0.1,0c0.42,0.01,0.85-0.02,1.26-0.08c0,0,0,0,0,0c0,0,0.01,0,0.01,0
		c0.1-0.01,0.2-0.03,0.29-0.04c0.06-0.01,0.12-0.02,0.18-0.03c0.06-0.01,0.13-0.03,0.19-0.04c0.05-0.01,0.11-0.02,0.17-0.04
		c0.1-0.02,0.2-0.05,0.29-0.07c0.01,0,0.02-0.01,0.02-0.01c0.19-0.05,0.37-0.11,0.55-0.17c0.03-0.01,0.06-0.02,0.09-0.04
		c0.2-0.07,0.39-0.15,0.58-0.24 M90.45,46.41l5.89,5.89c0.34,0.32,0.35,0.85,0.03,1.18c-0.01,0-0.01,0.01-0.02,0.02l-5.4,5.4
		l-0.1,0.1c-0.28,0.28-0.73,0.27-1.01-0.01c-0.03-0.03-0.06-0.06-0.08-0.1l-2.7-3.9l3.19,2.23l4.32-4.32l-5.28-5.28
		c-0.32-0.33-0.34-0.86-0.02-1.19C89.59,46.1,90.12,46.09,90.45,46.41 M107.06,63.02c0.02-0.02,0.04-0.03,0.06-0.05
		c2.05-1.55,3.28-4.05,3.28-6.69V40.89c0-0.46-0.38-0.84-0.84-0.84H94.17c-2.64,0-5.14,1.23-6.69,3.28
		c-0.02,0.02-0.03,0.04-0.05,0.06l-1.14-1.14c-0.01-0.01,0,0,0,0c-1.55-1.41-3.59-2.21-5.72-2.21c0,0-5.27,0.01-10.54,0.01
		c-5.26,0-10.51-0.01-10.51-0.01c-2.12,0-4.15,0.78-5.69,2.19c-0.01,0.01-0.01,0.01-0.02,0.02l-1.14,1.14
		c-0.01-0.02-0.03-0.04-0.05-0.06c-1.55-2.05-4.05-3.28-6.69-3.28H30.54c-0.46,0-0.84,0.38-0.84,0.84v15.39
		c0,2.64,1.22,5.14,3.27,6.69c0.02,0.02,0.04,0.03,0.06,0.05l-1.15,1.15c-0.01,0.01,0.01-0.01,0,0c-1.41,1.55-2.21,3.59-2.21,5.72
		c0,0,0.01,5.24,0.01,10.51c0,5.26-0.01,10.53-0.01,10.53c0,2.13,0.78,4.15,2.19,5.69c0.01,0.01,0.01,0.01,0.02,0.02l1.15,1.15
		c-0.02,0.02-0.04,0.03-0.06,0.05c-2.05,1.55-3.27,4.05-3.27,6.69v15.39c0,0.46,0.37,0.84,0.84,0.84h15.39
		c2.64,0,5.14-1.22,6.69-3.28c0.02-0.02,0.03-0.04,0.05-0.06l1.17,1.16c0.01,0.01-0.01-0.01,0,0c1.55,1.41,3.57,2.19,5.69,2.19
		c0,0,5.27-0.01,10.54-0.01c5.26,0,10.51,0.01,10.51,0.01c2.13,0,4.16-0.79,5.71-2.21c0.01-0.01-0.01,0.01,0.01-0.01l1.14-1.14
		c0.02,0.02,0.03,0.04,0.05,0.06c1.55,2.05,4.05,3.28,6.69,3.28h15.39c0.46,0,0.84-0.38,0.84-0.84v-15.39
		c0-2.64-1.23-5.14-3.28-6.69c-0.02-0.02-0.04-0.03-0.06-0.05l1.15-1.15c0.01-0.01,0.01-0.01,0.02-0.02
		c1.41-1.55,2.19-3.57,2.19-5.69c0,0-0.01-5.27-0.01-10.53c0-5.26,0.01-10.51,0.01-10.51c0-2.13-0.79-4.17-2.2-5.71
		c-0.01-0.01-0.01-0.01-0.02-0.02L107.06,63.02z M36.05,60.01l5.89-5.89c0.32-0.33,0.85-0.35,1.18-0.03c0.01,0,0.01,0.01,0.02,0.02
		l5.4,5.41l0.1,0.1c0.28,0.28,0.27,0.73-0.01,1.01c-0.03,0.03-0.06,0.06-0.1,0.08l-3.9,2.7l2.23-3.19l-4.32-4.32l-5.28,5.28
		c-0.33,0.32-0.86,0.34-1.19,0.02C35.75,60.88,35.74,60.35,36.05,60.01 M34.55,96.91c0.19-0.09,0.39-0.17,0.58-0.24
		c0.03-0.01,0.06-0.03,0.09-0.04c0.18-0.06,0.36-0.12,0.55-0.17c0.01,0,0.02-0.01,0.03-0.01c0.09-0.03,0.19-0.05,0.29-0.07
		c0.06-0.01,0.11-0.03,0.17-0.04c0.06-0.01,0.13-0.03,0.19-0.04c0.06-0.01,0.12-0.02,0.18-0.03c0.1-0.02,0.19-0.03,0.29-0.04
		c0,0,0.01,0,0.01,0c0,0,0,0,0,0c0.42-0.06,0.84-0.08,1.26-0.08c0.03,0,0.07,0,0.1,0c0.29,0.01,0.58,0.01,0.86-0.02
		c1.11-0.12,2.11-0.66,2.82-1.54c0.7-0.87,1.02-1.96,0.91-3.08c-0.18-1.69-1.7-2.91-3.39-2.73c-0.58,0.06-1.1,0.35-1.47,0.8
		c-0.37,0.45-0.53,1.02-0.47,1.6c0.04,0.39,0.23,0.74,0.54,0.99c0.31,0.25,0.69,0.36,1.08,0.32c0.46-0.05,0.87,0.28,0.92,0.74
		c0.05,0.46-0.28,0.87-0.74,0.92c-0.83,0.09-1.65-0.15-2.31-0.68c-0.65-0.53-1.07-1.28-1.15-2.11c-0.11-1.03,0.19-2.03,0.83-2.83
		c0.51-0.63,1.18-1.07,1.94-1.29v-6.76v-6.91c-0.76-0.22-1.43-0.66-1.94-1.29c-0.65-0.8-0.94-1.81-0.83-2.83
		c0.09-0.83,0.5-1.59,1.15-2.11c0.65-0.53,1.48-0.77,2.31-0.68c0.46,0.05,0.79,0.46,0.74,0.92c-0.05,0.46-0.46,0.79-0.92,0.74
		c-0.39-0.04-0.77,0.07-1.08,0.32c-0.31,0.25-0.5,0.6-0.54,0.99c-0.06,0.58,0.1,1.15,0.47,1.61c0.37,0.45,0.89,0.74,1.47,0.8
		c1.69,0.18,3.21-1.05,3.39-2.73c0.12-1.11-0.2-2.21-0.91-3.08c-0.7-0.87-1.7-1.42-2.82-1.54c-0.28-0.03-0.57-0.04-0.86-0.03
		c-0.04,0-0.07,0-0.1,0c-0.42,0.01-0.85-0.02-1.26-0.08c0,0,0,0,0,0c0,0-0.01,0-0.01,0c-0.1-0.01-0.2-0.03-0.29-0.04
		c-0.06-0.01-0.12-0.02-0.18-0.03c-0.07-0.01-0.13-0.03-0.19-0.04c-0.05-0.01-0.11-0.02-0.17-0.04c-0.1-0.02-0.2-0.05-0.29-0.07
		c-0.01,0-0.02-0.01-0.03-0.01c-0.19-0.05-0.37-0.11-0.55-0.17c-0.03-0.01-0.06-0.02-0.09-0.04c-0.2-0.07-0.39-0.15-0.58-0.24
		l-1.64,1.65c-1.03,1.21-1.54,2.7-1.54,4.33c0,0,0,5.27,0.01,10.53c-0.01,5.26-0.01,10.51-0.01,10.51c0,1.63,0.56,3.17,1.59,4.39
		L34.55,96.91z M63.37,49.69h13.37c0-0.09,0.01-0.19,0.02-0.28c0.11-1.03,0.61-1.95,1.41-2.59c0.8-0.65,1.81-0.94,2.83-0.83
		c0.83,0.09,1.59,0.5,2.11,1.15c0.53,0.65,0.77,1.48,0.68,2.31c-0.05,0.46-0.46,0.79-0.92,0.74c-0.46-0.05-0.79-0.46-0.74-0.92
		c0.04-0.39-0.07-0.78-0.32-1.08c-0.25-0.31-0.6-0.5-0.99-0.54c-0.58-0.06-1.15,0.11-1.61,0.47c-0.45,0.37-0.74,0.89-0.8,1.47
		c-0.18,1.69,1.04,3.21,2.73,3.39c1.11,0.12,2.21-0.2,3.08-0.91c0.87-0.7,1.42-1.7,1.54-2.82c0.02-0.21,0.03-0.44,0.03-0.67
		c0-0.01,0-0.03,0-0.04c-0.03-1.26,0.23-2.5,0.75-3.64l-1.59-1.59c-1.21-1.03-2.76-1.59-4.39-1.59c0,0-5.27,0-10.54,0.01
		c-5.26-0.01-10.51-0.01-10.51-0.01c-1.63,0-3.17,0.56-4.39,1.59l-1.59,1.59c0.52,1.14,0.78,2.38,0.75,3.64c0,0.01,0,0.03,0,0.04
		c0,0.23,0.01,0.46,0.03,0.67c0.12,1.11,0.66,2.11,1.54,2.82c0.87,0.7,1.96,1.02,3.08,0.91c1.69-0.18,2.91-1.7,2.73-3.39
		c-0.06-0.58-0.35-1.1-0.8-1.47c-0.45-0.37-1.02-0.53-1.61-0.47c-0.39,0.04-0.74,0.23-0.99,0.54c-0.25,0.31-0.36,0.69-0.32,1.08
		c0.05,0.46-0.28,0.87-0.74,0.92c-0.46,0.05-0.87-0.28-0.92-0.74c-0.09-0.84,0.15-1.66,0.68-2.31c0.53-0.65,1.28-1.06,2.11-1.15
		c1.03-0.11,2.03,0.19,2.83,0.83c0.8,0.65,1.3,1.57,1.41,2.59C63.36,49.5,63.36,49.59,63.37,49.69 M40.34,80.41V73.7
		c2.17-0.24,3.97-1.96,4.21-4.22c0.17-1.56-0.28-3.09-1.27-4.31c-0.98-1.22-2.38-1.98-3.94-2.15c-0.34-0.04-0.68-0.05-1.03-0.04
		c-0.02,0-0.05,0-0.07,0c-0.36,0.01-0.73-0.01-1.09-0.06c0,0-0.01,0-0.01,0h0c-0.08-0.01-0.16-0.02-0.24-0.04
		c-0.05-0.01-0.09-0.02-0.14-0.03c-0.05-0.01-0.1-0.02-0.16-0.03c-0.04-0.01-0.09-0.02-0.13-0.03c-0.08-0.02-0.16-0.04-0.23-0.06
		c0,0-0.02-0.01-0.02-0.01c-0.12-0.03-0.24-0.07-0.36-0.11c-0.02-0.01-0.05-0.02-0.07-0.03c-0.65-0.23-1.25-0.55-1.79-0.96
		c-1.64-1.23-2.61-3.24-2.61-5.35V41.73h14.55c2.12,0,4.12,0.98,5.35,2.61c0.92,1.22,1.38,2.67,1.34,4.22c0,0.01,0,0.03,0,0.04
		c0,0.29,0.01,0.56,0.04,0.83c0.17,1.56,0.93,2.96,2.15,3.94c1.22,0.98,2.75,1.43,4.31,1.27c1.93-0.21,3.46-1.54,4.02-3.27h6.91
		h6.91c0.56,1.73,2.09,3.07,4.02,3.27c1.56,0.17,3.09-0.28,4.31-1.27c1.22-0.98,1.98-2.38,2.15-3.94c0.03-0.27,0.04-0.54,0.04-0.83
		c0-0.01,0-0.03,0-0.04c-0.04-1.55,0.42-3,1.34-4.22c1.23-1.63,3.24-2.61,5.35-2.61h14.55v14.55c0,2.12-0.98,4.12-2.61,5.35
		c-0.54,0.41-1.15,0.74-1.79,0.96c-0.03,0.01-0.05,0.02-0.07,0.03c-0.11,0.04-0.23,0.08-0.36,0.11c0,0-0.02,0.01-0.02,0.01
		c-0.07,0.02-0.15,0.04-0.23,0.06c-0.04,0.01-0.09,0.02-0.13,0.03c-0.05,0.01-0.1,0.02-0.16,0.03c-0.05,0.01-0.09,0.02-0.14,0.03
		c-0.08,0.01-0.16,0.03-0.24,0.04h0c0,0-0.01,0-0.01,0c-0.36,0.05-0.73,0.07-1.09,0.06c-0.02,0-0.05,0-0.07,0
		c-0.35-0.01-0.69,0-1.03,0.04c-1.56,0.17-2.96,0.93-3.94,2.15c-0.98,1.22-1.43,2.75-1.27,4.31c0.24,2.26,2.04,3.98,4.21,4.22v6.71
		v6.71c-2.17,0.24-3.97,1.96-4.21,4.22c-0.17,1.56,0.28,3.09,1.27,4.31c0.98,1.22,2.38,1.98,3.94,2.15
		c0.34,0.04,0.68,0.05,1.03,0.04c0.02,0,0.05,0,0.07,0c0.36-0.01,0.73,0.01,1.09,0.06c0,0,0.01,0,0.01,0c0,0,0,0,0,0
		c0.08,0.01,0.16,0.02,0.24,0.04c0.05,0.01,0.09,0.02,0.14,0.02c0.05,0.01,0.1,0.02,0.16,0.03c0.04,0.01,0.09,0.02,0.13,0.03
		c0.08,0.02,0.16,0.04,0.23,0.06c0,0,0.02,0.01,0.02,0.01c0.12,0.03,0.24,0.07,0.36,0.11c0.02,0.01,0.05,0.02,0.07,0.03
		c0.65,0.23,1.25,0.55,1.79,0.96c1.64,1.23,2.61,3.24,2.61,5.35v14.56H94.17c-2.12,0-4.12-0.98-5.35-2.61
		c-0.92-1.22-1.38-2.67-1.34-4.22c0-0.01,0-0.03,0-0.04c0-0.29-0.01-0.56-0.04-0.83c-0.17-1.56-0.93-2.96-2.15-3.94
		c-1.22-0.98-2.75-1.43-4.31-1.27c-1.92,0.21-3.46,1.54-4.02,3.27h-6.91h-6.91c-0.56-1.73-2.09-3.07-4.02-3.27
		c-1.56-0.17-3.09,0.28-4.31,1.27c-1.22,0.98-1.98,2.38-2.15,3.94c-0.03,0.27-0.04,0.54-0.04,0.83c0,0.02,0,0.03,0,0.04
		c0.04,1.55-0.42,3-1.34,4.22c-1.23,1.64-3.24,2.61-5.35,2.61H31.38v-14.56c0-2.12,0.98-4.12,2.61-5.35
		c0.54-0.41,1.15-0.74,1.79-0.96c0.03-0.01,0.05-0.02,0.07-0.03c0.11-0.04,0.24-0.07,0.36-0.11c0,0,0.02-0.01,0.02-0.01
		c0.07-0.02,0.15-0.04,0.23-0.06c0.04-0.01,0.09-0.02,0.13-0.03c0.05-0.01,0.1-0.02,0.16-0.03c0.05-0.01,0.09-0.02,0.14-0.02
		c0.08-0.01,0.16-0.03,0.24-0.04c0,0,0,0,0,0c0,0,0.01,0,0.01,0c0.36-0.05,0.73-0.07,1.09-0.06c0.02,0,0.05,0,0.07,0
		c0.35,0.01,0.69,0,1.03-0.04c1.56-0.17,2.96-0.93,3.94-2.15c0.98-1.22,1.43-2.75,1.27-4.31c-0.24-2.26-2.04-3.98-4.21-4.22V80.41z
		 M49.66,46.41l-5.89,5.89c-0.34,0.32-0.35,0.85-0.03,1.18c0,0,0.01,0.01,0.02,0.02l5.4,5.4l0.1,0.1c0.28,0.28,0.73,0.27,1.01-0.01
		c0.03-0.03,0.06-0.06,0.08-0.1l2.7-3.9l-3.19,2.23l-4.32-4.32l5.28-5.28c0.32-0.33,0.34-0.86,0.02-1.19
		C50.52,46.1,49.99,46.09,49.66,46.41"/>
</g>
</svg>
